<svg width="29" height="26" viewBox="0 0 29 26" fill="none" xmlns="http://www.w3.org/2000/svg">
<path fill-rule="evenodd" clip-rule="evenodd" d="M3.86458 1.38702C2.41966 2.38139 1.12815 4.05112 0.516841 5.84771C-1.29098 11.1668 1.52122 15.8005 10.895 23.3401L14.4743 26L17.3642 23.8733C22.6125 19.918 27.7178 15.4573 28.6386 11.6826C30.3126 4.82056 25.9604 -0.32637 19.9343 0.016145C17.5745 0.150276 16.2756 1.42868 15.5819 2.07307C14.3198 3.24312 15.2473 3.10426 12.2341 1.04373C9.83307 -0.380238 6.47455 -0.410268 3.86458 1.38702ZM12.5246 3.70103C13.3491 4.34558 13.9081 5.16302 14.5776 5.96977C15.2549 5.01205 15.954 4.23877 16.6055 3.70446C22.8124 -1.38544 29.8897 6.31702 25.5777 13.4684C24.1248 15.8771 15.5819 23.0061 14.5774 23.3401C13.5734 23.0061 5.03013 15.8771 3.57718 13.4684C1.53232 10.077 1.74725 6.5325 4.14765 4.07231C6.60763 1.55102 9.60458 1.41857 12.5246 3.70103Z" fill="#55721E"/>
</svg>
