<svg width="150" height="71" viewBox="0 0 150 71" fill="none" xmlns="http://www.w3.org/2000/svg">
<g clip-path="url(#clip0_581_1666)">
<path d="M10.9202 20.7576C10.9202 20.7239 10.9537 20.7071 11.0208 20.7071C11.0712 20.7071 11.1131 20.7155 11.1467 20.7323C11.197 20.7492 11.2221 20.7745 11.2221 20.8081C11.0712 21.8692 10.9957 22.9808 10.9957 24.1428C10.9957 24.2776 10.9621 24.3786 10.895 24.446C10.8447 24.4964 10.7441 24.5217 10.5931 24.5217H0.0503226C0.016775 24.5217 0 24.4711 0 24.3701C0 24.2691 0.016775 24.2187 0.0503226 24.2187C0.687751 24.2187 1.14905 24.1763 1.43422 24.0924C1.73617 24.0081 1.93745 23.848 2.03811 23.6124C2.15552 23.3597 2.21422 22.9808 2.21422 22.4755V10.7789C2.21422 10.2736 2.15552 9.90311 2.03811 9.66734C1.93745 9.43156 1.73617 9.27155 1.43422 9.18733C1.14905 9.0863 0.687751 9.03577 0.0503226 9.03577C0.016775 9.03577 0 8.98524 0 8.88419C0 8.78315 0.016775 8.73262 0.0503226 8.73262H10.1653C10.3163 8.73262 10.3918 8.80841 10.3918 8.95998L10.4421 12.0673C10.4421 12.1178 10.4002 12.1515 10.3163 12.1683C10.2324 12.1683 10.1821 12.1431 10.1653 12.0925C10.115 11.1999 9.84662 10.5094 9.36018 10.021C8.87374 9.51575 8.22789 9.26313 7.42272 9.26313H5.88782C5.30075 9.26313 4.86458 9.31366 4.57943 9.41471C4.31101 9.49891 4.11814 9.65894 4.00071 9.89469C3.90007 10.1136 3.84972 10.4505 3.84972 10.9052V16.0335H6.91949C7.72466 16.0335 8.29498 15.8988 8.63045 15.6293C8.98272 15.3598 9.15885 14.9051 9.15885 14.2651C9.15885 14.2314 9.2092 14.2146 9.30984 14.2146C9.41048 14.2146 9.46082 14.2314 9.46082 14.2651L9.43567 16.3114C9.43567 16.7998 9.44403 17.1703 9.46082 17.423L9.48597 18.6355C9.48597 18.6692 9.43565 18.6861 9.33498 18.6861C9.23434 18.6861 9.18405 18.6692 9.18405 18.6355C9.18405 17.8945 8.99951 17.364 8.63045 17.044C8.27819 16.724 7.6827 16.564 6.844 16.564H3.84972V22.3744C3.84972 22.8459 3.90007 23.1913 4.00071 23.4101C4.10135 23.6292 4.28586 23.7808 4.55425 23.8648C4.82267 23.949 5.24202 23.9911 5.81238 23.9911H7.82528C8.63045 23.9911 9.30148 23.7049 9.83826 23.1322C10.375 22.5597 10.7357 21.7681 10.9202 20.7576ZM16.1314 11.6883C16.1314 12.3452 16.2908 12.9178 16.6095 13.4062C16.9282 13.8946 17.314 14.3072 17.7669 14.6441C18.2198 14.9641 18.8573 15.3767 19.6792 15.8819C20.5515 16.404 21.2309 16.8419 21.7174 17.1956C22.2038 17.5492 22.6147 18.004 22.9502 18.5598C23.3025 19.0987 23.4787 19.7471 23.4787 20.505C23.4787 21.3134 23.2773 22.046 22.8747 22.7028C22.4721 23.3597 21.8766 23.8818 21.0883 24.2691C20.3166 24.6395 19.3857 24.825 18.2953 24.825C17.0037 24.825 15.8211 24.5302 14.7475 23.9407C14.6637 23.8901 14.6049 23.8312 14.5714 23.7638C14.5546 23.6964 14.5379 23.5954 14.5211 23.4607L14.194 20.025C14.1772 19.9576 14.2108 19.9155 14.2946 19.8987C14.3953 19.8818 14.454 19.9071 14.4708 19.9745C14.7392 21.1871 15.234 22.2312 15.9553 23.1071C16.6934 23.9828 17.6663 24.4207 18.874 24.4207C19.7127 24.4207 20.4173 24.1934 20.9877 23.7385C21.5748 23.267 21.8683 22.526 21.8683 21.5155C21.8683 20.7576 21.7007 20.1008 21.3651 19.545C21.0296 18.9892 20.6186 18.5345 20.1321 18.1808C19.6625 17.8103 19.0166 17.3808 18.1947 16.8924C17.3895 16.404 16.7521 15.983 16.2824 15.6293C15.8295 15.2756 15.4437 14.8293 15.125 14.2904C14.8062 13.7515 14.6469 13.1199 14.6469 12.3957C14.6469 11.5536 14.865 10.8378 15.3011 10.2484C15.754 9.64207 16.3327 9.19576 17.0373 8.90945C17.7586 8.6063 18.5218 8.45474 19.327 8.45474C20.3166 8.45474 21.2979 8.65683 22.2709 9.06104C22.5224 9.14523 22.6482 9.28839 22.6482 9.49048L22.8244 12.3957C22.8244 12.4631 22.7823 12.4967 22.6985 12.4967C22.6147 12.4967 22.5644 12.4631 22.5476 12.3957C22.4135 11.5199 22.0527 10.7115 21.4657 9.97048C20.8786 9.2126 20.0315 8.83368 18.9244 8.83368C17.985 8.83368 17.2805 9.11156 16.8108 9.66734C16.3579 10.2063 16.1314 10.8799 16.1314 11.6883ZM29.5983 9.18733C28.5414 9.18733 27.7446 9.45682 27.2079 9.99575C26.6879 10.5347 26.3104 11.4526 26.0756 12.7494C26.0756 12.783 26.0253 12.7999 25.9245 12.7999C25.8407 12.7999 25.7989 12.783 25.7989 12.7494C25.8659 12.1431 25.9413 11.3515 26.0253 10.3747C26.1092 9.39785 26.151 8.66523 26.151 8.17685C26.151 8.09264 26.193 8.05053 26.2768 8.05053C26.3774 8.05053 26.4277 8.09264 26.4277 8.17685C26.4277 8.54737 26.8808 8.73262 27.7867 8.73262C29.2124 8.78315 30.8982 8.80841 32.844 8.80841C33.8338 8.80841 34.8823 8.79155 35.9893 8.75789L37.7003 8.73262C38.3043 8.73262 38.7487 8.69049 39.034 8.6063C39.336 8.52211 39.5287 8.35368 39.6127 8.10106C39.6293 8.03366 39.6796 8 39.7636 8C39.8475 8 39.8895 8.03366 39.8895 8.10106C39.8392 8.58946 39.7889 9.33052 39.7386 10.3242C39.6883 11.3178 39.663 12.1262 39.663 12.7494C39.663 12.783 39.6127 12.7999 39.5121 12.7999C39.4115 12.7999 39.3613 12.783 39.3613 12.7494C39.3107 11.4357 39.0422 10.5179 38.556 9.99575C38.0694 9.45682 37.2642 9.18733 36.1402 9.18733C35.3855 9.18733 34.8487 9.22102 34.53 9.28839C34.2112 9.35579 33.9932 9.49891 33.8756 9.71786C33.7583 9.93682 33.6995 10.3073 33.6995 10.8294V22.4755C33.6995 22.9976 33.7583 23.3765 33.8756 23.6124C33.9932 23.848 34.2197 24.0081 34.555 24.0924C34.8905 24.1763 35.419 24.2187 36.1402 24.2187C36.1907 24.2187 36.2157 24.2691 36.2157 24.3701C36.2157 24.4711 36.1907 24.5217 36.1402 24.5217C35.5867 24.5217 35.1423 24.5132 34.8067 24.4964L32.844 24.4711L30.957 24.4964C30.6215 24.5132 30.1601 24.5217 29.573 24.5217C29.5395 24.5217 29.5227 24.4711 29.5227 24.3701C29.5227 24.2691 29.5395 24.2187 29.573 24.2187C30.2944 24.2187 30.8227 24.1763 31.1582 24.0924C31.4937 24.0081 31.7202 23.848 31.8376 23.6124C31.9717 23.3597 32.039 22.9808 32.039 22.4755V10.7789C32.039 10.2568 31.9802 9.89469 31.8628 9.6926C31.7452 9.47364 31.5273 9.33892 31.2085 9.28839C30.8899 9.22102 30.353 9.18733 29.5983 9.18733ZM52.7417 20.7576C52.7417 20.7239 52.7752 20.7071 52.8422 20.7071C52.8928 20.7071 52.9348 20.7155 52.9681 20.7323C53.0184 20.7492 53.0437 20.7745 53.0437 20.8081C52.8928 21.8692 52.8172 22.9808 52.8172 24.1428C52.8172 24.2776 52.7837 24.3786 52.7166 24.446C52.6663 24.4964 52.5655 24.5217 52.4146 24.5217H41.8719C41.8384 24.5217 41.8216 24.4711 41.8216 24.3701C41.8216 24.2691 41.8384 24.2187 41.8719 24.2187C42.5092 24.2187 42.9706 24.1763 43.2557 24.0924C43.5577 24.0081 43.7589 23.848 43.8597 23.6124C43.977 23.3597 44.0358 22.9808 44.0358 22.4755V10.7789C44.0358 10.2736 43.977 9.90311 43.8597 9.66734C43.7589 9.43156 43.5577 9.27155 43.2557 9.18733C42.9706 9.0863 42.5092 9.03577 41.8719 9.03577C41.8384 9.03577 41.8216 8.98524 41.8216 8.88419C41.8216 8.78315 41.8384 8.73262 41.8719 8.73262H51.987C52.1379 8.73262 52.2134 8.80841 52.2134 8.95998L52.2637 12.0673C52.2637 12.1178 52.2215 12.1515 52.1379 12.1683C52.054 12.1683 52.0037 12.1431 51.987 12.0925C51.9364 11.1999 51.668 10.5094 51.1817 10.021C50.6953 9.51575 50.0495 9.26313 49.2443 9.26313H47.7094C47.1224 9.26313 46.686 9.31366 46.401 9.41471C46.1325 9.49891 45.9398 9.65894 45.8222 9.89469C45.7216 10.1136 45.6713 10.4505 45.6713 10.9052V16.0335H48.7411C49.5461 16.0335 50.1165 15.8988 50.4521 15.6293C50.8042 15.3598 50.9803 14.9051 50.9803 14.2651C50.9803 14.2314 51.0306 14.2146 51.1314 14.2146C51.232 14.2146 51.2823 14.2314 51.2823 14.2651L51.2571 16.3114C51.2571 16.7998 51.2653 17.1703 51.2823 17.423L51.3074 18.6355C51.3074 18.6692 51.2571 18.6861 51.1565 18.6861C51.0559 18.6861 51.0056 18.6692 51.0056 18.6355C51.0056 17.8945 50.8212 17.364 50.4521 17.044C50.0998 16.724 49.504 16.564 48.6655 16.564H45.6713V22.3744C45.6713 22.8459 45.7216 23.1913 45.8222 23.4101C45.9228 23.6292 46.1072 23.7808 46.3757 23.8648C46.6444 23.949 47.0633 23.9911 47.6338 23.9911H49.6469C50.4521 23.9911 51.1232 23.7049 51.6597 23.1322C52.1964 22.5597 52.5572 21.7681 52.7417 20.7576ZM59.06 9.18733C58.0033 9.18733 57.2063 9.45682 56.6696 9.99575C56.1496 10.5347 55.7721 11.4526 55.5373 12.7494C55.5373 12.783 55.487 12.7999 55.3864 12.7999C55.3026 12.7999 55.2606 12.783 55.2606 12.7494C55.3279 12.1431 55.4034 11.3515 55.487 10.3747C55.5709 9.39785 55.6129 8.66523 55.6129 8.17685C55.6129 8.09264 55.6549 8.05053 55.7387 8.05053C55.8393 8.05053 55.8896 8.09264 55.8896 8.17685C55.8896 8.54737 56.3425 8.73262 57.2484 8.73262C58.6744 8.78315 60.3601 8.80841 62.3059 8.80841C63.2955 8.80841 64.344 8.79155 65.4512 8.75789L67.1622 8.73262C67.766 8.73262 68.2107 8.69049 68.4957 8.6063C68.7977 8.52211 68.9906 8.35368 69.0744 8.10106C69.0914 8.03366 69.1417 8 69.2253 8C69.3092 8 69.3512 8.03366 69.3512 8.10106C69.3009 8.58946 69.2506 9.33052 69.2003 10.3242C69.15 11.3178 69.1247 12.1262 69.1247 12.7494C69.1247 12.783 69.0744 12.7999 68.9738 12.7999C68.873 12.7999 68.8227 12.783 68.8227 12.7494C68.7724 11.4357 68.5039 10.5179 68.0177 9.99575C67.5313 9.45682 66.7261 9.18733 65.6021 9.18733C64.8472 9.18733 64.3107 9.22102 63.9917 9.28839C63.6729 9.35579 63.4551 9.49891 63.3376 9.71786C63.22 9.93682 63.1614 10.3073 63.1614 10.8294V22.4755C63.1614 22.9976 63.22 23.3765 63.3376 23.6124C63.4551 23.848 63.6816 24.0081 64.0169 24.0924C64.3522 24.1763 64.8807 24.2187 65.6021 24.2187C65.6524 24.2187 65.6776 24.2691 65.6776 24.3701C65.6776 24.4711 65.6524 24.5217 65.6021 24.5217C65.0486 24.5217 64.6039 24.5132 64.2686 24.4964L62.3059 24.4711L60.4187 24.4964C60.0834 24.5132 59.6218 24.5217 59.0349 24.5217C59.0014 24.5217 58.9846 24.4711 58.9846 24.3701C58.9846 24.2691 59.0014 24.2187 59.0349 24.2187C59.7563 24.2187 60.2848 24.1763 60.6201 24.0924C60.9554 24.0081 61.1819 23.848 61.2995 23.6124C61.4336 23.3597 61.5007 22.9808 61.5007 22.4755V10.7789C61.5007 10.2568 61.4421 9.89469 61.3245 9.6926C61.2072 9.47364 60.9892 9.33892 60.6704 9.28839C60.3516 9.22102 59.8149 9.18733 59.06 9.18733ZM75.2591 22.4755C75.2591 22.9808 75.3094 23.3597 75.41 23.6124C75.5108 23.848 75.7033 24.0081 75.9887 24.0924C76.2908 24.1763 76.7602 24.2187 77.3978 24.2187C77.4481 24.2187 77.4733 24.2691 77.4733 24.3701C77.4733 24.4711 77.4481 24.5217 77.3978 24.5217C76.8946 24.5217 76.492 24.5132 76.1902 24.4964L74.4036 24.4711L72.6675 24.4964C72.3655 24.5132 71.9542 24.5217 71.4344 24.5217C71.3841 24.5217 71.3591 24.4711 71.3591 24.3701C71.3591 24.2691 71.3841 24.2187 71.4344 24.2187C72.0718 24.2187 72.5329 24.1763 72.8184 24.0924C73.1204 24.0081 73.3216 23.848 73.4222 23.6124C73.5393 23.3597 73.5984 22.9808 73.5984 22.4755V10.7789C73.5984 10.2736 73.5393 9.90311 73.4222 9.66734C73.3216 9.43156 73.1204 9.27155 72.8184 9.18733C72.5329 9.0863 72.0718 9.03577 71.4344 9.03577C71.3841 9.03577 71.3591 8.98524 71.3591 8.88419C71.3591 8.78315 71.3841 8.73262 71.4344 8.73262L72.6675 8.75789C73.3719 8.79155 73.9507 8.80841 74.4036 8.80841C74.9068 8.80841 75.5108 8.79155 76.2152 8.75789L77.3978 8.73262C77.4481 8.73262 77.4733 8.78315 77.4733 8.88419C77.4733 8.98524 77.4481 9.03577 77.3978 9.03577C76.777 9.03577 76.3158 9.0863 76.014 9.18733C75.7285 9.28839 75.5271 9.46524 75.41 9.71786C75.3094 9.95362 75.2591 10.3242 75.2591 10.8294V22.4755ZM89.0486 8.45474C89.8538 8.45474 90.6671 8.53051 91.4893 8.68209C92.3108 8.83368 92.9651 9.05261 93.4518 9.33892C93.6029 9.40629 93.6948 9.48209 93.7285 9.56628C93.7788 9.63367 93.8124 9.75997 93.8294 9.94522L94.1061 12.7746C94.1061 12.8252 94.0639 12.8588 93.9802 12.8757C93.8962 12.8757 93.8457 12.8504 93.8294 12.7999C93.4601 11.5031 92.7724 10.5515 91.766 9.94522C90.7759 9.32206 89.5431 9.01051 88.0672 9.01051C86.7923 9.01051 85.6768 9.29679 84.7207 9.86943C83.7646 10.4252 83.0262 11.2167 82.5065 12.2441C81.9863 13.2715 81.7265 14.4588 81.7265 15.8061C81.7265 17.3724 82.0449 18.8208 82.6826 20.1513C83.3367 21.4818 84.2088 22.5344 85.2995 23.3091C86.4065 24.0838 87.5973 24.4711 88.8724 24.4711C90.0803 24.4711 91.1282 24.1428 92.0175 23.4861C92.9066 22.8123 93.5859 21.785 94.0558 20.4039C94.0558 20.3534 94.0891 20.3281 94.1564 20.3281C94.2067 20.3281 94.2483 20.3365 94.2823 20.3534C94.3326 20.3703 94.3576 20.3955 94.3576 20.4292L94.0053 23.2838C93.9715 23.4861 93.9299 23.6207 93.8797 23.6881C93.8457 23.7385 93.7538 23.7976 93.6029 23.8648C92.0931 24.5049 90.4992 24.825 88.8221 24.825C86.8091 24.825 85.1233 24.4207 83.7646 23.6124C82.4224 22.787 81.4328 21.7428 80.7954 20.4797C80.1577 19.2166 79.8393 17.8861 79.8393 16.4882C79.8393 14.9388 80.267 13.5494 81.1225 12.3199C81.978 11.0904 83.1103 10.1389 84.5193 9.46524C85.9285 8.79155 87.4381 8.45474 89.0486 8.45474ZM2.61682 36.951C2.61682 37.6077 2.77618 38.1804 3.09487 38.6689C3.41361 39.1571 3.79943 39.5699 4.25235 39.9065C4.70526 40.2268 5.34268 40.6392 6.16464 41.1444C7.03692 41.6668 7.71628 42.1044 8.20274 42.4581C8.68918 42.8119 9.10019 43.2666 9.43567 43.8223C9.78794 44.3612 9.96407 45.0096 9.96407 45.7675C9.96407 46.5761 9.76276 47.3085 9.36018 47.9654C8.95759 48.6223 8.36209 49.1444 7.5737 49.5316C6.80206 49.9023 5.87106 50.0875 4.78071 50.0875C3.4891 50.0875 2.30649 49.7926 1.23292 49.2033C1.14905 49.1527 1.09034 49.094 1.05679 49.0263C1.04002 48.9589 1.02324 48.8579 1.00647 48.7233L0.679366 45.2875C0.662591 45.2201 0.696141 45.1782 0.780013 45.1612C0.880661 45.1442 0.939369 45.1695 0.956146 45.2371C1.22453 46.4497 1.71938 47.4937 2.44069 48.3696C3.17875 49.2454 4.15167 49.6833 5.35945 49.6833C6.19815 49.6833 6.90271 49.4559 7.47304 49.0013C8.06014 48.5296 8.3537 47.7887 8.3537 46.7781C8.3537 46.0202 8.18593 45.3632 7.85045 44.8076C7.51498 44.2519 7.10399 43.797 6.61755 43.4433C6.14785 43.0726 5.50205 42.6433 4.68009 42.155C3.87492 41.6668 3.2375 41.2455 2.7678 40.8918C2.3149 40.5381 1.92906 40.0918 1.61035 39.5529C1.29164 39.014 1.13228 38.3824 1.13228 37.6583C1.13228 36.8161 1.35035 36.1003 1.78649 35.511C2.2394 34.9047 2.8181 34.4584 3.52263 34.1721C4.24395 33.8689 5.00721 33.7172 5.81238 33.7172C6.80206 33.7172 7.78337 33.9195 8.75629 34.3235C9.00791 34.4077 9.13373 34.5509 9.13373 34.7531L9.30984 37.6583C9.30984 37.7257 9.2679 37.7593 9.18405 37.7593C9.10019 37.7593 9.04987 37.7257 9.03308 37.6583C8.89889 36.7825 8.53822 35.974 7.95112 35.2331C7.36402 34.4752 6.51691 34.0962 5.40979 34.0962C4.47042 34.0962 3.76587 34.3741 3.29618 34.9298C2.84327 35.4689 2.61682 36.1424 2.61682 36.951ZM29.4948 49.4812C29.5451 49.4812 29.5703 49.5316 29.5703 49.6326C29.5703 49.7339 29.5451 49.7843 29.4948 49.7843C28.9748 49.7843 28.5639 49.776 28.2619 49.759L26.5256 49.7339L24.689 49.759C24.387 49.776 23.9844 49.7843 23.4811 49.7843C23.4308 49.7843 23.4056 49.7339 23.4056 49.6326C23.4056 49.5316 23.4308 49.4812 23.4811 49.4812C24.1355 49.4812 24.6134 49.4389 24.9154 49.3549C25.2172 49.2707 25.4186 49.1106 25.5192 48.8749C25.6366 48.6223 25.6954 48.2433 25.6954 47.738V41.8267H16.0333V47.738C16.0333 48.2433 16.0837 48.6223 16.1843 48.8749C16.3018 49.1106 16.5114 49.2707 16.8133 49.3549C17.1153 49.4389 17.5934 49.4812 18.2476 49.4812C18.2811 49.4812 18.2979 49.5316 18.2979 49.6326C18.2979 49.7339 18.2811 49.7843 18.2476 49.7843C17.7276 49.7843 17.3166 49.776 17.0146 49.759L15.203 49.7339L13.4668 49.759C13.1649 49.776 12.7455 49.7843 12.2087 49.7843C12.1752 49.7843 12.1584 49.7339 12.1584 49.6326C12.1584 49.5316 12.1752 49.4812 12.2087 49.4812C12.8461 49.4812 13.3159 49.4389 13.6178 49.3549C13.9365 49.2707 14.1462 49.1106 14.2469 48.8749C14.3643 48.6223 14.423 48.2433 14.423 47.738V36.0414C14.423 35.5361 14.3643 35.1657 14.2469 34.9298C14.1462 34.6942 13.9449 34.5341 13.643 34.4498C13.341 34.3488 12.8713 34.2984 12.2339 34.2984C12.2004 34.2984 12.1836 34.2478 12.1836 34.1468C12.1836 34.0458 12.2004 33.9952 12.2339 33.9952L13.5171 34.0205C14.2217 34.0541 14.7836 34.0709 15.203 34.0709C15.6895 34.0709 16.3017 34.0541 17.0398 34.0205L18.2476 33.9952C18.2811 33.9952 18.2979 34.0458 18.2979 34.1468C18.2979 34.2478 18.2811 34.2984 18.2476 34.2984C17.6102 34.2984 17.1321 34.3488 16.8133 34.4498C16.5114 34.5509 16.3018 34.7278 16.1843 34.9804C16.0837 35.2163 16.0333 35.5867 16.0333 36.092V41.2961H25.6954V36.092C25.6954 35.5867 25.6366 35.2163 25.5192 34.9804C25.4186 34.7278 25.2172 34.5509 24.9154 34.4498C24.6134 34.3488 24.1355 34.2984 23.4811 34.2984C23.4308 34.2984 23.4056 34.2478 23.4056 34.1468C23.4056 34.0458 23.4308 33.9952 23.4811 33.9952L24.689 34.0205C25.4269 34.0541 26.0392 34.0709 26.5256 34.0709C26.9785 34.0709 27.5573 34.0541 28.2619 34.0205L29.4948 33.9952C29.5451 33.9952 29.5703 34.0458 29.5703 34.1468C29.5703 34.2478 29.5451 34.2984 29.4948 34.2984C28.8575 34.2984 28.3878 34.3488 28.0858 34.4498C27.7838 34.5341 27.5741 34.6942 27.4567 34.9298C27.3561 35.1657 27.3058 35.5361 27.3058 36.0414V47.738C27.3058 48.2433 27.3561 48.6223 27.4567 48.8749C27.5741 49.1106 27.7838 49.2707 28.0858 49.3549C28.3878 49.4389 28.8575 49.4812 29.4948 49.4812ZM39.6297 50.0875C38.0696 50.0875 36.6773 49.7256 35.4528 49.0013C34.2452 48.2603 33.3058 47.2663 32.6347 46.0202C31.9806 44.7569 31.6534 43.3846 31.6534 41.9024C31.6534 40.1675 32.0895 38.6857 32.9618 37.4563C33.8341 36.2098 34.9496 35.2752 36.3083 34.6521C37.6838 34.0288 39.0843 33.7172 40.5103 33.7172C42.1037 33.7172 43.5047 34.0962 44.7123 34.8541C45.9201 35.5952 46.8429 36.5803 47.4803 37.8099C48.1343 39.0393 48.4614 40.3444 48.4614 41.7254C48.4614 43.2583 48.0588 44.6642 47.2538 45.9444C46.4486 47.2245 45.3666 48.235 44.0079 48.9759C42.6659 49.7169 41.2066 50.0875 39.6297 50.0875ZM40.5103 49.5569C41.6508 49.5569 42.6742 49.279 43.58 48.7233C44.5028 48.1674 45.2238 47.3508 45.744 46.2728C46.2807 45.1948 46.5492 43.915 46.5492 42.433C46.5492 40.8497 46.2554 39.4436 45.6684 38.214C45.0816 36.9846 44.2511 36.0246 43.1774 35.3341C42.1207 34.6436 40.8796 34.2984 39.4536 34.2984C37.6084 34.2984 36.1656 34.8962 35.1257 36.092C34.0858 37.2878 33.5658 38.9298 33.5658 41.0181C33.5658 42.6014 33.8593 44.0496 34.4463 45.3635C35.0334 46.66 35.8554 47.6874 36.9123 48.4454C37.969 49.1863 39.1686 49.5569 40.5103 49.5569ZM54.5159 47.637C54.5159 48.1757 54.5832 48.5717 54.7174 48.8243C54.8683 49.0599 55.145 49.2286 55.5476 49.3296C55.9672 49.4306 56.6213 49.4812 57.5104 49.4812C57.5607 49.4812 57.5857 49.5316 57.5857 49.6326C57.5857 49.7339 57.5607 49.7843 57.5104 49.7843C56.8227 49.7843 56.2855 49.776 55.8999 49.759L53.7107 49.7339L52.025 49.759C51.7062 49.776 51.2783 49.7843 50.7418 49.7843C50.7083 49.7843 50.6915 49.7339 50.6915 49.6326C50.6915 49.5316 50.7083 49.4812 50.7418 49.4812C51.3791 49.4812 51.8405 49.4389 52.1256 49.3549C52.4276 49.2707 52.6288 49.1106 52.7296 48.8749C52.8302 48.6223 52.8805 48.2433 52.8805 47.738V36.0414C52.8805 35.5361 52.8302 35.1657 52.7296 34.9298C52.6288 34.6942 52.4276 34.5341 52.1256 34.4498C51.8405 34.3488 51.3791 34.2984 50.7418 34.2984C50.7083 34.2984 50.6915 34.2478 50.6915 34.1468C50.6915 34.0458 50.7083 33.9952 50.7418 33.9952L51.9999 34.0205C52.7043 34.0541 53.2661 34.0709 53.6857 34.0709C54.1051 34.0709 54.5745 34.0458 55.0947 33.9952C55.2959 33.9952 55.6149 33.9869 56.0508 33.9699C56.487 33.9363 56.8643 33.9195 57.1831 33.9195C58.7262 33.9195 59.9591 34.2646 60.8819 34.9551C61.8212 35.6456 62.2909 36.6983 62.2909 38.1129C62.2909 39.2245 62.0142 40.1592 61.4607 40.9171C60.9239 41.675 60.2278 42.239 59.3723 42.6097C58.5168 42.9804 57.636 43.1656 56.7302 43.1656C56.244 43.1656 55.8414 43.1233 55.5226 43.0393C55.4721 43.0393 55.447 42.9969 55.447 42.9129C55.447 42.8623 55.4553 42.8117 55.4721 42.7613C55.5056 42.7107 55.5393 42.6939 55.5729 42.7107C55.8414 42.7783 56.1431 42.8117 56.4787 42.8117C57.5857 42.8117 58.5168 42.4498 59.2715 41.7254C60.0434 41.0011 60.429 39.9572 60.429 38.5929C60.429 37.2625 60.0684 36.2183 59.347 35.4604C58.6256 34.6857 57.7033 34.2984 56.5793 34.2984C55.9755 34.2984 55.5393 34.332 55.2709 34.3994C55.0024 34.4669 54.8097 34.6268 54.6921 34.8794C54.5745 35.115 54.5159 35.5193 54.5159 36.092V47.637Z" fill="#55721E"/>
<path d="M1.04932 64.9525H1.61779V63.1213C1.72578 63.15 1.84192 63.1744 1.96621 63.1947C2.09254 63.2131 2.23109 63.2223 2.38187 63.2223C2.63655 63.2223 2.86171 63.1867 3.05731 63.1152C3.25292 63.0438 3.41591 62.9468 3.54632 62.8243C3.67875 62.6998 3.77859 62.558 3.84583 62.3987C3.91307 62.2375 3.9467 62.0639 3.9467 61.878C3.9467 61.7026 3.91714 61.5351 3.85806 61.3759C3.80101 61.2146 3.71237 61.0748 3.59217 60.9563C3.47398 60.8358 3.32523 60.74 3.14595 60.6685C2.96664 60.5971 2.75575 60.5615 2.51329 60.5615H1.04932V64.9525ZM1.61779 62.8642V60.8401H2.2749C2.45012 60.8401 2.60396 60.8717 2.73639 60.9348C2.87088 60.9962 2.98191 61.078 3.06954 61.1799C3.15715 61.282 3.22236 61.3973 3.26514 61.5259C3.30997 61.6525 3.33237 61.779 3.33237 61.9055C3.33237 62.026 3.312 62.1486 3.27125 62.2731C3.23253 62.3956 3.16938 62.5069 3.08177 62.6068C2.99414 62.7069 2.8831 62.7887 2.74862 62.8518C2.61619 62.9152 2.45624 62.9468 2.26877 62.9468C2.14042 62.9468 2.02122 62.9417 1.91119 62.9316C1.80321 62.9193 1.7054 62.8969 1.61779 62.8642ZM4.88803 64.9525H5.45651V63.0142H5.73158C5.84772 63.0142 5.94449 63.0254 6.02193 63.0478C6.09936 63.0682 6.16965 63.104 6.23282 63.1551C6.29597 63.2039 6.35405 63.2682 6.40703 63.3479C6.46202 63.4275 6.52723 63.5256 6.60263 63.6418L7.09775 64.3769C7.16092 64.4727 7.22204 64.5605 7.28112 64.6401C7.34226 64.7198 7.40745 64.7881 7.47673 64.8452C7.54804 64.9005 7.62851 64.9444 7.71818 64.9769C7.80985 65.0116 7.91785 65.0291 8.04214 65.0291C8.13384 65.0291 8.20819 65.024 8.26526 65.0136C8.32435 65.0056 8.38343 64.9852 8.44251 64.9525V64.7198C8.42215 64.7238 8.40076 64.727 8.37833 64.729C8.35797 64.731 8.33758 64.7321 8.31722 64.7321C8.22961 64.7321 8.15217 64.7198 8.08493 64.6954C8.01972 64.6707 7.9576 64.6351 7.89849 64.5881C7.83941 64.539 7.78236 64.4799 7.72734 64.4105C7.67436 64.341 7.61834 64.2624 7.55926 64.1746C7.38402 63.9195 7.24853 63.7164 7.15276 63.5654C7.05699 63.4122 6.98058 63.2937 6.92354 63.2102C6.86852 63.1264 6.82267 63.0662 6.78601 63.0295C6.75136 62.9907 6.70857 62.9591 6.65763 62.9345L6.59651 62.9009V62.8763C6.79618 62.8642 6.96735 62.8203 7.10997 62.7448C7.25463 62.6691 7.37282 62.5752 7.4645 62.463C7.55823 62.3506 7.62547 62.2292 7.66623 62.0986C7.70901 61.9658 7.73041 61.8363 7.73041 61.7096C7.73041 61.5974 7.70798 61.4748 7.66316 61.3423C7.62038 61.2074 7.545 61.0829 7.437 60.9687C7.33104 60.8522 7.18638 60.7552 7.00301 60.6777C6.81963 60.6002 6.58837 60.5615 6.30923 60.5615H4.88803V64.9525ZM5.45651 62.7325V60.8401H6.08917C6.24809 60.8401 6.39071 60.8634 6.51704 60.9104C6.64542 60.9555 6.75545 61.0186 6.84713 61.1004C6.93883 61.1799 7.0081 61.2769 7.05496 61.3913C7.10385 61.5035 7.1283 61.6269 7.1283 61.7618C7.1283 61.874 7.10591 61.9884 7.06106 62.1047C7.01827 62.2191 6.95309 62.323 6.86546 62.4171C6.77785 62.511 6.66985 62.5875 6.54149 62.6467C6.41517 62.7038 6.26848 62.7325 6.1014 62.7325H5.45651ZM8.94069 62.7569C8.94069 62.9916 8.98553 63.2418 9.07517 63.5072C9.16482 63.7726 9.30543 64.0185 9.49694 64.2452C9.69051 64.4696 9.93503 64.6564 10.2305 64.8056C10.5279 64.9545 10.8825 65.0291 11.2941 65.0291C11.5732 65.0291 11.8269 64.9944 12.0551 64.925C12.2833 64.8555 12.488 64.7626 12.6694 64.6463C12.8507 64.5278 13.0076 64.3932 13.1401 64.2421C13.2745 64.0891 13.3846 63.9276 13.4702 63.7583C13.5557 63.5887 13.6199 63.4183 13.6627 63.2469C13.7075 63.0754 13.7299 62.9121 13.7299 62.7569C13.7299 62.5222 13.6821 62.2722 13.5863 62.0068C13.4905 61.7414 13.3418 61.4964 13.1401 61.2717C12.9404 61.0453 12.6867 60.8585 12.379 60.7113C12.0734 60.5624 11.7118 60.4878 11.2941 60.4878C10.8804 60.4878 10.5259 60.5615 10.2305 60.7084C9.93503 60.8533 9.69051 61.0381 9.49694 61.2625C9.30543 61.4851 9.16482 61.7302 9.07517 61.9976C8.98553 62.265 8.94069 62.5181 8.94069 62.7569ZM9.55502 62.7569C9.55502 62.465 9.59984 62.1965 9.6895 61.9517C9.77915 61.7067 9.90241 61.4963 10.0593 61.3208C10.2162 61.1452 10.4006 61.0085 10.6125 60.9104C10.8264 60.8126 11.0587 60.7635 11.3093 60.7635C11.5559 60.7635 11.7882 60.8126 12.0062 60.9104C12.2242 61.0085 12.4157 61.1452 12.5807 61.3208C12.7458 61.4963 12.8762 61.7067 12.972 61.9517C13.0677 62.1965 13.1156 62.465 13.1156 62.7569C13.1156 63.0489 13.0677 63.3173 12.972 63.5623C12.8762 63.8073 12.7458 64.0176 12.5807 64.193C12.4157 64.3686 12.2232 64.5054 12.0031 64.6033C11.7851 64.7014 11.5538 64.7505 11.3093 64.7505C11.0587 64.7505 10.8264 64.7014 10.6125 64.6033C10.4006 64.5054 10.2162 64.3686 10.0593 64.193C9.90241 64.0176 9.77915 63.8073 9.6895 63.5623C9.59984 63.3173 9.55502 63.0489 9.55502 62.7569ZM14.7966 64.9525H15.365V62.7692H17.3058V62.4814H15.365V60.9073H17.6237V60.5615H14.7966V64.9525ZM18.5619 64.9525H21.389V64.6065H19.1304V62.7692H21.0712V62.4814H19.1304V60.9073H21.389V60.5615H18.5619V64.9525ZM21.8077 63.844C21.8159 64.0237 21.8628 64.187 21.9483 64.3339C22.0339 64.4788 22.1501 64.6024 22.2967 64.7046C22.4456 64.8065 22.6197 64.8862 22.8194 64.9433C23.021 65.0004 23.2412 65.0291 23.4795 65.0291C23.722 65.0291 23.94 64.9995 24.1336 64.9402C24.3272 64.8811 24.4922 64.7973 24.6287 64.6891C24.7673 64.5809 24.8742 64.4492 24.9495 64.2942C25.0251 64.139 25.0626 63.9675 25.0626 63.7798C25.0626 63.5204 24.9976 63.3081 24.867 63.1428C24.7387 62.9775 24.5767 62.8395 24.3811 62.7293C24.1877 62.6191 23.9767 62.5262 23.7484 62.4507C23.5224 62.3752 23.3125 62.2955 23.1189 62.2119C22.9253 62.1282 22.7632 62.0323 22.6329 61.9241C22.5046 61.8157 22.4404 61.6719 22.4404 61.4923C22.4404 61.3922 22.4619 61.2984 22.5046 61.2106C22.5493 61.1207 22.6146 61.0441 22.7002 60.981C22.7858 60.9156 22.8907 60.8634 23.015 60.8247C23.1393 60.7839 23.283 60.7635 23.446 60.7635C23.7169 60.7635 23.9471 60.8217 24.1367 60.938C24.3281 61.0524 24.4403 61.2321 24.4729 61.4769H24.8977C24.8733 61.3219 24.8172 61.183 24.7296 61.0605C24.6419 60.938 24.5308 60.8338 24.3965 60.7483C24.2639 60.6625 24.1132 60.5982 23.944 60.5552C23.775 60.5104 23.5986 60.4878 23.4153 60.4878C23.2238 60.4878 23.0416 60.5133 22.8683 60.5644C22.6951 60.6134 22.5424 60.686 22.4098 60.7819C22.2794 60.8777 22.1755 60.9994 22.0981 61.1463C22.0207 61.2932 21.9819 61.4607 21.9819 61.6484C21.9819 61.8955 22.0441 62.0946 22.1684 62.2455C22.2947 62.3945 22.4527 62.519 22.6421 62.6191C22.8316 62.7192 23.0364 62.8048 23.2564 62.8763C23.4786 62.9477 23.6843 63.0286 23.8738 63.1184C24.0654 63.2082 24.2232 63.3184 24.3475 63.449C24.4738 63.5775 24.5371 63.7502 24.5371 63.9666C24.5371 64.238 24.4372 64.4371 24.2375 64.5637C24.0399 64.6882 23.7759 64.7505 23.446 64.7505C23.1831 64.7505 22.9723 64.7167 22.8133 64.6492C22.6564 64.58 22.5361 64.4972 22.4527 64.4013C22.3691 64.3054 22.312 64.2064 22.2815 64.1043C22.253 64.0002 22.2367 63.9135 22.2326 63.844H21.8077ZM25.7199 63.844C25.7279 64.0237 25.7749 64.187 25.8605 64.3339C25.9459 64.4788 26.0621 64.6024 26.2088 64.7046C26.3577 64.8065 26.5318 64.8862 26.7314 64.9433C26.9331 65.0004 27.1533 65.0291 27.3916 65.0291C27.6341 65.0291 27.8521 64.9995 28.0457 64.9402C28.2393 64.8811 28.4042 64.7973 28.5408 64.6891C28.6794 64.5809 28.7863 64.4492 28.8616 64.2942C28.9372 64.139 28.9747 63.9675 28.9747 63.7798C28.9747 63.5204 28.9097 63.3081 28.7791 63.1428C28.6508 62.9775 28.4887 62.8395 28.2931 62.7293C28.0998 62.6191 27.8887 62.5262 27.6605 62.4507C27.4345 62.3752 27.2246 62.2955 27.031 62.2119C26.8374 62.1282 26.6753 62.0323 26.545 61.9241C26.4167 61.8157 26.3525 61.6719 26.3525 61.4923C26.3525 61.3922 26.374 61.2984 26.4167 61.2106C26.4614 61.1207 26.5267 61.0441 26.6123 60.981C26.6979 60.9156 26.8027 60.8634 26.927 60.8247C27.0513 60.7839 27.1951 60.7635 27.358 60.7635C27.629 60.7635 27.8592 60.8217 28.0488 60.938C28.2401 61.0524 28.3524 61.2321 28.385 61.4769H28.8097C28.7854 61.3219 28.7293 61.183 28.6416 61.0605C28.554 60.938 28.4429 60.8338 28.3085 60.7483C28.176 60.6625 28.0253 60.5982 27.8561 60.5552C27.6871 60.5104 27.5107 60.4878 27.3274 60.4878C27.1358 60.4878 26.9536 60.5133 26.7804 60.5644C26.6071 60.6134 26.4545 60.686 26.3219 60.7819C26.1916 60.8777 26.0876 60.9994 26.0103 61.1463C25.9327 61.2932 25.894 61.4607 25.894 61.6484C25.894 61.8955 25.9562 62.0946 26.0805 62.2455C26.2068 62.3945 26.3648 62.519 26.5542 62.6191C26.7437 62.7192 26.9485 62.8048 27.1685 62.8763C27.3907 62.9477 27.5963 63.0286 27.7859 63.1184C27.9775 63.2082 28.1353 63.3184 28.2596 63.449C28.3859 63.5775 28.4492 63.7502 28.4492 63.9666C28.4492 64.238 28.3492 64.4371 28.1496 64.5637C27.952 64.6882 27.688 64.7505 27.358 64.7505C27.0951 64.7505 26.8843 64.7167 26.7254 64.6492C26.5685 64.58 26.4482 64.4972 26.3648 64.4013C26.2812 64.3054 26.2242 64.2064 26.1936 64.1043C26.165 64.0002 26.1486 63.9135 26.1446 63.844H25.7199ZM30.4021 64.9525H30.9705V60.5615H30.4021V64.9525ZM32.2848 62.7569C32.2848 62.9916 32.3295 63.2418 32.4191 63.5072C32.509 63.7726 32.6494 64.0185 32.841 64.2452C33.0346 64.4696 33.2791 64.6564 33.5744 64.8056C33.872 64.9545 34.2265 65.0291 34.6381 65.0291C34.9173 65.0291 35.171 64.9944 35.3992 64.925C35.6273 64.8555 35.832 64.7626 36.0135 64.6463C36.1948 64.5278 36.3518 64.3932 36.4841 64.2421C36.6187 64.0891 36.7287 63.9276 36.8143 63.7583C36.8997 63.5887 36.9641 63.4183 37.0068 63.2469C37.0515 63.0754 37.074 62.9121 37.074 62.7569C37.074 62.5222 37.0262 62.2722 36.9303 62.0068C36.8346 61.7414 36.6857 61.4964 36.4841 61.2717C36.2845 61.0453 36.0308 60.8585 35.7232 60.7113C35.4176 60.5624 35.0559 60.4878 34.6381 60.4878C34.2245 60.4878 33.8699 60.5615 33.5744 60.7084C33.2791 60.8533 33.0346 61.0381 32.841 61.2625C32.6494 61.4851 32.509 61.7302 32.4191 61.9976C32.3295 62.265 32.2848 62.5181 32.2848 62.7569ZM32.8991 62.7569C32.8991 62.465 32.9438 62.1965 33.0337 61.9517C33.1233 61.7067 33.2465 61.4963 33.4034 61.3208C33.5603 61.1452 33.7448 61.0085 33.9565 60.9104C34.1704 60.8126 34.4029 60.7635 34.6535 60.7635C34.8998 60.7635 35.1323 60.8126 35.3503 60.9104C35.5682 61.0085 35.7598 61.1452 35.9248 61.3208C36.0898 61.4963 36.2203 61.7067 36.316 61.9517C36.4119 62.1965 36.4597 62.465 36.4597 62.7569C36.4597 63.0489 36.4119 63.3173 36.316 63.5623C36.2203 63.8073 36.0898 64.0176 35.9248 64.193C35.7598 64.3686 35.5673 64.5054 35.3471 64.6033C35.1292 64.7014 34.8978 64.7505 34.6535 64.7505C34.4029 64.7505 34.1704 64.7014 33.9565 64.6033C33.7448 64.5054 33.5603 64.3686 33.4034 64.193C33.2465 64.0176 33.1233 63.8073 33.0337 63.5623C32.9438 63.3173 32.8991 63.0489 32.8991 62.7569ZM38.1406 64.9525H38.4278V61.5965H38.4524L41.9275 65.0291H41.9579V60.5615H41.6706V63.9175H41.6463L38.1712 60.4878H38.1406V64.9525ZM42.8932 64.9525H43.1836L43.7337 63.6602H45.8914L46.4934 64.9525H47.1017L45.06 60.5615H44.7484L42.8932 64.9525ZM43.8529 63.3786L44.7545 61.2657H44.779L45.76 63.3786H43.8529ZM48.043 64.9525V60.5615H48.6115V64.6065H50.8703V64.9525H48.043ZM53.5566 62.7141C53.5566 63.0059 53.6036 63.2917 53.6972 63.5715C53.7929 63.8492 53.9387 64.096 54.1343 64.3126C54.3299 64.5269 54.5796 64.7003 54.8831 64.8331C55.1887 64.9637 55.5524 65.0291 55.9743 65.0291C56.2412 65.0291 56.4795 65.0036 56.6894 64.9525C56.9013 64.9014 57.0846 64.8403 57.2395 64.7688C57.3965 64.6954 57.5268 64.6168 57.6308 64.533C57.7367 64.4492 57.8161 64.3758 57.8691 64.3126L57.6826 64.1442C57.2588 64.5442 56.7567 64.7442 56.1759 64.7442C56.1739 64.7442 56.1708 64.7442 56.1667 64.7442C55.8408 64.7442 55.5524 64.6882 55.3018 64.5758C55.0533 64.4636 54.8454 64.3135 54.6784 64.1258C54.5112 63.9379 54.3849 63.7204 54.2992 63.4734C54.2138 63.2266 54.1709 62.9692 54.1709 62.7018C54.1709 62.418 54.2159 62.1577 54.3055 61.921C54.3951 61.6843 54.5214 61.48 54.6844 61.3084C54.8474 61.1371 55.0401 61.0034 55.2621 60.9073C55.4863 60.8114 55.7297 60.7635 55.9926 60.7635C56.1719 60.7635 56.3357 60.785 56.4846 60.8278C56.6333 60.8686 56.7647 60.9227 56.879 60.9902C56.993 61.0553 57.0866 61.131 57.16 61.2166C57.2333 61.3024 57.2843 61.3891 57.3129 61.4769H57.7774C57.7141 61.334 57.6337 61.2025 57.536 61.082C57.4381 60.9615 57.316 60.8574 57.1691 60.7696C57.0225 60.6818 56.8512 60.6134 56.6556 60.5644C56.46 60.5133 56.2369 60.4878 55.9863 60.4878C55.6238 60.4878 55.2927 60.54 54.9931 60.6441C54.6956 60.7483 54.4398 60.8981 54.2259 61.0941C54.014 61.2881 53.849 61.5219 53.7308 61.7954C53.6147 62.069 53.5566 62.3752 53.5566 62.7141ZM58.3061 62.7569C58.3061 62.9916 58.351 63.2418 58.4407 63.5072C58.5303 63.7726 58.6709 64.0185 58.8625 64.2452C59.0559 64.4696 59.3004 64.6564 59.596 64.8056C59.8935 64.9545 60.2478 65.0291 60.6596 65.0291C60.9386 65.0291 61.1923 64.9944 61.4205 64.925C61.6488 64.8555 61.8536 64.7626 62.0349 64.6463C62.2162 64.5278 62.3731 64.3932 62.5054 64.2421C62.64 64.0891 62.75 63.9276 62.8356 63.7583C62.9212 63.5887 62.9854 63.4183 63.0281 63.2469C63.073 63.0754 63.0954 62.9121 63.0954 62.7569C63.0954 62.5222 63.0475 62.2722 62.9518 62.0068C62.8559 61.7414 62.7073 61.4964 62.5054 61.2717C62.3058 61.0453 62.0521 60.8585 61.7445 60.7113C61.4389 60.5624 61.0772 60.4878 60.6596 60.4878C60.2458 60.4878 59.8913 60.5615 59.596 60.7084C59.3004 60.8533 59.0559 61.0381 58.8625 61.2625C58.6709 61.4851 58.5303 61.7302 58.4407 61.9976C58.351 62.265 58.3061 62.5181 58.3061 62.7569ZM58.9204 62.7569C58.9204 62.465 58.9653 62.1965 59.055 61.9517C59.1446 61.7067 59.2678 61.4963 59.4247 61.3208C59.5816 61.1452 59.7661 61.0085 59.978 60.9104C60.1919 60.8126 60.4242 60.7635 60.6748 60.7635C60.9214 60.7635 61.1536 60.8126 61.3716 60.9104C61.5895 61.0085 61.7811 61.1452 61.9461 61.3208C62.1113 61.4963 62.2416 61.7067 62.3373 61.9517C62.4332 62.1965 62.481 62.465 62.481 62.7569C62.481 63.0489 62.4332 63.3173 62.3373 63.5623C62.2416 63.8073 62.1113 64.0176 61.9461 64.193C61.7811 64.3686 61.5887 64.5054 61.3685 64.6033C61.1505 64.7014 60.9194 64.7505 60.6748 64.7505C60.4242 64.7505 60.1919 64.7014 59.978 64.6033C59.7661 64.5054 59.5816 64.3686 59.4247 64.193C59.2678 64.0176 59.1446 63.8073 59.055 63.5623C58.9653 63.3173 58.9204 63.0489 58.9204 62.7569ZM63.6424 63.844C63.6507 64.0237 63.6974 64.187 63.783 64.3339C63.8686 64.4788 63.9849 64.6024 64.1315 64.7046C64.2802 64.8065 64.4545 64.8862 64.6542 64.9433C64.8558 65.0004 65.0758 65.0291 65.3143 65.0291C65.5568 65.0291 65.7748 64.9995 65.9684 64.9402C66.162 64.8811 66.327 64.7973 66.4633 64.6891C66.6019 64.5809 66.709 64.4492 66.7843 64.2942C66.8597 64.139 66.8974 63.9675 66.8974 63.7798C66.8974 63.5204 66.8322 63.3081 66.7018 63.1428C66.5735 62.9775 66.4115 62.8395 66.2159 62.7293C66.0223 62.6191 65.8115 62.5262 65.5832 62.4507C65.357 62.3752 65.1471 62.2955 64.9537 62.2119C64.7601 62.1282 64.598 62.0323 64.4677 61.9241C64.3394 61.8157 64.275 61.6719 64.275 61.4923C64.275 61.3922 64.2965 61.2984 64.3394 61.2106C64.3841 61.1207 64.4494 61.0441 64.535 60.981C64.6204 60.9156 64.7255 60.8634 64.8498 60.8247C64.974 60.7839 65.1176 60.7635 65.2805 60.7635C65.5517 60.7635 65.7819 60.8217 65.9713 60.938C66.1629 61.0524 66.2749 61.2321 66.3075 61.4769H66.7325C66.7079 61.3219 66.652 61.183 66.5644 61.0605C66.4767 60.938 66.3656 60.8338 66.2311 60.7483C66.0987 60.6625 65.948 60.5982 65.7788 60.5552C65.6096 60.5104 65.4334 60.4878 65.2501 60.4878C65.0585 60.4878 64.8761 60.5133 64.7031 60.5644C64.5299 60.6134 64.377 60.686 64.2446 60.7819C64.1141 60.8777 64.0103 60.9994 63.9328 61.1463C63.8554 61.2932 63.8167 61.4607 63.8167 61.6484C63.8167 61.8955 63.8789 62.0946 64.0032 62.2455C64.1295 62.3945 64.2873 62.519 64.4769 62.6191C64.6662 62.7192 64.871 62.8048 65.0912 62.8763C65.3132 62.9477 65.5191 63.0286 65.7086 63.1184C65.9 63.2082 66.058 63.3184 66.1823 63.449C66.3086 63.5775 66.3717 63.7502 66.3717 63.9666C66.3717 64.238 66.272 64.4371 66.0721 64.5637C65.8745 64.6882 65.6107 64.7505 65.2805 64.7505C65.0179 64.7505 64.8068 64.7167 64.6479 64.6492C64.4912 64.58 64.3709 64.4972 64.2873 64.4013C64.2037 64.3054 64.1467 64.2064 64.1161 64.1043C64.0877 64.0002 64.0714 63.9135 64.0673 63.844H63.6424ZM68.0742 64.9525H68.3492V61.3729H68.3735L70.3083 65.0291H70.4214L72.3987 61.3974H72.4233V64.9525H72.9918V60.5615H72.5608L70.5343 64.331H70.5068L68.4989 60.5615H68.0742V64.9525ZM74.4985 64.9525H77.3255V64.6065H75.067V62.7692H77.0076V62.4814H75.067V60.9073H77.3255V60.5615H74.4985V64.9525ZM77.6373 60.9073H79.3153V64.9525H79.8837V60.9073H81.5617V60.5615H77.6373V60.9073ZM82.6892 64.9525H83.2577V60.5615H82.6892V64.9525ZM84.572 62.7141C84.572 63.0059 84.6189 63.2917 84.7126 63.5715C84.8085 63.8492 84.954 64.096 85.1496 64.3126C85.3452 64.5269 85.5949 64.7003 85.8985 64.8331C86.2041 64.9637 86.5678 65.0291 86.9896 65.0291C87.2565 65.0291 87.4948 65.0036 87.7048 64.9525C87.9167 64.9014 88.1 64.8403 88.2549 64.7688C88.4118 64.6954 88.5422 64.6168 88.6461 64.533C88.7521 64.4492 88.8314 64.3758 88.8844 64.3126L88.698 64.1442C88.2743 64.5442 87.772 64.7442 87.1913 64.7442C87.1892 64.7442 87.1861 64.7442 87.1821 64.7442C86.8562 64.7442 86.5678 64.6882 86.3172 64.5758C86.0686 64.4636 85.8607 64.3135 85.6937 64.1258C85.5267 63.9379 85.4002 63.7204 85.3148 63.4734C85.2292 63.2266 85.1863 62.9692 85.1863 62.7018C85.1863 62.418 85.2312 62.1577 85.3208 61.921C85.4105 61.6843 85.5368 61.48 85.6998 61.3084C85.8627 61.1371 86.0554 61.0034 86.2774 60.9073C86.5016 60.8114 86.7451 60.7635 87.0079 60.7635C87.1872 60.7635 87.3513 60.785 87.5 60.8278C87.6486 60.8686 87.7801 60.9227 87.8943 60.9902C88.0083 61.0553 88.102 61.131 88.1755 61.2166C88.2489 61.3024 88.2996 61.3891 88.3282 61.4769H88.7927C88.7297 61.334 88.6492 61.2025 88.5513 61.082C88.4536 60.9615 88.3314 60.8574 88.1847 60.7696C88.0378 60.6818 87.8668 60.6134 87.6712 60.5644C87.4756 60.5133 87.2525 60.4878 87.0019 60.4878C86.6391 60.4878 86.308 60.54 86.0085 60.6441C85.7109 60.7483 85.4554 60.8981 85.2413 61.0941C85.0296 61.2881 84.8644 61.5219 84.7463 61.7954C84.6301 62.069 84.572 62.3752 84.572 62.7141ZM89.2421 63.844C89.2501 64.0237 89.2971 64.187 89.3827 64.3339C89.4683 64.4788 89.5843 64.6024 89.731 64.7046C89.8799 64.8065 90.054 64.8862 90.2536 64.9433C90.4555 65.0004 90.6755 65.0291 90.914 65.0291C91.1563 65.0291 91.3743 64.9995 91.5679 64.9402C91.7615 64.8811 91.9264 64.7973 92.063 64.6891C92.2016 64.5809 92.3085 64.4492 92.384 64.2942C92.4594 64.139 92.4971 63.9675 92.4971 63.7798C92.4971 63.5204 92.4319 63.3081 92.3015 63.1428C92.173 62.9775 92.0112 62.8395 91.8156 62.7293C91.622 62.6191 91.4109 62.5262 91.1829 62.4507C90.9567 62.3752 90.7468 62.2955 90.5532 62.2119C90.3596 62.1282 90.1977 62.0323 90.0672 61.9241C89.9389 61.8157 89.8747 61.6719 89.8747 61.4923C89.8747 61.3922 89.8962 61.2984 89.9389 61.2106C89.9838 61.1207 90.0489 61.0441 90.1345 60.981C90.2201 60.9156 90.3249 60.8634 90.4492 60.8247C90.5735 60.7839 90.7173 60.7635 90.8802 60.7635C91.1512 60.7635 91.3814 60.8217 91.571 60.938C91.7626 61.0524 91.8746 61.2321 91.9072 61.4769H92.3319C92.3076 61.3219 92.2515 61.183 92.1638 61.0605C92.0762 60.938 91.9653 60.8338 91.8308 60.7483C91.6984 60.6625 91.5475 60.5982 91.3785 60.5552C91.2093 60.5104 91.0331 60.4878 90.8496 60.4878C90.6582 60.4878 90.4758 60.5133 90.3026 60.5644C90.1293 60.6134 89.9767 60.686 89.8441 60.7819C89.7138 60.8777 89.6098 60.9994 89.5325 61.1463C89.4549 61.2932 89.4162 61.4607 89.4162 61.6484C89.4162 61.8955 89.4784 62.0946 89.6027 62.2455C89.729 62.3945 89.887 62.519 90.0764 62.6191C90.2659 62.7192 90.4707 62.8048 90.6907 62.8763C90.9129 62.9477 91.1188 63.0286 91.3081 63.1184C91.4997 63.2082 91.6575 63.3184 91.7818 63.449C91.9081 63.5775 91.9714 63.7502 91.9714 63.9666C91.9714 64.238 91.8714 64.4371 91.6718 64.5637C91.4742 64.6882 91.2104 64.7505 90.8802 64.7505C90.6173 64.7505 90.4065 64.7167 90.2476 64.6492C90.0907 64.58 89.9704 64.4972 89.887 64.4013C89.8034 64.3054 89.7464 64.2064 89.7158 64.1043C89.6874 64.0002 89.6711 63.9135 89.6668 63.844H89.2421Z" fill="black" fill-opacity="0.5"/>
<path fill-rule="evenodd" clip-rule="evenodd" d="M127.671 0.176313C126.751 0.416616 125.618 0.965578 125.335 1.30839C125.231 1.43373 125.586 1.3176 126.122 1.05033C127.388 0.420244 128.942 0.363242 129.99 0.908419C130.366 1.10422 130.726 1.35061 130.791 1.45622C130.865 1.57515 130.839 1.60422 130.723 1.53244C130.353 1.30248 128.799 1.14724 128.079 1.2683L127.343 1.39216L128.045 1.4127C129.943 1.46838 131.27 3.20199 131.843 6.37582C131.94 6.91509 132.122 8.51825 132.247 9.93861C132.592 13.8787 133.082 15.933 134.243 18.3134C134.949 19.7624 136.563 21.5665 137.861 22.3585C140.222 23.7991 143.278 24.2571 145.273 23.4694C146.888 22.8315 148.114 21.4545 148.441 19.9125L148.545 19.4197L148.193 19.9474C147.992 20.2491 147.456 20.6644 146.943 20.9163C146.191 21.2859 145.829 21.3573 144.707 21.3567C143.009 21.3558 141.827 20.9215 140.637 19.8625C139.836 19.1492 139.803 19.1344 140.195 19.6661C140.856 20.5622 142.242 21.4351 143.494 21.7426C144.833 22.0716 144.848 22.1809 143.525 21.9648C142.286 21.7621 140.151 20.726 139.174 19.8531C137.879 18.697 136.808 16.7672 136.249 14.5852C136.043 13.7805 135.44 10.3583 135.439 9.98446C135.438 9.85419 135.7 10.1868 136.02 10.7236C136.821 12.0669 137.954 13.1829 139.102 13.76C140.864 14.6452 143.15 14.3298 143.916 13.0957L144.171 12.6851L143.769 13.0436C143.2 13.5524 142.58 13.7527 141.572 13.7527C139.864 13.7527 138.119 12.5527 137.217 10.7575C136.953 10.2328 136.48 8.82559 136.165 7.6306C135.422 4.81223 134.717 3.32585 133.533 2.07909C131.883 0.341562 129.722 -0.359838 127.671 0.176313ZM119.146 3.20839C118.901 4.7751 118.242 6.07917 117.134 7.19382C115.826 8.50956 114.668 9.0099 110.524 10.0513C105.355 11.3503 103.407 12.4055 102.524 14.3842C102.005 15.5496 102.046 17.0823 102.625 18.0746C103.186 19.0358 103.358 19.0874 102.866 18.1467C102.599 17.6355 102.499 17.1595 102.495 16.3689C102.487 15.0189 102.889 14.3477 104.262 13.4186C105.489 12.5877 107.184 12.0563 109.936 11.6394C112.205 11.2954 113.974 10.8253 115.032 10.2847C115.366 10.1142 115.697 9.97837 115.768 9.9828C116.118 10.0047 113.414 11.2325 111.743 11.8104C108.243 13.021 106.286 14.3689 105.401 16.1798C105.021 16.9581 104.944 17.3201 104.957 18.2821C104.976 19.6468 105.46 21.3757 106.278 23.0087C106.766 23.9803 107.941 25.9081 108.047 25.9081C108.065 25.9081 107.725 25.1873 107.29 24.3064C106.239 22.1757 105.951 20.979 106.033 19.0905C106.088 17.8389 106.169 17.475 106.536 16.8471C107.04 15.9819 107.862 15.2107 108.782 14.7393C109.658 14.2907 109.71 14.3239 109.049 14.9072C108.268 15.5957 107.499 16.8517 107.132 18.0385C106.464 20.1924 106.929 23.0322 108.443 26.0431C109.005 27.163 110.669 29.6829 111.389 30.5074C111.811 30.9894 111.775 30.8866 111.164 29.8711C110.763 29.2052 110.197 28.0226 109.904 27.2429C109.411 25.9273 109.372 25.6785 109.365 23.7695C109.357 21.7636 109.37 21.6864 109.902 20.6005C110.296 19.7965 110.676 19.3059 111.272 18.8322C112.132 18.1493 112.518 17.7196 112.866 17.0549C113.029 16.7439 112.956 16.7789 112.516 17.2206C112.209 17.5284 111.425 18.0169 110.773 18.3062L109.588 18.8322L109.963 18.1405C110.524 17.1033 112.788 14.9098 114.212 14.0216C114.904 13.5901 116.076 12.9804 116.817 12.6666C118.516 11.9469 120.187 10.836 121.047 9.85518C121.925 8.85269 122.828 6.98096 122.929 5.95038C122.99 5.33277 122.974 5.23749 122.865 5.56651C122.678 6.12696 121.831 7.69483 121.755 7.61926C121.724 7.58757 121.84 7.23604 122.014 6.83822C122.187 6.44022 122.372 5.74506 122.424 5.29335C122.524 4.42621 122.49 4.48583 122.001 6.03251C121.332 8.14836 118.519 10.3562 114.684 11.7767C112.885 12.4429 112.648 12.4047 114.242 11.7056C116.463 10.7313 117.773 9.64377 118.631 8.05915C119.45 6.54665 119.793 4.18474 119.434 2.51112C119.349 2.11343 119.298 2.23646 119.146 3.20839ZM123.036 4.71843C123.036 4.94429 123.073 5.03677 123.118 4.92375C123.164 4.81091 123.164 4.62611 123.118 4.51311C123.073 4.40025 123.036 4.49258 123.036 4.71843ZM126.853 5.35593C126.493 5.52183 126.059 5.81586 125.887 6.00936L125.576 6.36104H126.149C126.962 6.36104 127.763 6.95811 128.243 7.92167C128.631 8.70124 128.657 8.9299 128.753 12.4387C128.86 16.3535 128.968 16.9905 129.766 18.4256C130.347 19.4705 129.917 19.2034 128.414 17.5876C126.971 16.0351 126.44 15.2723 125.659 13.6286C125.078 12.4076 125.054 12.2861 125.054 10.6032C125.054 9.63884 125.003 8.94107 124.941 9.05277C124.578 9.7016 124.153 11.8444 124.14 13.0924L124.125 14.4919L123.821 13.3421C123.653 12.7097 123.469 11.6379 123.411 10.9603C123.318 9.87671 123.367 9.23542 123.736 6.68954C123.782 6.37336 123.711 6.52118 123.579 7.01807C123.102 8.80785 122.937 11.1634 123.156 13.0651C123.655 17.3905 125.567 20.8458 129.221 24.0249C134.473 28.5937 137.687 35.2948 136.683 39.5842C136.071 42.1966 134.886 43.671 131.736 45.7368C131.292 46.0273 132.578 45.4989 133.721 44.9208C135.996 43.7696 138.002 42.0936 139.063 40.4568C141.689 36.4051 140.248 31.7908 134.672 26.3968C133.609 25.3689 132.85 24.592 132.985 24.6701C134.019 25.2697 137.216 27.5782 138.211 28.4448C142.942 32.5639 144.021 36.6338 141.331 40.2165C140.882 40.8134 140.109 41.6167 139.612 42.002C137.956 43.2851 138.659 42.9624 141.243 41.2528C143.828 39.5423 145.577 37.7776 146.498 35.9506C146.915 35.1253 146.965 34.8545 146.966 33.4641C146.966 31.9939 146.933 31.8425 146.397 30.8503C145.2 28.6314 143.162 27.0214 138.354 24.4979C135.537 23.019 134.256 22.262 135.029 22.5328C135.569 22.722 138.275 23.2752 138.626 23.2681C138.806 23.2647 138.428 23.1234 137.786 22.9545C136.236 22.546 135.081 21.9392 134.082 21.0075C132.546 19.5747 131.557 17.6242 131.193 15.3081C131.051 14.4058 131.043 14.4586 131.091 15.9703C131.128 17.1337 131.242 17.8675 131.48 18.4854C131.953 19.7125 131.519 19.2725 130.878 17.8753C130.089 16.1565 129.852 14.7283 129.91 12.0377C129.971 9.17663 129.706 8.15049 128.621 7.06112C127.893 6.3295 127.864 6.239 128.458 6.54533C129.482 7.07409 130.154 8.0544 130.469 9.48197L130.668 10.3854L130.682 9.05095C130.697 7.57919 130.412 6.52284 129.832 5.89831C129.008 5.01213 127.997 4.82816 126.853 5.35593ZM142.798 8.20897C143.474 9.32346 143.072 11.3278 142.021 12.0793C141.448 12.4894 140.305 12.8053 139.925 12.6588C139.73 12.5835 139.673 12.6083 139.751 12.7348C139.934 13.0328 141.157 13.2971 141.8 13.1773C144.154 12.7393 145.014 9.9585 143.322 8.2584C142.598 7.53057 142.373 7.50938 142.798 8.20897ZM145.375 10.6361C145.576 13.4592 144.036 15.2311 141.382 15.2311C140.499 15.2311 140.059 15.1412 139.469 14.8415C139.048 14.6271 138.783 14.5496 138.882 14.6692C139.326 15.206 140.732 15.7239 141.747 15.7239C143.583 15.7239 145.428 14.3321 145.678 12.7572C145.831 11.7944 146.123 12.1609 145.996 13.1578C145.773 14.9208 144.807 16.2444 143.353 16.7796C142.727 17.0102 142.724 17.0149 143.205 17.0248C144.429 17.0496 146.143 15.7508 146.56 14.4827C146.986 13.1852 146.543 11.1029 145.576 9.8578C145.302 9.50612 145.296 9.53075 145.375 10.6361ZM147.486 13.9991C147.831 15.3168 147.5 16.8042 146.629 17.8417C145.335 19.3836 142.433 19.6296 141.04 18.3156C140.337 17.6519 140.672 18.3284 141.418 19.0771C143.068 20.7345 145.57 20.6877 147.231 18.9682C148.527 17.6273 148.696 15.3837 147.616 13.87C147.361 13.5126 147.359 13.5147 147.486 13.9991ZM116.061 14.145C115.487 14.3965 114.479 15.4709 114.089 16.2478C113.826 16.7697 113.839 16.7641 114.408 16.1064C114.75 15.7112 115.304 15.305 115.717 15.1465C116.431 14.8727 116.439 14.8736 118.154 15.4624C119.1 15.7873 120.366 16.2746 120.967 16.5455C121.568 16.8164 122.08 17.0379 122.105 17.0379C122.239 17.0379 121.829 15.4525 121.648 15.271C121.456 15.0777 117.196 13.908 116.741 13.9234C116.636 13.927 116.33 14.0266 116.061 14.145ZM110.734 19.8177C109.872 20.6832 110.22 22.193 111.834 24.594C112.289 25.2715 112.812 26.1215 112.995 26.483C113.472 27.4244 113.889 27.7527 114.525 27.6875L115.059 27.6327L115.581 29.7271C115.869 30.8787 116.035 31.8214 115.951 31.8214C115.867 31.8214 115.151 31.1746 114.36 30.3842C112.836 28.8609 112.162 27.7382 111.956 26.3813C111.735 24.9217 111.555 25.1607 111.6 26.8526C111.625 27.7787 111.63 28.5364 111.612 28.5364C111.593 28.5362 111.39 28.2139 111.16 27.8199C110.599 26.8591 110.269 25.8429 110.106 24.5765L109.97 23.5263L109.952 24.3476C109.899 26.7258 110.84 28.6473 113.734 32.0678C115.151 33.7425 115.897 35.2147 115.897 36.335C115.897 37.6058 115.465 38.0782 113.388 39.0789C110.215 40.6075 108.951 41.7782 108.588 43.5219C108.441 44.231 108.457 44.5542 108.676 45.3108C108.962 46.2945 110.192 48.3064 110.421 48.1642C110.496 48.1174 110.709 48.2921 110.893 48.5521C111.078 48.8124 111.412 49.1466 111.638 49.2946L112.046 49.5638L111.642 48.799C110.833 47.2717 111.252 45.3997 112.696 44.0894C113.43 43.4238 113.384 43.3546 112.465 43.7403C110.332 44.6357 109.464 46.0472 110.186 47.4495C110.328 47.7243 110.41 47.9832 110.368 48.0247C110.327 48.0661 110.101 47.7122 109.866 47.2381C109.096 45.6866 109.37 44.2222 110.635 43.1275C111.292 42.5581 112.815 41.8622 114.356 41.427C115.196 41.1899 116.135 40.8902 116.442 40.7614C116.749 40.6326 117.029 40.5271 117.064 40.5271C117.152 40.5271 116.987 41.6192 116.606 43.5624C116.198 45.6434 115.445 47.1191 114.1 48.4733C112.428 50.1585 110.328 51.1724 107.803 51.5151L106.577 51.6815L108.293 51.6139C111.478 51.4882 113.946 50.4826 115.914 48.5087C116.938 47.4811 117.233 47.03 118.415 44.6794C120.21 41.1115 121.38 39.8512 124.165 38.486C125.061 38.0468 126.693 36.7805 126.55 36.636C126.509 36.5952 126.162 36.7231 125.777 36.92C125.241 37.1948 124.88 37.2613 124.222 37.2065C123.167 37.1187 122.158 36.5323 119.807 34.6404C117.991 33.1787 117.116 32.2629 116.628 31.313C116.174 30.4276 114.998 27.1471 114.998 26.7645C114.998 26.5784 114.621 26.0597 114.148 25.594C113.354 24.8133 113.18 24.4074 113.912 25.0455C114.173 25.2729 114.159 25.2182 113.843 24.7844C113.134 23.8094 113.03 23.5429 113.123 22.9514C113.181 22.5825 113.13 22.2609 112.979 22.0541C112.371 21.2207 111.897 23.0562 112.49 23.9413C112.64 24.1646 113.188 24.7989 113.708 25.3506C114.658 26.3587 115.019 27.1027 114.709 27.4138C114.425 27.6985 113.955 27.4898 113.61 26.9265C113.429 26.6302 112.807 25.6702 112.228 24.7929C110.127 21.6095 109.886 19.9734 111.449 19.5194C111.876 19.3951 111.903 19.3645 111.592 19.3524C111.375 19.344 111.006 19.5438 110.734 19.8177ZM111.297 21.0881C111.094 21.5782 111.082 21.825 111.232 22.427C111.453 23.305 111.774 23.9633 112.126 24.2565C112.358 24.4498 112.358 24.4141 112.136 23.8802C112.001 23.5559 111.882 23.0477 111.872 22.7511L111.852 22.2122L111.744 22.705C111.655 23.1137 111.617 23.1464 111.519 22.8967C111.344 22.4519 111.375 21.1703 111.57 20.805C111.663 20.6303 111.696 20.4874 111.643 20.4874C111.59 20.4874 111.435 20.7578 111.297 21.0881ZM105.074 24.3064C103.24 26.2476 103.645 28.8672 106.223 31.7392L106.813 32.3964L106.335 31.4893C106.072 30.9903 105.811 30.2509 105.756 29.8467L105.655 29.1111L105.974 29.7835C106.149 30.1535 106.861 31.0774 107.556 31.8369C108.879 33.2826 109.598 34.5217 109.598 35.3528C109.598 36.1278 108.893 37.454 107.91 38.5286C106.798 39.7432 106.492 40.3211 106.379 41.4203C106.219 42.979 107.114 45.0601 108.715 46.8513L109.449 47.6724L108.969 46.8513C107.513 44.3591 107.647 42.2372 109.356 40.726C109.746 40.3815 110.671 39.7719 111.412 39.3712C113.97 37.9879 115.11 36.5137 114.695 35.1237C114.458 34.3273 113.289 33.2139 111.924 32.4826C110.793 31.8772 109.642 30.9282 109.084 30.1403C108.885 29.8603 108.595 29.1814 108.438 28.6318L108.153 27.6327L108.142 28.3836C108.125 29.4852 108.517 30.4545 109.507 31.7607C111 33.7295 111.387 34.7571 111.074 35.9235C110.888 36.6205 109.979 37.7776 109.371 38.0932C109.086 38.2406 109.101 38.1915 109.462 37.7971C110.246 36.9406 110.581 36.2194 110.582 35.3873C110.583 34.3443 110.213 33.673 108.709 31.9856C106.936 29.9967 106.634 28.7393 107.54 27.1195L107.896 26.483L107.073 25.384C106.62 24.7794 106.183 24.3031 106.1 24.325C105.842 24.3949 104.975 26.0837 104.75 26.9572L104.534 27.7971L104.601 26.7504C104.648 26.0283 104.816 25.4041 105.145 24.7382C105.407 24.207 105.612 23.7727 105.6 23.7727C105.588 23.7727 105.351 24.013 105.074 24.3064ZM122.847 25.1687C122.635 25.3947 122.545 25.5795 122.645 25.5795C122.745 25.5795 122.873 25.5056 122.928 25.4153C122.984 25.3248 123.218 25.2509 123.449 25.2509C123.803 25.2509 123.836 25.2126 123.664 25.0045C123.389 24.6717 123.294 24.6908 122.847 25.1687ZM125.152 24.9846C125.004 25.1642 125.042 25.2281 125.337 25.2921C125.541 25.3365 125.855 25.4312 126.035 25.5027C126.325 25.6171 126.317 25.5815 125.966 25.1951C125.513 24.6959 125.412 24.6697 125.152 24.9846ZM144.84 26.2884C145.874 26.9981 147.08 28.2903 147.523 29.1633C147.999 30.1 147.95 30.1936 147.362 29.4762C147.085 29.1389 146.515 28.6311 146.095 28.3476L145.331 27.832L146.09 28.6356C147.212 29.8222 147.582 30.6686 147.661 32.232C147.713 33.2347 147.65 33.7991 147.398 34.6137L147.068 35.6814L147.717 34.9423C150.35 31.9466 150.713 29.4556 148.768 27.7399C147.849 26.9296 146.214 26.1965 144.513 25.8321C144.08 25.7394 144.119 25.7934 144.84 26.2884ZM130.381 26.9757C131.43 28.4172 132.877 31.3986 133.217 32.8175C133.582 34.3407 133.553 36.4673 133.149 37.7586C132.763 38.994 132.407 39.6122 132.596 38.7203C132.777 37.862 132.703 35.7793 132.461 34.9672C132.252 34.2619 132.249 34.2717 132.248 35.7885C132.247 37.157 132.195 37.4269 131.771 38.2695C131.244 39.3174 129.864 40.7332 128.733 41.3854C128.329 41.6188 127.004 42.2372 125.79 42.7595C122.733 44.0744 121.506 44.8335 119.97 46.3583C118.471 47.8482 117.723 49.1669 117.431 50.8344C117.073 52.8865 117.871 55.2037 119.528 56.9194C120.212 57.6278 120.326 57.7055 119.995 57.2381C119.753 56.8981 119.364 56.1975 119.128 55.681C118.388 54.0559 118.444 51.5108 119.256 49.885C120.184 48.0283 122.742 45.9903 124.727 45.5249C125.114 45.4342 125.003 45.5556 124.198 46.1014C121.579 47.878 120.055 51.1021 120.534 53.8536C121.025 56.6712 122.77 58.6108 127.231 61.2958C128.724 62.1949 130.115 63.5524 130.634 64.6183C131.229 65.8394 131.263 67.5324 130.715 68.5918C130.232 69.5249 130.56 69.3166 131.143 68.3197C131.555 67.616 131.595 67.4032 131.595 65.9052C131.595 64.5567 131.529 64.1159 131.228 63.4415C130.871 62.6424 130.87 62.6314 131.204 63.0292C131.806 63.7459 132.356 65.0199 132.447 65.9055C132.576 67.1544 132.161 68.2521 131.135 69.3795C130.185 70.4242 130.307 70.4472 132.118 69.5654C133.305 68.9874 134.548 67.8211 134.969 66.891C135.387 65.9686 135.371 64.2763 134.935 63.1633C134.54 62.1566 133.475 60.5355 132.371 59.2601L131.595 58.3638L132.658 59.1732C135.345 61.2192 136.467 62.9362 136.467 65.0008C136.467 66.2959 136.046 67.3364 135.164 68.2227C134.443 68.9471 134.641 68.9365 135.532 68.2032C137.14 66.8795 137.631 64.3674 136.687 62.2957C136.345 61.5462 135.756 60.8237 134.144 59.1777C131.068 56.0374 130.093 54.235 130.241 51.963C130.332 50.5619 130.869 49.3157 131.883 48.1494C132.551 47.3816 132.556 47.3669 132.033 47.7373C130.595 48.7557 129.546 50.8031 129.558 52.5655C129.568 53.9528 129.924 54.8617 131.146 56.6246C131.349 56.9171 131.197 56.8394 130.614 56.3536C129.499 55.4241 129.176 55.0546 128.518 53.9546C127.433 52.1411 127.391 50.2496 128.392 48.2943C129.027 47.0533 129.372 46.6768 130.937 45.5175C134.456 42.91 135.928 40.5625 135.928 37.5583C135.928 36.823 135.813 35.7677 135.673 35.2124C135.093 32.9178 133.021 29.5221 130.686 27.0402L129.544 25.8259L130.381 26.9757ZM124.196 27.9924C124.353 28.0336 124.611 28.0336 124.768 27.9924C124.926 27.9512 124.797 27.9173 124.482 27.9173C124.167 27.9173 124.038 27.9512 124.196 27.9924ZM121.722 28.9461L120.842 29.3084L122.294 29.4359C124.115 29.5956 124.849 29.5956 126.675 29.4354L128.133 29.3078L127.329 28.9805C126.706 28.7266 126.086 28.6455 124.564 28.6184C122.865 28.5881 122.483 28.6323 121.722 28.9461ZM123.255 31.2407C123.881 31.543 125.075 31.5455 125.708 31.2458L126.199 31.0136L125.708 31.13C125.068 31.2819 123.692 31.2792 123.174 31.1249C122.864 31.0328 122.884 31.0613 123.255 31.2407ZM108.071 33.7454C108.202 34.4531 108.051 34.9802 107.547 35.582C106.878 36.3802 106.054 36.5036 104.778 35.9963C104.483 35.879 104.474 35.8944 104.684 36.1545C105.537 37.2069 107.226 37.1265 108.116 35.9912C108.522 35.4718 108.57 34.2567 108.21 33.6282L107.974 33.2175L108.071 33.7454ZM128.774 34.9031L127.589 35.8451L127.585 36.6667C127.579 38.1288 126.53 39.7307 124.846 40.8517C123.767 41.5695 124.169 41.464 126.036 40.5397C128.928 39.1085 130.369 37.4047 130.369 35.4162C130.369 34.4726 130.261 33.9548 130.065 33.9591C130.007 33.9602 129.426 34.3851 128.774 34.9031ZM145.047 40.2935C144.892 41.1558 144.158 42.1682 143.212 42.8215C142.2 43.5217 141.605 43.7526 139.58 44.2332C138.629 44.459 137.703 44.7228 137.523 44.8194C137.286 44.9473 137.228 44.945 137.31 44.8117C137.372 44.711 137.986 44.2968 138.675 43.8919C140.338 42.9138 139.99 42.9575 138.103 43.964C135.343 45.4353 133.449 47.1964 132.435 49.2326C131.712 50.6846 131.465 51.8797 131.541 53.5658C131.618 55.2696 132.143 56.458 133.359 57.6787C135.298 59.6266 137.653 60.1612 139.684 59.1143C140.55 58.668 141.155 57.4665 141.145 56.2141C141.141 55.6718 141.071 55.0805 140.99 54.9C140.883 54.6637 140.868 54.7414 140.936 55.1766C141.268 57.3145 138.974 58.6113 136.705 57.568C135.619 57.0683 134.587 56.0199 133.999 54.8178C133.595 53.9909 133.558 53.7544 133.565 52.0253C133.572 50.2875 133.616 50.0281 134.107 48.7844C134.401 48.0406 134.696 47.3982 134.763 47.3566C134.83 47.3151 134.853 47.7228 134.814 48.2628C134.652 50.5079 136.17 52.3769 138.34 52.6065L139.117 52.6887L138.299 52.4464C137.85 52.3131 137.427 52.2007 137.359 52.1969C137.055 52.1787 135.848 50.8931 135.579 50.3007C135.024 49.0753 135.333 47.5259 136.315 46.6172C136.826 46.1448 136.875 46.277 136.42 46.8988C136.018 47.4493 135.764 48.7472 135.922 49.4478C136.345 51.3272 138.077 52.4683 139.966 52.1124C140.351 52.0401 140.8 51.7697 141.194 51.374C141.905 50.6593 142.04 50.1809 141.384 50.6994C140.805 51.1572 139.484 51.1635 138.748 50.7121C137.637 50.0324 137.256 48.6746 137.883 47.6403C138.348 46.8752 138.849 46.6112 140.533 46.2443C142.418 45.834 143.539 45.3412 144.436 44.5284C145.099 43.9284 145.902 42.5422 145.898 42.0056C145.897 41.8701 145.762 42.0555 145.598 42.4177C145.027 43.6798 143.632 44.4935 141.406 44.8619C140.796 44.9629 140.815 44.9437 141.695 44.5725C143.931 43.6303 145.352 41.8945 145.219 40.2677L145.167 39.6238L145.047 40.2935ZM141.283 47.7595C141.652 48.2415 141.53 49.0518 141.01 49.5741C140.506 50.0799 140.065 50.1679 139.474 49.881C139.129 49.7137 139.128 49.7164 139.434 49.9632C139.934 50.3657 140.94 50.2906 141.414 49.8153C141.94 49.2863 141.955 48.4133 141.447 47.8789C141.245 47.6663 141.171 47.6123 141.283 47.7595ZM126.988 49.3318C126.618 50.1428 126.577 50.4109 126.642 51.5903C126.717 52.9709 126.992 53.7336 127.864 54.982C128.183 55.4387 128.128 55.4049 127.598 54.8178C127.23 54.4113 126.746 53.713 126.523 53.2661C125.809 51.836 126.041 49.8648 127.061 48.6991C127.449 48.2551 127.439 48.3407 126.988 49.3318ZM138.548 49.67C138.546 49.775 138.771 50.0521 139.048 50.2859C139.749 50.879 140.799 50.8783 141.438 50.2846L141.897 49.8579L141.425 50.2024C140.631 50.7825 139.468 50.6154 138.834 49.8297C138.679 49.6371 138.55 49.5652 138.548 49.67ZM133.897 53.2574C134.146 54.9177 135.515 56.6786 136.878 57.0885C137.66 57.3237 137.963 57.3279 138.729 57.1145C140.353 56.6614 140.955 54.5974 139.839 53.3116C139.522 52.9461 139.515 52.9449 139.68 53.2876C140.151 54.2653 139.682 55.6268 138.752 55.9818C138.153 56.2109 137.101 55.8647 136.469 55.2302C136.172 54.9312 135.928 54.7502 135.928 54.8284C135.928 55.1352 137.023 56.2002 137.644 56.4967L138.299 56.8099L137.504 56.7353C136.079 56.6018 134.64 55.1972 134.045 53.3609L133.799 52.6003L133.897 53.2574ZM128.02 63.5455C128.852 64.4414 129.121 65.1245 129.114 66.3165C129.108 67.4352 128.72 68.4854 128.139 68.9551C127.906 69.1439 127.92 69.0727 128.209 68.5963C128.634 67.8955 128.687 66.7512 128.333 65.9001C128.203 65.5868 128.053 65.3305 128 65.3305C127.947 65.3305 127.989 65.4889 128.092 65.6824C128.197 65.8808 128.248 66.4195 128.207 66.916C128.079 68.4655 126.885 69.5668 125.176 69.7126C124.402 69.7784 124.101 69.7227 123.468 69.395C122.809 69.0539 122.722 69.0393 122.857 69.2926C123.044 69.6434 123.849 70.2681 124.645 70.6795C125.592 71.1693 127.187 71.0898 128.345 70.4949C129.631 69.8342 130.217 68.9018 130.328 67.3396C130.457 65.5234 129.645 64.0778 128.036 63.261L127.507 62.9925L128.02 63.5455Z" fill="#55721E"/>
<path d="M118.368 17.7741C120.514 17.3262 121.945 18.8567 122.392 19.7898C122.206 19.6032 121.654 19.3513 120.939 18.8137C119.597 18.1735 118.815 18.2538 118.368 18.3658C117.25 18.8137 116.579 19.118 116.244 19.118C115.834 19.1926 115.015 19.006 113.785 18.558C115.685 18.894 115.685 18.558 118.368 17.7741Z" fill="#55721E"/>
<path d="M118.927 19.7899C117.809 19.5659 116.915 18.5898 116.021 18.5898C116.468 19.1498 118.055 19.9243 118.592 20.0139C119.262 20.1259 119.95 20.0083 120.268 19.9019C120.604 19.7899 121.386 19.6779 121.721 19.5659C121.274 19.6779 119.585 19.9218 118.927 19.7899Z" fill="#55721E"/>
<path fill-rule="evenodd" clip-rule="evenodd" d="M119.15 20.0141C119.768 20.0141 120.268 19.5128 120.268 18.8943C120.268 18.2758 119.768 17.7744 119.15 17.7744C118.533 17.7744 118.033 18.2758 118.033 18.8943C118.033 19.5128 118.533 20.0141 119.15 20.0141ZM119.262 19.3422C119.571 19.3422 119.821 19.0915 119.821 18.7823C119.821 18.4731 119.571 18.2224 119.262 18.2224C118.954 18.2224 118.703 18.4731 118.703 18.7823C118.703 19.0915 118.954 19.3422 119.262 19.3422Z" fill="#55721E"/>
<path d="M119.469 17.5276C118.545 17.2628 116.636 17.6468 115.796 17.8719C116.491 17.6109 118.111 17.1287 119.029 17.2879C119.947 17.447 121.15 17.9609 121.637 18.198C121.297 18.0408 120.386 17.6868 119.469 17.5276Z" fill="#55721E"/>
<path fill-rule="evenodd" clip-rule="evenodd" d="M119.435 16.9127C119.481 17.0733 119.502 17.3694 119.499 17.815C119.498 18.1031 119.539 18.3079 119.592 18.2697C119.606 18.2591 119.571 17.9995 119.532 17.8298C119.52 17.7767 119.526 17.7531 119.548 17.7654C119.568 17.7761 119.592 17.8665 119.603 17.9661C119.621 18.1477 119.712 18.3559 119.743 18.2898C119.752 18.2704 119.745 18.2116 119.727 18.1592C119.679 18.0212 119.589 17.5535 119.608 17.5401C119.616 17.5338 119.641 17.6101 119.662 17.7097C119.684 17.8093 119.715 17.9213 119.732 17.9584C119.749 17.9956 119.762 18.0546 119.762 18.0896C119.761 18.1245 119.788 18.1971 119.821 18.2508C119.877 18.3434 119.883 18.3459 119.94 18.299C119.972 18.2717 120.036 18.199 120.082 18.1373C120.173 18.0138 120.148 18.1133 120.055 18.2472C120.024 18.2911 120.008 18.3341 120.017 18.3428C120.048 18.3694 120.182 18.1867 120.234 18.0469C120.261 17.9741 120.299 17.8827 120.318 17.8437C120.351 17.7789 120.352 17.7802 120.332 17.8587C120.312 17.9342 120.315 17.9379 120.354 17.89C120.379 17.86 120.431 17.7647 120.47 17.6781C120.529 17.5482 120.537 17.5403 120.516 17.6329C120.501 17.6946 120.455 17.8227 120.413 17.9175C120.371 18.0123 120.32 18.125 120.301 18.1679C120.249 18.2857 120.323 18.2657 120.394 18.1428C120.457 18.0341 120.632 17.5533 120.679 17.3574C120.694 17.2969 120.713 17.2534 120.722 17.2608C120.765 17.2982 120.574 17.9579 120.463 18.1528C120.434 18.2049 120.436 18.2062 120.502 18.1688C120.56 18.1352 120.556 18.1472 120.481 18.2401L120.389 18.352L120.474 18.2982C120.52 18.2687 120.583 18.201 120.614 18.1479C120.645 18.0948 120.679 18.059 120.69 18.0685C120.7 18.078 120.69 18.1131 120.665 18.1466C120.64 18.1801 120.629 18.215 120.64 18.2242C120.668 18.2484 120.744 18.0924 120.721 18.0593C120.695 18.0241 120.913 17.5794 120.955 17.581C120.989 17.5823 120.955 17.7357 120.886 17.8957C120.797 18.1021 120.719 18.2245 120.611 18.3273C120.523 18.4117 120.509 18.4408 120.544 18.469C120.578 18.4962 120.583 18.4959 120.565 18.4677C120.548 18.4429 120.559 18.4374 120.597 18.4507C120.641 18.466 120.644 18.4792 120.61 18.5087C120.558 18.5553 120.59 18.559 120.698 18.5186C120.77 18.4911 120.773 18.4927 120.726 18.5341C120.696 18.5608 120.691 18.5808 120.713 18.5817C120.734 18.5825 120.788 18.545 120.834 18.4983C120.879 18.4516 120.925 18.4209 120.935 18.43C120.946 18.4393 120.927 18.4695 120.892 18.4973C120.858 18.5249 120.83 18.5556 120.829 18.5653C120.828 18.6014 121.028 18.5083 121.113 18.4336C121.18 18.3741 121.195 18.3693 121.177 18.4129C121.139 18.5036 121.287 18.3594 121.415 18.1817C121.54 18.0071 121.601 17.9669 121.56 18.0849C121.545 18.1303 121.53 18.1868 121.527 18.2105C121.524 18.2343 121.485 18.2912 121.44 18.3369C121.396 18.3828 121.328 18.458 121.29 18.5041C121.226 18.5836 121.229 18.5828 121.347 18.4903C121.415 18.4366 121.51 18.3561 121.558 18.3112L121.644 18.2298L121.575 18.3245C121.537 18.3766 121.438 18.4765 121.353 18.5465C121.105 18.7533 121.096 18.845 121.338 18.7027L121.462 18.6301L121.33 18.7367L121.199 18.8433L121.31 18.7949L121.421 18.7465L121.33 18.8192C121.249 18.8839 121.246 18.8921 121.305 18.8945C121.342 18.896 121.362 18.9047 121.349 18.9139C121.337 18.923 121.346 18.948 121.368 18.9694C121.421 19.0184 121.603 18.9722 121.797 18.8609C121.974 18.7591 122.019 18.7418 122.018 18.7764C122.017 18.7926 121.916 18.8672 121.792 18.9421C121.628 19.0415 121.586 19.0792 121.639 19.0813C121.679 19.0829 121.722 19.0712 121.736 19.0552C121.749 19.0392 121.79 19.0349 121.826 19.0456C121.862 19.0563 121.903 19.0521 121.916 19.0362C121.929 19.0203 121.972 18.9952 122.011 18.9805C122.068 18.959 122.077 18.962 122.059 18.9954C122.047 19.0184 121.949 19.0726 121.841 19.116C121.733 19.1594 121.635 19.2055 121.624 19.2186C121.596 19.2513 121.879 19.2425 121.97 19.2078C122.011 19.1924 122.051 19.186 122.06 19.1936C122.091 19.22 121.777 19.2891 121.65 19.2839C121.539 19.2794 121.486 19.2487 121.27 19.0633C120.669 18.5502 120.097 18.3494 119.134 18.3132C118.909 18.3048 118.821 18.3111 118.784 18.3387C118.77 18.3492 118.71 18.3558 118.651 18.3534C118.435 18.3446 117.639 18.5158 117.636 18.5716C117.636 18.5839 117.558 18.6061 117.464 18.621C117.369 18.6362 117.219 18.6929 117.124 18.7497C116.877 18.8971 116.752 18.9224 116.344 18.9075C116.029 18.8961 115.979 18.8874 115.936 18.8365C115.892 18.785 115.87 18.7915 115.879 18.8531C115.88 18.8645 115.856 18.8649 115.825 18.8541C115.786 18.8402 115.782 18.8288 115.812 18.8153C115.842 18.802 115.838 18.7899 115.796 18.7754C115.714 18.7466 115.698 18.7481 115.723 18.7828C115.752 18.8229 115.724 18.8193 115.577 18.7639C115.446 18.7139 115.406 18.667 115.527 18.7026C115.569 18.7151 115.599 18.7108 115.6 18.6921C115.601 18.6695 115.624 18.671 115.679 18.6972C115.764 18.7379 116.148 18.8305 116.169 18.8155C116.176 18.8103 116.137 18.7828 116.081 18.7545C115.99 18.7082 116.018 18.7112 116.177 18.765C116.221 18.7796 116.223 18.7753 116.187 18.7425C116.163 18.7201 116.088 18.7008 116.02 18.6996C115.925 18.6979 115.871 18.674 115.781 18.5946C115.718 18.538 115.645 18.4909 115.619 18.4899C115.593 18.4888 115.572 18.4734 115.573 18.4555C115.574 18.4359 115.605 18.4427 115.654 18.473C115.835 18.5863 115.868 18.587 115.744 18.475C115.671 18.4095 115.625 18.3455 115.641 18.3327C115.657 18.3199 115.651 18.3171 115.628 18.3265C115.576 18.3474 115.517 18.2871 115.521 18.218C115.524 18.1736 115.536 18.1765 115.615 18.2404C115.731 18.3342 116.025 18.4919 116.207 18.5573L116.347 18.6079L116.264 18.5459C116.218 18.5117 116.191 18.4842 116.204 18.4848C116.217 18.4853 116.144 18.4218 116.041 18.3438C115.939 18.2657 115.834 18.1673 115.808 18.125C115.779 18.0768 115.841 18.115 115.973 18.2271C116.219 18.4355 116.271 18.4652 116.352 18.4439C116.406 18.4297 116.406 18.4225 116.349 18.3644C116.287 18.3004 116.287 18.3004 116.365 18.3576C116.408 18.389 116.439 18.4276 116.434 18.4434C116.429 18.4592 116.447 18.4796 116.475 18.4887C116.505 18.4989 116.515 18.4923 116.5 18.4717C116.469 18.4273 116.527 18.4309 116.58 18.4765C116.603 18.4962 116.632 18.5048 116.644 18.4956C116.657 18.4864 116.603 18.4434 116.525 18.4C116.447 18.3566 116.371 18.3039 116.357 18.2828C116.342 18.2613 116.361 18.266 116.399 18.2934C116.436 18.3203 116.498 18.3528 116.537 18.3656C116.602 18.3868 116.601 18.3822 116.528 18.3155L116.448 18.2421L116.539 18.2458C116.59 18.2478 116.659 18.2777 116.693 18.3123L116.755 18.375L116.649 18.3168L116.543 18.2586L116.606 18.3213C116.656 18.3693 116.704 18.3829 116.812 18.3794C116.89 18.3769 116.963 18.3888 116.976 18.4057C117.007 18.4494 117.278 18.5562 117.365 18.5588C117.405 18.5601 117.341 18.5252 117.223 18.4814C117.089 18.4318 116.928 18.3374 116.798 18.2318C116.601 18.0738 116.599 18.0703 116.763 18.1823C117.009 18.35 117.065 18.372 116.94 18.252C116.589 17.9149 116.4 17.6391 116.718 17.9282C116.969 18.1572 116.962 18.116 116.705 17.8555C116.503 17.651 116.328 17.4503 116.352 17.4513C116.361 17.4517 116.477 17.5636 116.61 17.7001C116.884 17.9793 117.233 18.2863 117.332 18.3336C117.388 18.3606 117.395 18.3564 117.376 18.304C117.364 18.2703 117.37 18.2435 117.389 18.2443C117.436 18.2461 117.506 18.3225 117.479 18.3423C117.467 18.351 117.506 18.381 117.567 18.4089C117.703 18.4716 117.715 18.4494 117.58 18.3819C117.485 18.3336 117.485 18.333 117.573 18.3525L117.663 18.3725L117.574 18.318C117.525 18.2879 117.414 18.2019 117.326 18.1266C117.238 18.0513 117.207 18.0186 117.256 18.0539C117.441 18.1855 117.625 18.2959 117.6 18.2601C117.585 18.2396 117.59 18.2236 117.61 18.2244C117.63 18.2252 117.656 18.2392 117.667 18.2555C117.679 18.2717 117.724 18.3002 117.766 18.3188C117.815 18.3397 117.804 18.3255 117.739 18.2818C117.681 18.2428 117.61 18.2099 117.581 18.2087C117.552 18.2075 117.499 18.1598 117.462 18.1028L117.396 17.9991L117.489 18.0895L117.581 18.1799L117.512 18.076C117.474 18.0189 117.41 17.9383 117.37 17.897C117.309 17.8339 117.3 17.8313 117.316 17.8804C117.335 17.9385 117.335 17.9385 117.283 17.8799C117.254 17.8473 117.239 17.8029 117.251 17.781C117.263 17.7592 117.257 17.7257 117.239 17.7066C117.221 17.6875 117.189 17.6326 117.17 17.5847C117.138 17.5043 117.139 17.5022 117.186 17.5575C117.214 17.5904 117.25 17.6313 117.264 17.6484C117.279 17.6655 117.296 17.6978 117.301 17.7201C117.306 17.7424 117.34 17.7952 117.375 17.8374C117.47 17.9505 117.796 18.2201 117.797 18.1865C117.798 18.1707 117.718 18.09 117.62 18.0071C117.522 17.9244 117.427 17.83 117.408 17.7975C117.389 17.7649 117.45 17.8064 117.545 17.8897C117.639 17.9729 117.762 18.0754 117.818 18.1173L117.92 18.1937L117.855 18.1044C117.71 17.9052 117.569 17.674 117.533 17.5749C117.512 17.517 117.48 17.4617 117.461 17.4519C117.443 17.442 117.43 17.4121 117.431 17.3853C117.432 17.3585 117.509 17.4663 117.603 17.625C117.778 17.9239 117.997 18.2113 118.051 18.2135C118.069 18.2142 118.025 18.1376 117.953 18.0435C117.796 17.8353 117.37 17.0805 117.373 17.015C117.373 17.0003 117.467 17.1479 117.58 17.3429C117.693 17.5379 117.836 17.7443 117.897 17.8017C117.958 17.8591 117.976 17.8858 117.938 17.8611C117.868 17.8167 117.868 17.817 117.932 17.9054C118.006 18.0087 118.298 18.2524 118.35 18.2545C118.37 18.2553 118.36 18.2311 118.328 18.2007C118.296 18.1704 118.28 18.138 118.293 18.129C118.305 18.1199 118.293 18.049 118.266 17.9714C118.182 17.7337 118.056 17.0098 118.072 16.8572C118.081 16.7703 118.131 16.9832 118.146 17.1719C118.163 17.3877 118.211 17.6265 118.255 17.7164C118.283 17.7738 118.275 17.6387 118.24 17.4777C118.233 17.4416 118.241 17.4127 118.258 17.4134C118.276 17.4141 118.299 17.4703 118.309 17.5382C118.345 17.7853 118.405 17.9463 118.482 18.0102C118.526 18.0461 118.562 18.0949 118.56 18.1187C118.559 18.1571 118.555 18.157 118.526 18.1173C118.507 18.0927 118.491 18.0874 118.49 18.1054C118.488 18.1471 118.624 18.2907 118.628 18.2499C118.629 18.2333 118.616 18.2068 118.599 18.191C118.582 18.1752 118.582 18.1369 118.6 18.1059C118.625 18.0624 118.632 18.0603 118.632 18.0968C118.633 18.1534 118.757 18.2924 118.788 18.2704C118.799 18.2619 118.763 18.1785 118.708 18.085C118.652 17.9915 118.607 17.8997 118.608 17.8809C118.608 17.8622 118.649 17.9133 118.698 17.9946C118.846 18.2421 118.874 18.272 118.949 18.2597C119.009 18.2497 119.015 18.2327 118.993 18.1176C118.979 18.0458 118.957 17.9712 118.945 17.9519C118.929 17.928 118.934 17.9265 118.96 17.9473C118.98 17.964 119.012 18.0238 119.031 18.0801C119.063 18.1777 119.065 18.1757 119.055 18.0377C119.037 17.793 119.055 17.0918 119.078 17.1635C119.089 17.2006 119.097 17.322 119.095 17.433C119.091 17.6939 119.133 18.0447 119.178 18.1092C119.23 18.1845 119.206 17.5636 119.133 16.9437C119.123 16.8656 119.129 16.8422 119.151 16.8723C119.18 16.9135 119.219 17.1225 119.26 17.4614C119.287 17.6882 119.341 17.6198 119.337 17.3635C119.335 17.2324 119.348 17.0478 119.365 16.9532L119.397 16.7812L119.435 16.9127ZM116.981 17.1913C117.069 17.3395 117.133 17.4672 117.122 17.4751C117.111 17.4829 117.085 17.4548 117.062 17.4127C117.041 17.3706 117.012 17.3409 116.998 17.3469C116.972 17.3586 116.782 16.9497 116.806 16.9323C116.814 16.9265 116.893 17.043 116.981 17.1913ZM119.407 17.7961L119.438 17.9379L119.428 17.7527C119.423 17.6509 119.418 17.5014 119.417 17.4203C119.416 17.2901 119.414 17.295 119.396 17.4635C119.385 17.5684 119.39 17.718 119.407 17.7961ZM119.33 18.0168C119.363 18.0428 119.368 18.0336 119.353 17.9777C119.342 17.9375 119.332 17.8657 119.33 17.818C119.328 17.7592 119.321 17.7718 119.307 17.8571C119.296 17.9319 119.305 17.9966 119.33 18.0168ZM116.121 17.9057C116.253 18.0232 116.341 18.1145 116.315 18.1085C116.272 18.0987 116.089 17.9389 115.913 17.7583C115.78 17.6221 115.886 17.6975 116.121 17.9057ZM117.062 17.8801L117.128 17.9593L117.045 17.8918C117 17.8547 116.971 17.819 116.98 17.8126C116.989 17.8061 117.026 17.8365 117.062 17.8801ZM118.167 18.0309C118.232 18.0889 118.269 18.1357 118.248 18.1349C118.202 18.133 118.005 17.957 118.03 17.939C118.04 17.9316 118.102 17.9729 118.167 18.0309ZM116.015 18.1308C116.194 18.2968 116.325 18.4319 116.306 18.4312C116.267 18.4296 115.846 18.0458 115.735 17.911C115.697 17.8652 115.671 17.828 115.678 17.8283C115.684 17.8286 115.836 17.9648 116.015 18.1308ZM118.337 18.0668C118.345 18.107 118.369 18.1491 118.389 18.1602C118.413 18.1729 118.418 18.1614 118.404 18.1291C118.392 18.1009 118.383 18.0594 118.384 18.037C118.385 18.0145 118.371 17.9955 118.354 17.9948C118.337 17.9941 118.329 18.0265 118.337 18.0668ZM119.262 18.1238C119.273 18.1472 119.282 18.1408 119.285 18.1073C119.288 18.0769 119.28 18.0596 119.268 18.0687C119.255 18.0778 119.253 18.1026 119.262 18.1238ZM119.394 18.1671C119.393 18.1909 119.408 18.2109 119.428 18.2118C119.447 18.2125 119.454 18.1933 119.444 18.1691C119.433 18.1448 119.418 18.1247 119.41 18.1244C119.402 18.1241 119.395 18.1433 119.394 18.1671ZM117.269 18.1678C117.307 18.1925 117.329 18.219 117.318 18.2268C117.307 18.2346 117.27 18.2137 117.235 18.1804C117.161 18.1096 117.174 18.1049 117.269 18.1678ZM116.433 18.1817C116.422 18.1948 116.398 18.1974 116.38 18.1875C116.333 18.1623 116.339 18.1534 116.4 18.1559C116.429 18.1571 116.444 18.1687 116.433 18.1817ZM115.77 18.4239C115.827 18.4658 115.883 18.5001 115.894 18.5001C115.924 18.5001 115.725 18.3498 115.693 18.3485C115.679 18.348 115.714 18.3819 115.77 18.4239ZM116.965 18.6159C117.045 18.6684 117.088 18.6762 117.09 18.6384C117.09 18.6237 117.062 18.6046 117.028 18.5959C116.91 18.5664 116.897 18.5707 116.965 18.6159ZM121.582 18.858C121.529 18.9072 121.393 18.9693 121.395 18.9444C121.395 18.937 121.449 18.9036 121.515 18.8701C121.601 18.8269 121.62 18.8233 121.582 18.858ZM115.608 18.7378C115.619 18.7479 115.65 18.7502 115.677 18.7429C115.706 18.7349 115.698 18.7277 115.656 18.7246C115.618 18.7218 115.596 18.7277 115.608 18.7378ZM121.699 19.0991C121.659 19.1208 121.643 19.1392 121.663 19.1401C121.683 19.1409 121.732 19.1238 121.771 19.1021C121.811 19.0804 121.827 19.062 121.807 19.0611C121.787 19.0604 121.738 19.0774 121.699 19.0991ZM116.933 18.9211C116.932 18.9468 116.603 19.0612 116.582 19.0432C116.576 19.0376 116.653 19.0022 116.752 18.9646C116.852 18.9269 116.933 18.9074 116.933 18.9211ZM115.589 18.9506C115.619 18.9672 115.626 18.9801 115.606 18.9793C115.586 18.9785 115.546 18.9642 115.517 18.9477C115.488 18.9311 115.48 18.9182 115.5 18.919C115.52 18.9198 115.56 18.934 115.589 18.9506ZM115.779 18.9874C115.834 19.0028 116 19.0183 116.15 19.0216C116.453 19.0285 116.508 19.0605 116.251 19.0806C116.077 19.0942 115.713 19.0312 115.677 18.9811C115.666 18.9659 115.662 18.9547 115.668 18.9563C115.675 18.9579 115.724 18.9719 115.779 18.9874ZM122.139 19.3752C122.137 19.4166 121.9 19.4699 121.815 19.448C121.73 19.4263 121.741 19.4204 121.92 19.3935C122.031 19.3769 122.125 19.3629 122.13 19.3624C122.135 19.362 122.139 19.3677 122.139 19.3752Z" fill="#55721E"/>
</g>
<defs>
<clipPath id="clip0_581_1666">
<rect width="150" height="71" fill="white"/>
</clipPath>
</defs>
</svg>
