<svg width="30" height="29" viewBox="0 0 30 29" fill="none" xmlns="http://www.w3.org/2000/svg">
<path d="M23.4813 17.6839C22.8724 17.0754 22.1381 16.75 21.3598 16.75C20.5878 16.75 19.8471 17.0693 19.2132 17.6779L17.2298 19.5758C17.0666 19.4915 16.9034 19.4131 16.7465 19.3348C16.5206 19.2263 16.3072 19.1239 16.1252 19.0155C14.2673 17.8827 12.5789 16.4066 10.9596 14.4966C10.175 13.5446 9.64776 12.7432 9.26489 11.9298C9.77957 11.478 10.2566 11.008 10.7211 10.5561C10.8968 10.3874 11.0725 10.2127 11.2483 10.044C12.5664 8.77867 12.5664 7.13982 11.2483 5.87453L9.53478 4.22966C9.34021 4.04288 9.13936 3.85007 8.95107 3.65727C8.57447 3.2837 8.17905 2.89809 7.77108 2.53658C7.16225 1.95816 6.43417 1.65088 5.66844 1.65088C4.9027 1.65088 4.16207 1.95816 3.53441 2.53658C3.52814 2.54261 3.52814 2.54261 3.52186 2.54863L1.38784 4.61527C0.584439 5.38649 0.126252 6.32642 0.025827 7.41698C-0.12481 9.17634 0.414972 10.8152 0.829224 11.8877C1.84602 14.5207 3.36495 16.9609 5.63078 19.5758C8.3799 22.727 11.6876 25.2154 15.4661 26.9687C16.9097 27.6255 18.8366 28.4027 20.9895 28.5353C21.1213 28.5413 21.2594 28.5473 21.3849 28.5473C22.8348 28.5473 24.0524 28.0472 25.0065 27.0531C25.0127 27.041 25.0253 27.035 25.0316 27.0229C25.3579 26.6434 25.7345 26.2999 26.13 25.9324C26.3998 25.6853 26.676 25.4263 26.9459 25.1551C27.5673 24.5345 27.8937 23.8115 27.8937 23.0704C27.8937 22.3233 27.561 21.6063 26.9271 21.0038L23.4813 17.6839ZM25.7283 24.0284C25.722 24.0284 25.722 24.0344 25.7283 24.0284C25.4835 24.2815 25.2324 24.5104 24.9625 24.7635C24.5545 25.1371 24.1403 25.5287 23.7511 25.9685C23.1172 26.6193 22.3703 26.9265 21.3912 26.9265C21.297 26.9265 21.1966 26.9265 21.1024 26.9205C19.2383 26.806 17.506 26.1071 16.2067 25.5106C12.6542 23.8597 9.53479 21.5159 6.94257 18.5455C4.80227 16.0691 3.37122 13.7796 2.42347 11.3213C1.83975 9.82103 1.62634 8.65215 1.72049 7.54954C1.78326 6.84459 2.0657 6.26015 2.58666 5.76006L4.72696 3.70547C5.03451 3.42831 5.36089 3.27768 5.68099 3.27768C6.07641 3.27768 6.39651 3.50664 6.59736 3.69944C6.60364 3.70547 6.60992 3.71149 6.61619 3.71752C6.99906 4.06095 7.3631 4.41644 7.74597 4.79603C7.94054 4.98883 8.14139 5.18164 8.34224 5.38047L10.0557 7.02535C10.7211 7.66402 10.7211 8.25448 10.0557 8.89315C9.87372 9.06788 9.69797 9.24261 9.51595 9.41132C8.98873 9.92948 8.4866 10.4115 7.94054 10.8815C7.92799 10.8935 7.91544 10.8995 7.90916 10.9116C7.36938 11.4298 7.4698 11.9359 7.58278 12.2793C7.58906 12.2974 7.59533 12.3155 7.60161 12.3335C8.04725 13.3699 8.6749 14.3459 9.62893 15.5088L9.63521 15.5148C11.3675 17.5634 13.194 19.1601 15.2088 20.3832C15.4661 20.5398 15.7297 20.6664 15.9808 20.7869C16.2067 20.8953 16.4201 20.9978 16.6022 21.1062C16.6273 21.1183 16.6524 21.1363 16.6775 21.1484C16.8909 21.2508 17.0917 21.299 17.2989 21.299C17.8198 21.299 18.1462 20.9857 18.2529 20.8833L20.3995 18.8227C20.6129 18.6178 20.9518 18.3708 21.3472 18.3708C21.7364 18.3708 22.0565 18.6058 22.2511 18.8106C22.2573 18.8166 22.2573 18.8166 22.2636 18.8227L25.722 22.1425C26.3685 22.7571 26.3685 23.3898 25.7283 24.0284Z" fill="#55721E"/>
<path d="M16.0498 6.79084C17.6942 7.05594 19.188 7.80307 20.3806 8.94785C21.5731 10.0926 22.3451 11.5266 22.6276 13.1052C22.6966 13.5029 23.0544 13.7801 23.4624 13.7801C23.5126 13.7801 23.5565 13.774 23.6067 13.768C24.0712 13.6957 24.3787 13.2739 24.3034 12.8281C23.9645 10.9181 23.023 9.17681 21.5857 7.79704C20.1484 6.41727 18.3344 5.5135 16.3448 5.18814C15.8803 5.11583 15.4472 5.41107 15.3656 5.85091C15.284 6.29075 15.5853 6.71853 16.0498 6.79084Z" fill="#55721E"/>
<path d="M29.6829 12.593C29.1243 9.44784 27.5803 6.58588 25.2077 4.30836C22.8352 2.03084 19.8538 0.548642 16.5775 0.0124007C16.1193 -0.0659267 15.6862 0.235333 15.6046 0.675171C15.5293 1.12103 15.8368 1.53677 16.3013 1.6151C19.2262 2.09109 21.8937 3.42265 24.0152 5.45314C26.1366 7.48965 27.5175 10.0504 28.0133 12.8581C28.0824 13.2558 28.4401 13.5329 28.8481 13.5329C28.8983 13.5329 28.9423 13.5269 28.9925 13.5209C29.4507 13.4546 29.7645 13.0328 29.6829 12.593Z" fill="#55721E"/>
</svg>
