<svg width="22" height="22" viewBox="0 0 22 22" fill="none" xmlns="http://www.w3.org/2000/svg">
<path fill-rule="evenodd" clip-rule="evenodd" d="M7.94259 0.0464019C6.4074 0.203754 4.87832 0.807121 3.55978 1.77589C3.07118 2.1349 2.17356 3.0207 1.80902 3.50367C0.676791 5.00362 0.0714903 6.70471 0.00639264 8.56981C-0.0323652 9.68111 0.103889 10.638 0.44867 11.6753C0.878873 12.9696 1.61793 14.162 2.59646 15.1406C4.03102 16.5751 5.84391 17.4563 7.86911 17.7033C8.4143 17.7699 9.80786 17.7338 10.3274 17.6397C11.5354 17.4209 12.6102 17.0105 13.5824 16.3968L13.9586 16.1594L16.5947 18.8975C18.0445 20.4034 19.291 21.6862 19.3646 21.7482C19.8261 22.1365 20.6288 22.0295 20.981 21.5328C21.1579 21.2833 21.2128 21.1199 21.2167 20.8304C21.2229 20.3639 21.1925 20.3271 18.407 17.4361C17.0135 15.9898 15.8292 14.754 15.7751 14.6897L15.6768 14.5729L15.9069 14.2784C17.4665 12.2822 18.0708 9.65632 17.562 7.08739C17.3077 5.80379 16.642 4.39261 15.793 3.33755C13.8917 0.974613 10.9439 -0.261211 7.94259 0.0464019ZM9.70525 2.37973C12.4924 2.75086 14.6999 4.79118 15.2914 7.5429C15.4089 8.08968 15.4528 9.18328 15.3781 9.70479C15.164 11.1998 14.5346 12.4767 13.5036 13.5077C12.5095 14.5019 11.2764 15.1323 9.87773 15.3617C9.40847 15.4386 8.37773 15.439 7.87453 15.3624C6.06133 15.0862 4.41898 14.0338 3.40995 12.5015C3.04935 11.9538 2.85543 11.5573 2.65597 10.9598C2.43898 10.3098 2.35266 9.82295 2.32499 9.09266C2.18611 5.4309 5.13991 2.35391 8.82345 2.32314C9.05978 2.32117 9.45659 2.34661 9.70525 2.37973Z" fill="black" fill-opacity="0.5"/>
</svg>
