<svg width="43" height="38" viewBox="0 0 43 38" fill="none" xmlns="http://www.w3.org/2000/svg">
<path d="M25.5515 33.2111L25.5513 33.2112C24.9194 33.6943 23.6974 34.5803 22.6161 35.3577C22.2067 35.652 21.8208 35.9283 21.5 36.1576C21.1792 35.9283 20.7933 35.652 20.384 35.3577C19.3026 34.5803 18.0807 33.6943 17.4487 33.2112L17.4485 33.2111C15.1256 31.4358 12.3024 29.1693 9.71956 26.8014C7.11516 24.4137 4.84294 22.0017 3.54483 19.9361L3.54425 19.9352C1.65122 16.9278 1.03313 13.1916 1.8571 9.72469L1.85952 9.71447L1.86181 9.70422C3.57575 2.01567 13.0851 -1.11605 18.9768 4.01879L18.9805 4.02202C19.2994 4.29806 19.6022 4.61177 19.9701 4.99496C20.116 5.147 20.2718 5.30922 20.4334 5.47264L21.5 6.55138L22.5666 5.47265C22.7281 5.30932 22.8838 5.14723 23.0297 4.99517C23.3977 4.61189 23.7006 4.29811 24.0195 4.02202L24.0232 4.01879C29.9149 -1.11605 39.4243 2.01567 41.1382 9.70421L41.1405 9.71447L41.1429 9.72469C41.9669 13.1916 41.3487 16.9278 39.4558 19.9352L39.4552 19.9361C38.1571 22.0017 35.8848 24.4137 33.2804 26.8014C30.6976 29.1693 27.8744 31.4358 25.5515 33.2111Z" stroke="#55721E" stroke-width="3"/>
</svg>
