<svg width="43" height="38" viewBox="0 0 43 38" fill="none" xmlns="http://www.w3.org/2000/svg">
<path d="M26.4623 34.4029C31.1472 30.8225 37.9079 25.2172 40.7252 20.7343C42.8333 17.3851 43.5192 13.2358 42.6023 9.37785C40.6432 0.589757 29.795 -3.00126 23.0377 2.88798C22.6576 3.21702 22.3073 3.58177 21.9477 3.95632C21.801 4.10918 21.6526 4.26365 21.5 4.41799C21.3474 4.26365 21.199 4.10916 21.0523 3.9563C20.6927 3.58177 20.3424 3.21702 19.9623 2.88798C13.205 -3.00126 2.3568 0.589757 0.397746 9.37785C-0.519167 13.2358 0.166662 17.3851 2.2748 20.7343C5.0921 25.2172 11.8528 30.8225 16.5377 34.4029C17.8431 35.4008 21.5 38 21.5 38C21.5 38 25.1569 35.4008 26.4623 34.4029Z" fill="#55721E"/>
</svg>
