<svg width="28" height="20" viewBox="0 0 28 20" fill="none" xmlns="http://www.w3.org/2000/svg">
<path d="M1.13649 0.620605C0.508824 0.620605 0 1.05938 0 1.60064V13.3611C0 13.9023 0.508824 14.3411 1.13649 14.3411H1.51928C1.27383 14.7867 1.13649 15.2851 1.13649 15.8112C1.13649 17.7056 2.91737 19.2413 5.11421 19.2413C7.31104 19.2413 9.09192 17.7056 9.09192 15.8112C9.09192 15.2851 8.95458 14.7867 8.70913 14.3411H17.0474H17.4301C17.1847 14.7867 17.0474 15.2851 17.0474 15.8112C17.0474 17.7056 18.8282 19.2413 21.0251 19.2413C23.2219 19.2413 25.0028 17.7056 25.0028 15.8112C25.0028 15.2851 24.8654 14.7867 24.62 14.3411H26.1393C26.7669 14.3411 27.2758 13.9023 27.2758 13.3611V8.4609C27.2758 8.22087 27.1736 7.98919 26.9887 7.80979L23.9581 4.86969C23.7424 4.66046 23.4333 4.54075 23.1086 4.54075H18.1838V1.60064C18.1838 1.05938 17.675 0.620605 17.0474 0.620605H1.13649ZM18.1838 6.50082H22.5983L25.0028 8.8335V12.381H21.0251H18.1838V6.50082ZM15.9109 5.52079V12.381H5.11421H2.27298V2.58068H15.9109V5.52079ZM21.0251 14.3411C21.9666 14.3411 22.7298 14.9993 22.7298 15.8112C22.7298 16.6231 21.9666 17.2812 21.0251 17.2812C20.0836 17.2812 19.3203 16.6231 19.3203 15.8112C19.3203 14.9993 20.0836 14.3411 21.0251 14.3411ZM5.11421 14.3411C6.05571 14.3411 6.81894 14.9993 6.81894 15.8112C6.81894 16.6231 6.05571 17.2812 5.11421 17.2812C4.17271 17.2812 3.40947 16.6231 3.40947 15.8112C3.40947 14.9993 4.17271 14.3411 5.11421 14.3411Z" fill="#55721E"/>
</svg>
