<svg width="42" height="42" viewBox="0 0 42 42" fill="none" xmlns="http://www.w3.org/2000/svg">
<g clip-path="url(#clip0_207_151)">
<path d="M42 15.75H34.8681L27.3754 3.26202C27.0038 2.64169 26.1975 2.43915 25.5746 2.81215C24.9529 3.18514 24.7517 3.99131 25.1247 4.61297L31.8069 15.75H10.1932L16.8754 4.61288C17.2484 3.99122 17.0471 3.18506 16.4255 2.81206C15.8013 2.43907 14.9977 2.6416 14.6247 3.26193L7.13197 15.7499H0V18.3749H2.84867L6.18309 36.1616C6.5317 38.024 8.1595 39.375 10.054 39.375H31.9461C33.8405 39.375 35.4683 38.024 35.8157 36.1629L39.1512 18.3749H42.0001C42 18.3749 42 15.75 42 15.75ZM33.2354 35.6797C33.1201 36.3001 32.5779 36.75 31.946 36.75H10.054C9.42208 36.75 8.87995 36.3002 8.76331 35.6785L5.51858 18.3749H36.4815L33.2354 35.6797Z" fill="#55721E"/>
</g>
<defs>
<clipPath id="clip0_207_151">
<rect width="42" height="42" fill="white"/>
</clipPath>
</defs>
</svg>
