<svg width="36" height="31" viewBox="0 0 36 31" fill="none" xmlns="http://www.w3.org/2000/svg">
<path fill-rule="evenodd" clip-rule="evenodd" d="M4.79741 1.65375C3.00371 2.83935 1.40047 4.83018 0.641596 6.97227C-1.6026 13.3143 1.88842 18.839 13.5248 27.8286L17.9681 31L21.5555 28.4643C28.0707 23.7483 34.4083 18.4299 35.5514 13.9293C37.6294 5.74759 32.2267 -0.389134 24.746 0.0192498C21.8166 0.179175 20.2042 1.70343 19.3431 2.47173C17.7763 3.8668 18.9276 3.70124 15.1872 1.24445C12.2066 -0.453361 8.03738 -0.489166 4.79741 1.65375ZM15.5477 4.41277C16.5713 5.18127 17.2653 6.15591 18.0963 7.1178C18.9371 5.97591 19.805 5.05392 20.6138 4.41685C28.3189 -1.65187 37.1045 7.53183 31.7517 16.0585C29.948 18.9304 19.3431 27.4303 18.0961 27.8286C16.8497 27.4303 6.2443 18.9304 4.44063 16.0585C1.90219 12.0149 2.169 7.78875 5.14881 4.85544C8.20257 1.84929 11.9229 1.69138 15.5477 4.41277Z" fill="#55721E"/>
</svg>
