<svg width="20" height="28" viewBox="0 0 20 28" fill="none" xmlns="http://www.w3.org/2000/svg">
<path fill-rule="evenodd" clip-rule="evenodd" d="M8.89047 0.0601066C7.76765 0.185124 6.6891 0.499255 5.63779 1.00753C3.54862 2.01752 1.99295 3.55333 0.993626 5.59223C-0.819925 9.29234 -0.174504 13.2645 3.12399 18.703C4.06243 20.2503 4.93671 21.5311 7.13686 24.582C7.87435 25.6046 8.69275 26.7492 8.95547 27.1254C9.45588 27.842 9.64515 28 10.0025 28C10.3598 28 10.5491 27.842 11.0495 27.1254C11.3122 26.7492 12.1309 25.6046 12.8687 24.582C15.0247 21.5936 15.9752 20.1998 16.8915 18.683C19.855 13.7774 20.6374 10.2044 19.5034 6.75479C19.2924 6.11292 18.7183 4.96889 18.2953 4.34724C16.2487 1.33976 12.5483 -0.347049 8.89047 0.0601066ZM11.6427 1.80549C15.4286 2.58715 18.1454 5.70992 18.3265 9.48796C18.4137 11.3068 17.857 13.3197 16.5642 15.8592C15.5467 17.8578 14.4225 19.5863 11.4481 23.7251C10.6683 24.8102 10.0178 25.6985 10.0025 25.6991C9.98721 25.6998 9.83258 25.4979 9.65888 25.2505C9.48518 25.0031 8.80095 24.0501 8.1384 23.1327C6.82688 21.3169 5.52203 19.4194 4.9039 18.4295C2.59428 14.7307 1.56404 11.8747 1.67847 9.48796C1.82186 6.49683 3.53867 3.8953 6.2772 2.51939C7.11078 2.10059 8.00429 1.83026 9.00167 1.69524C9.5911 1.61545 11.009 1.67462 11.6427 1.80549ZM9.00167 5.02358C7.1184 5.4298 5.66108 6.7904 5.15717 8.61294C5.05898 8.96814 5.03624 9.19964 5.03624 9.84343C5.03624 10.4872 5.05898 10.7187 5.15717 11.0739C5.64735 12.8469 7.04739 14.1906 8.87218 14.6397C9.44565 14.7808 10.6673 14.7649 11.2535 14.6087C13.0149 14.1395 14.3682 12.8085 14.8478 11.0739C14.946 10.7187 14.9688 10.4872 14.9688 9.84343C14.9688 9.19964 14.946 8.96814 14.8478 8.61294C14.3672 6.87473 12.9984 5.53026 11.2535 5.08253C10.6084 4.91699 9.61634 4.89101 9.00167 5.02358ZM10.8034 6.67014C11.4315 6.82819 11.858 7.07095 12.3396 7.54466C12.8213 8.01837 13.0681 8.43794 13.2288 9.0557C13.4298 9.8291 13.3246 10.6713 12.9369 11.3919C12.696 11.8393 12.0225 12.5029 11.5768 12.732C10.8375 13.1118 9.98554 13.2139 9.20161 13.0167C8.58277 12.861 8.14858 12.6135 7.66485 12.1403C7.18289 11.669 6.93797 11.253 6.77623 10.6312C6.57578 9.86011 6.67959 9.02212 7.06574 8.29498C7.29882 7.85616 7.97327 7.19411 8.42909 6.95681C9.16158 6.57547 10.0166 6.47222 10.8034 6.67014Z" fill="white"/>
</svg>
