<svg width="30" height="29" viewBox="0 0 30 29" fill="none" xmlns="http://www.w3.org/2000/svg">
<path d="M30 10.625H24.9058L19.5539 1.40768C19.2884 0.949819 18.7125 0.800328 18.2676 1.07563C17.8235 1.35094 17.6798 1.94597 17.9462 2.40481L22.7192 10.625H7.28083L12.0538 2.40475C12.3203 1.9459 12.1765 1.35087 11.7325 1.07557C11.2866 0.800262 10.7126 0.949753 10.4462 1.40762L5.09427 10.6249H0V12.5624H2.03477L4.4165 25.6907C4.6655 27.0653 5.82822 28.0625 7.18142 28.0625H22.8186C24.1718 28.0625 25.3345 27.0653 25.5826 25.6917L27.9652 12.5624H30.0001C30 12.5624 30 10.625 30 10.625ZM23.7396 25.335C23.6572 25.7929 23.2699 26.125 22.8186 26.125H7.18142C6.73006 26.125 6.34282 25.793 6.25951 25.3341L3.94184 12.5624H26.0582L23.7396 25.335Z" fill="#55721E"/>
</svg>
