<svg width="671" height="317" viewBox="0 0 671 317" fill="none" xmlns="http://www.w3.org/2000/svg">
<path d="M48.8497 86.96C48.8497 86.8097 48.9996 86.7344 49.2999 86.7344C49.5251 86.7344 49.7127 86.772 49.8627 86.8472C50.0878 86.9225 50.2004 87.0353 50.2004 87.1856C49.5251 91.9229 49.1874 96.886 49.1874 102.074C49.1874 102.676 49.0373 103.127 48.7371 103.428C48.5119 103.653 48.0618 103.766 47.3865 103.766H0.22511C0.0750401 103.766 0 103.54 0 103.089C0 102.638 0.0750401 102.413 0.22511 102.413C3.07654 102.413 5.1401 102.224 6.41575 101.849C7.76645 101.473 8.66685 100.758 9.11715 99.706C9.64235 98.578 9.90495 96.886 9.90495 94.6299V42.4071C9.90495 40.1513 9.64235 38.497 9.11715 37.4443C8.66685 36.3916 7.76645 35.6772 6.41575 35.3012C5.1401 34.8501 3.07654 34.6245 0.22511 34.6245C0.0750401 34.6245 0 34.3989 0 33.9477C0 33.4966 0.0750401 33.271 0.22511 33.271H45.4729C46.1483 33.271 46.486 33.6094 46.486 34.2861L46.7111 48.1595C46.7111 48.3851 46.5234 48.5355 46.1483 48.6107C45.7732 48.6107 45.548 48.4979 45.4729 48.2723C45.2478 44.2871 44.0471 41.204 41.8712 39.0234C39.6952 36.7675 36.806 35.6396 33.2043 35.6396H26.3382C23.712 35.6396 21.761 35.8652 20.4853 36.3164C19.2846 36.6923 18.4218 37.4068 17.8965 38.4594C17.4464 39.437 17.2211 40.9408 17.2211 42.9711V65.8679H30.9532C34.555 65.8679 37.1062 65.2664 38.6069 64.0632C40.1827 62.86 40.9706 60.8298 40.9706 57.9724C40.9706 57.8221 41.1959 57.7469 41.646 57.7469C42.0962 57.7469 42.3214 57.8221 42.3214 57.9724L42.2089 67.1086C42.2089 69.2892 42.2463 70.9435 42.3214 72.0715L42.4339 77.4855C42.4339 77.6358 42.2088 77.7111 41.7585 77.7111C41.3083 77.7111 41.0833 77.6358 41.0833 77.4855C41.0833 74.177 40.2579 71.8083 38.6069 70.3796C37.0312 68.9508 34.3673 68.2365 30.6155 68.2365H17.2211V94.1787C17.2211 96.284 17.4464 97.826 17.8965 98.803C18.3467 99.781 19.1721 100.458 20.3727 100.833C21.5735 101.209 23.4493 101.397 26.0007 101.397H35.0051C38.6069 101.397 41.6086 100.119 44.0098 97.562C46.4109 95.0058 48.0244 91.4717 48.8497 86.96ZM72.1613 46.4677C72.1613 49.4003 72.8741 51.9569 74.2999 54.1375C75.7256 56.3181 77.4514 58.1605 79.4774 59.6643C81.5034 61.0931 84.3549 62.9353 88.0318 65.1911C91.9338 67.5222 94.9728 69.4772 97.1492 71.0563C99.3252 72.6354 101.163 74.6657 102.664 77.1471C104.24 79.5533 105.028 82.4483 105.028 85.8321C105.028 89.4414 104.127 92.7124 102.326 95.645C100.525 98.578 97.8612 100.909 94.3349 102.638C90.8831 104.292 86.7186 105.12 81.8412 105.12C76.0633 105.12 70.7731 103.804 65.9707 101.172C65.5955 100.946 65.3328 100.683 65.1828 100.382C65.1077 100.081 65.0327 99.63 64.9577 99.029L63.4944 83.689C63.4193 83.3882 63.5695 83.2003 63.9446 83.1251C64.3949 83.0498 64.6573 83.1626 64.7325 83.4635C65.9332 88.8775 68.1467 93.5395 71.3734 97.45C74.6749 101.36 79.0272 103.315 84.4299 103.315C88.1817 103.315 91.3334 102.3 93.8848 100.269C96.5113 98.164 97.8242 94.8555 97.8242 90.3438C97.8242 86.96 97.0743 84.0274 95.5733 81.546C94.0724 79.0646 92.2339 77.0343 90.0578 75.4552C87.9567 73.8009 85.0678 71.8834 81.3909 69.7028C77.789 67.5222 74.9377 65.6423 72.8365 64.0632C70.8105 62.4841 69.0847 60.4914 67.659 58.0852C66.2332 55.6791 65.5204 52.8593 65.5204 49.6258C65.5204 45.8662 66.496 42.6703 68.4469 40.0385C70.4729 37.3315 73.0617 35.3388 76.2133 34.0605C79.44 32.707 82.8541 32.0303 86.4559 32.0303C90.8831 32.0303 95.2728 32.9326 99.6252 34.7373C100.75 35.1132 101.313 35.7524 101.313 36.6547L102.101 49.6258C102.101 49.9267 101.913 50.077 101.538 50.077C101.163 50.077 100.938 49.9267 100.863 49.6258C100.263 45.7157 98.6493 42.1063 96.0233 38.7978C93.3971 35.414 89.6075 33.7222 84.655 33.7222C80.4529 33.7222 77.3014 34.9629 75.2003 37.4443C73.1743 39.8505 72.1613 42.8583 72.1613 46.4677ZM132.403 35.3012C127.675 35.3012 124.111 36.5044 121.71 38.9106C119.384 41.3168 117.695 45.415 116.645 51.2049C116.645 51.3553 116.42 51.4305 115.969 51.4305C115.594 51.4305 115.407 51.3553 115.407 51.2049C115.707 48.4979 116.044 44.9638 116.42 40.6025C116.795 36.2411 116.982 32.9701 116.982 30.7896C116.982 30.4136 117.17 30.2256 117.545 30.2256C117.995 30.2256 118.22 30.4136 118.22 30.7896C118.22 32.4439 120.247 33.271 124.299 33.271C130.677 33.4966 138.218 33.6094 146.922 33.6094C151.35 33.6094 156.04 33.5341 160.992 33.3838L168.646 33.271C171.348 33.271 173.336 33.0829 174.612 32.707C175.963 32.3311 176.825 31.5791 177.201 30.4512C177.275 30.1503 177.5 30 177.876 30C178.251 30 178.439 30.1503 178.439 30.4512C178.214 32.6318 177.989 35.9405 177.764 40.3769C177.539 44.8133 177.426 48.4227 177.426 51.2049C177.426 51.3553 177.201 51.4305 176.751 51.4305C176.301 51.4305 176.076 51.3553 176.076 51.2049C175.85 45.3397 174.649 41.2417 172.474 38.9106C170.297 36.5044 166.695 35.3012 161.667 35.3012C158.291 35.3012 155.89 35.4516 154.464 35.7524C153.038 36.0533 152.063 36.6923 151.537 37.6699C151.012 38.6475 150.749 40.3016 150.749 42.6327V94.6299C150.749 96.961 151.012 98.653 151.537 99.706C152.063 100.758 153.076 101.473 154.576 101.849C156.077 102.224 158.441 102.413 161.667 102.413C161.893 102.413 162.005 102.638 162.005 103.089C162.005 103.54 161.893 103.766 161.667 103.766C159.191 103.766 157.203 103.728 155.702 103.653L146.922 103.54L138.481 103.653C136.98 103.728 134.916 103.766 132.29 103.766C132.14 103.766 132.065 103.54 132.065 103.089C132.065 102.638 132.14 102.413 132.29 102.413C135.517 102.413 137.88 102.224 139.381 101.849C140.882 101.473 141.895 100.758 142.42 99.706C143.02 98.578 143.321 96.886 143.321 94.6299V42.4071C143.321 40.076 143.058 38.4594 142.533 37.5571C142.007 36.5795 141.032 35.978 139.606 35.7524C138.181 35.4516 135.779 35.3012 132.403 35.3012ZM235.931 86.96C235.931 86.8097 236.081 86.7344 236.381 86.7344C236.607 86.7344 236.795 86.772 236.944 86.8472C237.169 86.9225 237.282 87.0353 237.282 87.1856C236.607 91.9229 236.269 96.886 236.269 102.074C236.269 102.676 236.119 103.127 235.819 103.428C235.594 103.653 235.143 103.766 234.468 103.766H187.307C187.157 103.766 187.082 103.54 187.082 103.089C187.082 102.638 187.157 102.413 187.307 102.413C190.158 102.413 192.222 102.224 193.497 101.849C194.848 101.473 195.748 100.758 196.199 99.706C196.724 98.578 196.987 96.886 196.987 94.6299V42.4071C196.987 40.1513 196.724 38.497 196.199 37.4443C195.748 36.3916 194.848 35.6772 193.497 35.3012C192.222 34.8501 190.158 34.6245 187.307 34.6245C187.157 34.6245 187.082 34.3989 187.082 33.9477C187.082 33.4966 187.157 33.271 187.307 33.271H232.555C233.23 33.271 233.568 33.6094 233.568 34.2861L233.793 48.1595C233.793 48.3851 233.604 48.5355 233.23 48.6107C232.855 48.6107 232.63 48.4979 232.555 48.2723C232.329 44.2871 231.128 41.204 228.953 39.0234C226.777 36.7675 223.888 35.6396 220.286 35.6396H213.42C210.794 35.6396 208.842 35.8652 207.567 36.3164C206.366 36.6923 205.504 37.4068 204.978 38.4594C204.528 39.437 204.303 40.9408 204.303 42.9711V65.8679H218.035C221.636 65.8679 224.188 65.2664 225.689 64.0632C227.264 62.86 228.052 60.8298 228.052 57.9724C228.052 57.8221 228.277 57.7469 228.728 57.7469C229.178 57.7469 229.403 57.8221 229.403 57.9724L229.29 67.1086C229.29 69.2892 229.327 70.9435 229.403 72.0715L229.515 77.4855C229.515 77.6358 229.29 77.7111 228.84 77.7111C228.39 77.7111 228.165 77.6358 228.165 77.4855C228.165 74.177 227.34 71.8083 225.689 70.3796C224.113 68.9508 221.448 68.2365 217.697 68.2365H204.303V94.1787C204.303 96.284 204.528 97.826 204.978 98.803C205.428 99.781 206.253 100.458 207.454 100.833C208.656 101.209 210.53 101.397 213.082 101.397H222.087C225.689 101.397 228.691 100.119 231.091 97.562C233.492 95.0058 235.106 91.4717 235.931 86.96ZM264.195 35.3012C259.468 35.3012 255.903 36.5044 253.502 38.9106C251.176 41.3168 249.487 45.415 248.437 51.2049C248.437 51.3553 248.212 51.4305 247.762 51.4305C247.387 51.4305 247.199 51.3553 247.199 51.2049C247.5 48.4979 247.838 44.9638 248.212 40.6025C248.587 36.2411 248.775 32.9701 248.775 30.7896C248.775 30.4136 248.963 30.2256 249.338 30.2256C249.788 30.2256 250.013 30.4136 250.013 30.7896C250.013 32.4439 252.039 33.271 256.091 33.271C262.47 33.4966 270.011 33.6094 278.715 33.6094C283.142 33.6094 287.832 33.5341 292.785 33.3838L300.439 33.271C303.14 33.271 305.129 33.0829 306.404 32.707C307.755 32.3311 308.618 31.5791 308.993 30.4512C309.069 30.1503 309.294 30 309.668 30C310.043 30 310.231 30.1503 310.231 30.4512C310.006 32.6318 309.781 35.9405 309.556 40.3769C309.331 44.8133 309.218 48.4227 309.218 51.2049C309.218 51.3553 308.993 51.4305 308.543 51.4305C308.092 51.4305 307.867 51.3553 307.867 51.2049C307.642 45.3397 306.441 41.2417 304.266 38.9106C302.09 36.5044 298.488 35.3012 293.46 35.3012C290.083 35.3012 287.683 35.4516 286.256 35.7524C284.83 36.0533 283.856 36.6923 283.33 37.6699C282.804 38.6475 282.542 40.3016 282.542 42.6327V94.6299C282.542 96.961 282.804 98.653 283.33 99.706C283.856 100.758 284.869 101.473 286.369 101.849C287.869 102.224 290.233 102.413 293.46 102.413C293.685 102.413 293.798 102.638 293.798 103.089C293.798 103.54 293.685 103.766 293.46 103.766C290.984 103.766 288.995 103.728 287.495 103.653L278.715 103.54L270.273 103.653C268.773 103.728 266.708 103.766 264.083 103.766C263.933 103.766 263.858 103.54 263.858 103.089C263.858 102.638 263.933 102.413 264.083 102.413C267.31 102.413 269.674 102.224 271.174 101.849C272.674 101.473 273.687 100.758 274.213 99.706C274.813 98.578 275.113 96.886 275.113 94.6299V42.4071C275.113 40.076 274.851 38.4594 274.325 37.5571C273.8 36.5795 272.825 35.978 271.399 35.7524C269.973 35.4516 267.572 35.3012 264.195 35.3012ZM336.659 94.6299C336.659 96.886 336.884 98.578 337.334 99.706C337.785 100.758 338.646 101.473 339.923 101.849C341.274 102.224 343.374 102.413 346.226 102.413C346.451 102.413 346.564 102.638 346.564 103.089C346.564 103.54 346.451 103.766 346.226 103.766C343.975 103.766 342.174 103.728 340.824 103.653L332.832 103.54L325.066 103.653C323.715 103.728 321.875 103.766 319.55 103.766C319.325 103.766 319.213 103.54 319.213 103.089C319.213 102.638 319.325 102.413 319.55 102.413C322.401 102.413 324.464 102.224 325.741 101.849C327.092 101.473 327.992 100.758 328.442 99.706C328.966 98.578 329.23 96.886 329.23 94.6299V42.4071C329.23 40.1513 328.966 38.497 328.442 37.4443C327.992 36.3916 327.092 35.6772 325.741 35.3012C324.464 34.8501 322.401 34.6245 319.55 34.6245C319.325 34.6245 319.213 34.3989 319.213 33.9477C319.213 33.4966 319.325 33.271 319.55 33.271L325.066 33.3838C328.217 33.5341 330.806 33.6094 332.832 33.6094C335.083 33.6094 337.785 33.5341 340.936 33.3838L346.226 33.271C346.451 33.271 346.564 33.4966 346.564 33.9477C346.564 34.3989 346.451 34.6245 346.226 34.6245C343.449 34.6245 341.386 34.8501 340.036 35.3012C338.759 35.7524 337.858 36.542 337.334 37.6699C336.884 38.7225 336.659 40.3769 336.659 42.6327V94.6299ZM398.344 32.0303C401.946 32.0303 405.584 32.3686 409.262 33.0454C412.937 33.7222 415.864 34.6997 418.041 35.978C418.717 36.2788 419.128 36.6172 419.279 36.9931C419.504 37.294 419.654 37.8579 419.73 38.685L420.968 51.3177C420.968 51.5433 420.779 51.6936 420.405 51.7689C420.029 51.7689 419.803 51.6561 419.73 51.4305C418.078 45.6406 415.002 41.392 410.5 38.685C406.071 35.9027 400.556 34.5117 393.954 34.5117C388.251 34.5117 383.261 35.7899 378.984 38.3466C374.707 40.8281 371.404 44.3621 369.079 48.9491C366.752 53.536 365.59 58.8372 365.59 64.8528C365.59 71.8459 367.014 78.3126 369.867 84.253C372.793 90.1934 376.694 94.893 381.573 98.352C386.525 101.811 391.852 103.54 397.556 103.54C402.959 103.54 407.647 102.074 411.625 99.142C415.602 96.1337 418.641 91.547 420.743 85.3809C420.743 85.1553 420.892 85.0425 421.193 85.0425C421.418 85.0425 421.604 85.0801 421.756 85.1553C421.981 85.2306 422.093 85.3434 422.093 85.4937L420.517 98.239C420.366 99.142 420.18 99.743 419.955 100.044C419.803 100.269 419.392 100.533 418.717 100.833C411.963 103.691 404.833 105.12 397.331 105.12C388.326 105.12 380.785 103.315 374.707 99.706C368.703 96.0209 364.276 91.3589 361.425 85.7193C358.572 80.0797 357.148 74.1393 357.148 67.8982C357.148 60.9803 359.061 54.7767 362.888 49.2875C366.715 43.7982 371.78 39.5498 378.083 36.542C384.387 33.5341 391.14 32.0303 398.344 32.0303ZM11.7059 159.26C11.7059 162.192 12.4187 164.749 13.8444 166.93C15.2703 169.11 16.996 170.953 19.0222 172.456C21.0481 173.886 23.8996 175.727 27.5765 177.983C31.4785 180.315 34.5174 182.269 36.6936 183.848C38.8695 185.428 40.7082 187.458 42.2089 189.939C43.7847 192.345 44.5726 195.24 44.5726 198.624C44.5726 202.234 43.6721 205.504 41.8712 208.437C40.0703 211.37 37.4063 213.701 33.8797 215.43C30.4279 217.085 26.2633 217.912 21.3857 217.912C15.608 217.912 10.3177 216.595 5.51525 213.964C5.1401 213.738 4.87745 213.476 4.72738 213.174C4.65234 212.873 4.57731 212.422 4.50227 211.821L3.03903 196.481C2.96399 196.18 3.11407 195.993 3.48926 195.917C3.93949 195.841 4.20211 195.954 4.27716 196.256C5.47775 201.67 7.69135 206.331 10.918 210.242C14.2197 214.152 18.5718 216.107 23.9746 216.107C27.7264 216.107 30.8781 215.092 33.4294 213.062C36.0557 210.956 37.3689 207.648 37.3689 203.136C37.3689 199.752 36.6184 196.819 35.1177 194.338C33.6171 191.857 31.7785 189.826 29.6025 188.247C27.5014 186.592 24.6124 184.675 20.9356 182.495C17.3338 180.315 14.4824 178.434 12.3813 176.855C10.3553 175.276 8.62935 173.283 7.20365 170.877C5.77795 168.471 5.06505 165.651 5.06505 162.418C5.06505 158.658 6.04055 155.462 7.99155 152.831C10.0176 150.124 12.6063 148.131 15.7579 146.853C18.9846 145.499 22.3988 144.822 26.0007 144.822C30.4279 144.822 34.8176 145.725 39.1698 147.529C40.2953 147.905 40.8582 148.544 40.8582 149.447L41.646 162.418C41.646 162.719 41.4584 162.869 41.0833 162.869C40.7082 162.869 40.4831 162.719 40.408 162.418C39.8077 158.508 38.1943 154.898 35.568 151.59C32.9417 148.206 29.1523 146.514 24.1998 146.514C19.9977 146.514 16.8461 147.755 14.7449 150.236C12.7189 152.643 11.7059 155.65 11.7059 159.26ZM131.94 215.205C132.165 215.205 132.278 215.43 132.278 215.881C132.278 216.333 132.165 216.558 131.94 216.558C129.614 216.558 127.776 216.521 126.425 216.445L118.658 216.333L110.442 216.445C109.091 216.521 107.29 216.558 105.039 216.558C104.814 216.558 104.701 216.333 104.701 215.881C104.701 215.43 104.814 215.205 105.039 215.205C107.966 215.205 110.104 215.016 111.455 214.641C112.805 214.265 113.706 213.55 114.156 212.498C114.681 211.37 114.944 209.678 114.944 207.422V181.029H71.7224V207.422C71.7224 209.678 71.9475 211.37 72.3978 212.498C72.9231 213.55 73.861 214.265 75.2117 214.641C76.5623 215.016 78.701 215.205 81.6275 215.205C81.7775 215.205 81.8526 215.43 81.8526 215.881C81.8526 216.333 81.7775 216.558 81.6275 216.558C79.3013 216.558 77.4629 216.521 76.1122 216.445L68.0081 216.333L60.2416 216.445C58.8909 216.521 57.0149 216.558 54.6138 216.558C54.4637 216.558 54.3886 216.333 54.3886 215.881C54.3886 215.43 54.4637 215.205 54.6138 215.205C57.4651 215.205 59.5663 215.016 60.917 214.641C62.3428 214.265 63.2807 213.55 63.731 212.498C64.2563 211.37 64.5188 209.678 64.5188 207.422V155.199C64.5188 152.943 64.2563 151.289 63.731 150.236C63.2807 149.184 62.3803 148.469 61.0296 148.093C59.6789 147.642 57.5777 147.417 54.7263 147.417C54.5763 147.417 54.5013 147.191 54.5013 146.74C54.5013 146.289 54.5763 146.063 54.7263 146.063L60.4667 146.176C63.6183 146.326 66.1321 146.401 68.0081 146.401C70.1842 146.401 72.9231 146.326 76.2247 146.176L81.6275 146.063C81.7775 146.063 81.8526 146.289 81.8526 146.74C81.8526 147.191 81.7775 147.417 81.6275 147.417C78.7761 147.417 76.6374 147.642 75.2117 148.093C73.861 148.544 72.9231 149.334 72.3978 150.462C71.9475 151.515 71.7224 153.169 71.7224 155.425V178.66H114.944V155.425C114.944 153.169 114.681 151.515 114.156 150.462C113.706 149.334 112.805 148.544 111.455 148.093C110.104 147.642 107.966 147.417 105.039 147.417C104.814 147.417 104.701 147.191 104.701 146.74C104.701 146.289 104.814 146.063 105.039 146.063L110.442 146.176C113.743 146.326 116.482 146.401 118.658 146.401C120.684 146.401 123.273 146.326 126.425 146.176L131.94 146.063C132.165 146.063 132.278 146.289 132.278 146.74C132.278 147.191 132.165 147.417 131.94 147.417C129.089 147.417 126.988 147.642 125.637 148.093C124.286 148.469 123.348 149.184 122.823 150.236C122.373 151.289 122.148 152.943 122.148 155.199V207.422C122.148 209.678 122.373 211.37 122.823 212.498C123.348 213.55 124.286 214.265 125.637 214.641C126.988 215.016 129.089 215.205 131.94 215.205ZM177.277 217.912C170.298 217.912 164.07 216.296 158.592 213.062C153.19 209.754 148.988 205.316 145.986 199.752C143.06 194.112 141.596 187.985 141.596 181.367C141.596 173.621 143.547 167.005 147.449 161.516C151.351 155.951 156.341 151.778 162.419 148.996C168.572 146.213 174.837 144.822 181.216 144.822C188.344 144.822 194.611 146.514 200.013 149.898C205.416 153.207 209.544 157.605 212.395 163.095C215.321 168.584 216.784 174.411 216.784 180.577C216.784 187.421 214.983 193.698 211.382 199.414C207.78 205.129 202.94 209.641 196.862 212.949C190.859 216.257 184.331 217.912 177.277 217.912ZM181.216 215.543C186.318 215.543 190.896 214.302 194.948 211.821C199.076 209.339 202.301 205.693 204.628 200.88C207.029 196.067 208.23 190.353 208.23 183.736C208.23 176.667 206.916 170.389 204.29 164.899C201.665 159.41 197.95 155.124 193.147 152.041C188.42 148.958 182.868 147.417 176.489 147.417C168.235 147.417 161.781 150.086 157.129 155.425C152.477 160.764 150.151 168.095 150.151 177.419C150.151 184.488 151.464 190.954 154.09 196.82C156.716 202.609 160.393 207.196 165.121 210.58C169.848 213.888 175.214 215.543 181.216 215.543ZM243.868 206.971C243.868 209.376 244.169 211.144 244.769 212.272C245.444 213.324 246.682 214.077 248.483 214.528C250.36 214.979 253.286 215.205 257.263 215.205C257.488 215.205 257.6 215.43 257.6 215.881C257.6 216.333 257.488 216.558 257.263 216.558C254.187 216.558 251.784 216.521 250.059 216.445L240.266 216.333L232.725 216.445C231.299 216.521 229.385 216.558 226.985 216.558C226.835 216.558 226.76 216.333 226.76 215.881C226.76 215.43 226.835 215.205 226.985 215.205C229.836 215.205 231.9 215.016 233.175 214.641C234.526 214.265 235.426 213.55 235.877 212.498C236.327 211.37 236.552 209.678 236.552 207.422V155.199C236.552 152.943 236.327 151.289 235.877 150.236C235.426 149.184 234.526 148.469 233.175 148.093C231.9 147.642 229.836 147.417 226.985 147.417C226.835 147.417 226.76 147.191 226.76 146.74C226.76 146.289 226.835 146.063 226.985 146.063L232.613 146.176C235.764 146.326 238.277 146.401 240.154 146.401C242.03 146.401 244.13 146.289 246.457 146.063C247.357 146.063 248.784 146.026 250.734 145.95C252.685 145.8 254.373 145.725 255.799 145.725C262.702 145.725 268.217 147.266 272.345 150.349C276.547 153.432 278.648 158.132 278.648 164.448C278.648 169.411 277.41 173.584 274.934 176.968C272.533 180.352 269.419 182.87 265.592 184.525C261.765 186.18 257.825 187.007 253.773 187.007C251.598 187.007 249.797 186.818 248.371 186.443C248.145 186.443 248.033 186.254 248.033 185.879C248.033 185.653 248.07 185.427 248.145 185.202C248.295 184.976 248.446 184.901 248.596 184.976C249.797 185.278 251.147 185.427 252.648 185.427C257.6 185.427 261.765 183.811 265.141 180.577C268.594 177.343 270.319 172.682 270.319 166.591C270.319 160.651 268.706 155.989 265.479 152.605C262.252 149.146 258.126 147.417 253.098 147.417C250.397 147.417 248.446 147.567 247.245 147.868C246.044 148.169 245.182 148.883 244.656 150.011C244.13 151.063 243.868 152.868 243.868 155.425V206.971Z" fill="#55721E"/>
<path d="M4.69336 290H7.23633V281.824C7.7194 281.952 8.23893 282.061 8.79492 282.152C9.36003 282.234 9.97982 282.275 10.6543 282.275C11.7936 282.275 12.8008 282.116 13.6758 281.797C14.5508 281.478 15.2799 281.045 15.8633 280.498C16.4557 279.942 16.9023 279.309 17.2031 278.598C17.5039 277.878 17.6543 277.103 17.6543 276.273C17.6543 275.49 17.5221 274.742 17.2578 274.031C17.0026 273.311 16.6061 272.687 16.0684 272.158C15.5397 271.62 14.8743 271.192 14.0723 270.873C13.2702 270.554 12.3268 270.395 11.2422 270.395H4.69336V290ZM7.23633 280.676V271.639H10.1758C10.9596 271.639 11.6478 271.78 12.2402 272.062C12.8418 272.336 13.3385 272.701 13.7305 273.156C14.1224 273.612 14.4141 274.127 14.6055 274.701C14.806 275.266 14.9062 275.831 14.9062 276.396C14.9062 276.934 14.8151 277.481 14.6328 278.037C14.4596 278.584 14.1771 279.081 13.7852 279.527C13.3932 279.974 12.8965 280.339 12.2949 280.621C11.7025 280.904 10.987 281.045 10.1484 281.045C9.57422 281.045 9.04102 281.022 8.54883 280.977C8.06576 280.922 7.62826 280.822 7.23633 280.676ZM21.8652 290H24.4082V281.346H25.6387C26.1582 281.346 26.5911 281.396 26.9375 281.496C27.2839 281.587 27.5983 281.747 27.8809 281.975C28.1634 282.193 28.4232 282.48 28.6602 282.836C28.9062 283.191 29.1979 283.629 29.5352 284.148L31.75 287.43C32.0326 287.858 32.306 288.25 32.5703 288.605C32.8438 288.961 33.1354 289.266 33.4453 289.521C33.7643 289.768 34.1243 289.964 34.5254 290.109C34.9355 290.264 35.4186 290.342 35.9746 290.342C36.3848 290.342 36.7174 290.319 36.9727 290.273C37.237 290.237 37.5013 290.146 37.7656 290V288.961C37.6745 288.979 37.5788 288.993 37.4785 289.002C37.3874 289.011 37.2962 289.016 37.2051 289.016C36.8132 289.016 36.4668 288.961 36.166 288.852C35.8743 288.742 35.5964 288.583 35.332 288.373C35.0677 288.154 34.8125 287.89 34.5664 287.58C34.3294 287.27 34.0788 286.919 33.8145 286.527C33.0306 285.388 32.4245 284.481 31.9961 283.807C31.5677 283.123 31.2259 282.594 30.9707 282.221C30.7246 281.847 30.5195 281.578 30.3555 281.414C30.2005 281.241 30.0091 281.1 29.7812 280.99L29.5078 280.84V280.73C30.401 280.676 31.1667 280.48 31.8047 280.143C32.4518 279.805 32.9805 279.386 33.3906 278.885C33.8099 278.383 34.1107 277.841 34.293 277.258C34.4844 276.665 34.5801 276.087 34.5801 275.521C34.5801 275.02 34.4798 274.473 34.2793 273.881C34.0879 273.279 33.7507 272.723 33.2676 272.213C32.7936 271.693 32.1465 271.26 31.3262 270.914C30.5059 270.568 29.4714 270.395 28.2227 270.395H21.8652V290ZM24.4082 280.088V271.639H27.2383C27.9492 271.639 28.5872 271.743 29.1523 271.953C29.7266 272.154 30.2188 272.436 30.6289 272.801C31.0391 273.156 31.349 273.589 31.5586 274.1C31.7773 274.601 31.8867 275.152 31.8867 275.754C31.8867 276.255 31.7865 276.766 31.5859 277.285C31.3945 277.796 31.1029 278.26 30.7109 278.68C30.319 279.099 29.8359 279.441 29.2617 279.705C28.6966 279.96 28.0404 280.088 27.293 280.088H24.4082ZM39.9941 280.197C39.9941 281.245 40.1947 282.362 40.5957 283.547C40.9967 284.732 41.6257 285.83 42.4824 286.842C43.3483 287.844 44.4421 288.678 45.7637 289.344C47.0944 290.009 48.6803 290.342 50.5215 290.342C51.7702 290.342 52.9049 290.187 53.9258 289.877C54.9466 289.567 55.8626 289.152 56.6738 288.633C57.485 288.104 58.1868 287.503 58.7793 286.828C59.3809 286.145 59.873 285.424 60.2559 284.668C60.6387 283.911 60.9258 283.15 61.1172 282.385C61.3177 281.619 61.418 280.89 61.418 280.197C61.418 279.149 61.2038 278.033 60.7754 276.848C60.347 275.663 59.6816 274.569 58.7793 273.566C57.8861 272.555 56.7513 271.721 55.375 271.064C54.0078 270.399 52.39 270.066 50.5215 270.066C48.6712 270.066 47.0853 270.395 45.7637 271.051C44.4421 271.698 43.3483 272.523 42.4824 273.525C41.6257 274.519 40.9967 275.613 40.5957 276.807C40.1947 278.001 39.9941 279.131 39.9941 280.197ZM42.7422 280.197C42.7422 278.894 42.9427 277.695 43.3438 276.602C43.7448 275.508 44.2962 274.569 44.998 273.785C45.6999 273.001 46.5247 272.391 47.4727 271.953C48.4297 271.516 49.4688 271.297 50.5898 271.297C51.6927 271.297 52.7318 271.516 53.707 271.953C54.6823 272.391 55.5391 273.001 56.2773 273.785C57.0156 274.569 57.599 275.508 58.0273 276.602C58.4557 277.695 58.6699 278.894 58.6699 280.197C58.6699 281.501 58.4557 282.699 58.0273 283.793C57.599 284.887 57.0156 285.826 56.2773 286.609C55.5391 287.393 54.6777 288.004 53.6934 288.441C52.7181 288.879 51.6836 289.098 50.5898 289.098C49.4688 289.098 48.4297 288.879 47.4727 288.441C46.5247 288.004 45.6999 287.393 44.998 286.609C44.2962 285.826 43.7448 284.887 43.3438 283.793C42.9427 282.699 42.7422 281.501 42.7422 280.197ZM66.1895 290H68.7324V280.252H77.4141V278.967H68.7324V271.939H78.8359V270.395H66.1895V290ZM83.0332 290H95.6797V288.455H85.5762V280.252H94.2578V278.967H85.5762V271.939H95.6797V270.395H83.0332V290ZM97.5527 285.051C97.5892 285.853 97.7988 286.582 98.1816 287.238C98.5645 287.885 99.084 288.437 99.7402 288.893C100.406 289.348 101.185 289.704 102.078 289.959C102.98 290.214 103.965 290.342 105.031 290.342C106.116 290.342 107.091 290.21 107.957 289.945C108.823 289.681 109.561 289.307 110.172 288.824C110.792 288.341 111.27 287.753 111.607 287.061C111.945 286.368 112.113 285.602 112.113 284.764C112.113 283.606 111.822 282.658 111.238 281.92C110.664 281.182 109.939 280.566 109.064 280.074C108.199 279.582 107.255 279.167 106.234 278.83C105.223 278.493 104.284 278.137 103.418 277.764C102.552 277.39 101.827 276.962 101.244 276.479C100.67 275.995 100.383 275.353 100.383 274.551C100.383 274.104 100.479 273.685 100.67 273.293C100.87 272.892 101.162 272.55 101.545 272.268C101.928 271.976 102.397 271.743 102.953 271.57C103.509 271.388 104.152 271.297 104.881 271.297C106.093 271.297 107.123 271.557 107.971 272.076C108.827 272.587 109.329 273.389 109.475 274.482H111.375C111.266 273.79 111.015 273.17 110.623 272.623C110.231 272.076 109.734 271.611 109.133 271.229C108.54 270.846 107.866 270.559 107.109 270.367C106.353 270.167 105.564 270.066 104.744 270.066C103.887 270.066 103.072 270.18 102.297 270.408C101.522 270.627 100.839 270.951 100.246 271.379C99.6628 271.807 99.1979 272.35 98.8516 273.006C98.5052 273.662 98.332 274.41 98.332 275.248C98.332 276.351 98.61 277.24 99.166 277.914C99.7311 278.579 100.438 279.135 101.285 279.582C102.133 280.029 103.049 280.411 104.033 280.73C105.027 281.049 105.947 281.41 106.795 281.811C107.652 282.212 108.358 282.704 108.914 283.287C109.479 283.861 109.762 284.632 109.762 285.598C109.762 286.81 109.315 287.699 108.422 288.264C107.538 288.82 106.357 289.098 104.881 289.098C103.705 289.098 102.762 288.947 102.051 288.646C101.349 288.337 100.811 287.967 100.438 287.539C100.064 287.111 99.8086 286.669 99.6719 286.213C99.5443 285.748 99.4714 285.361 99.4531 285.051H97.5527ZM115.053 285.051C115.089 285.853 115.299 286.582 115.682 287.238C116.064 287.885 116.584 288.437 117.24 288.893C117.906 289.348 118.685 289.704 119.578 289.959C120.48 290.214 121.465 290.342 122.531 290.342C123.616 290.342 124.591 290.21 125.457 289.945C126.323 289.681 127.061 289.307 127.672 288.824C128.292 288.341 128.77 287.753 129.107 287.061C129.445 286.368 129.613 285.602 129.613 284.764C129.613 283.606 129.322 282.658 128.738 281.92C128.164 281.182 127.439 280.566 126.564 280.074C125.699 279.582 124.755 279.167 123.734 278.83C122.723 278.493 121.784 278.137 120.918 277.764C120.052 277.39 119.327 276.962 118.744 276.479C118.17 275.995 117.883 275.353 117.883 274.551C117.883 274.104 117.979 273.685 118.17 273.293C118.37 272.892 118.662 272.55 119.045 272.268C119.428 271.976 119.897 271.743 120.453 271.57C121.009 271.388 121.652 271.297 122.381 271.297C123.593 271.297 124.623 271.557 125.471 272.076C126.327 272.587 126.829 273.389 126.975 274.482H128.875C128.766 273.79 128.515 273.17 128.123 272.623C127.731 272.076 127.234 271.611 126.633 271.229C126.04 270.846 125.366 270.559 124.609 270.367C123.853 270.167 123.064 270.066 122.244 270.066C121.387 270.066 120.572 270.18 119.797 270.408C119.022 270.627 118.339 270.951 117.746 271.379C117.163 271.807 116.698 272.35 116.352 273.006C116.005 273.662 115.832 274.41 115.832 275.248C115.832 276.351 116.11 277.24 116.666 277.914C117.231 278.579 117.938 279.135 118.785 279.582C119.633 280.029 120.549 280.411 121.533 280.73C122.527 281.049 123.447 281.41 124.295 281.811C125.152 282.212 125.858 282.704 126.414 283.287C126.979 283.861 127.262 284.632 127.262 285.598C127.262 286.81 126.815 287.699 125.922 288.264C125.038 288.82 123.857 289.098 122.381 289.098C121.205 289.098 120.262 288.947 119.551 288.646C118.849 288.337 118.311 287.967 117.938 287.539C117.564 287.111 117.309 286.669 117.172 286.213C117.044 285.748 116.971 285.361 116.953 285.051H115.053ZM135.998 290H138.541V270.395H135.998V290ZM144.42 280.197C144.42 281.245 144.62 282.362 145.021 283.547C145.423 284.732 146.051 285.83 146.908 286.842C147.774 287.844 148.868 288.678 150.189 289.344C151.52 290.009 153.106 290.342 154.947 290.342C156.196 290.342 157.331 290.187 158.352 289.877C159.372 289.567 160.288 289.152 161.1 288.633C161.911 288.104 162.613 287.503 163.205 286.828C163.807 286.145 164.299 285.424 164.682 284.668C165.064 283.911 165.352 283.15 165.543 282.385C165.743 281.619 165.844 280.89 165.844 280.197C165.844 279.149 165.63 278.033 165.201 276.848C164.773 275.663 164.107 274.569 163.205 273.566C162.312 272.555 161.177 271.721 159.801 271.064C158.434 270.399 156.816 270.066 154.947 270.066C153.097 270.066 151.511 270.395 150.189 271.051C148.868 271.698 147.774 272.523 146.908 273.525C146.051 274.519 145.423 275.613 145.021 276.807C144.62 278.001 144.42 279.131 144.42 280.197ZM147.168 280.197C147.168 278.894 147.368 277.695 147.77 276.602C148.171 275.508 148.722 274.569 149.424 273.785C150.126 273.001 150.951 272.391 151.898 271.953C152.855 271.516 153.895 271.297 155.016 271.297C156.118 271.297 157.158 271.516 158.133 271.953C159.108 272.391 159.965 273.001 160.703 273.785C161.441 274.569 162.025 275.508 162.453 276.602C162.882 277.695 163.096 278.894 163.096 280.197C163.096 281.501 162.882 282.699 162.453 283.793C162.025 284.887 161.441 285.826 160.703 286.609C159.965 287.393 159.104 288.004 158.119 288.441C157.144 288.879 156.109 289.098 155.016 289.098C153.895 289.098 152.855 288.879 151.898 288.441C150.951 288.004 150.126 287.393 149.424 286.609C148.722 285.826 148.171 284.887 147.77 283.793C147.368 282.699 147.168 281.501 147.168 280.197ZM170.615 290H171.9V275.016H172.01L187.555 290.342H187.691V270.395H186.406V285.379H186.297L170.752 270.066H170.615V290ZM191.875 290H193.174L195.635 284.23H205.287L207.98 290H210.701L201.568 270.395H200.174L191.875 290ZM196.168 282.973L200.201 273.539H200.311L204.699 282.973H196.168ZM214.912 290V270.395H217.455V288.455H227.559V290H214.912ZM239.576 280.006C239.576 281.309 239.786 282.585 240.205 283.834C240.633 285.074 241.285 286.176 242.16 287.143C243.035 288.1 244.152 288.874 245.51 289.467C246.877 290.05 248.504 290.342 250.391 290.342C251.585 290.342 252.651 290.228 253.59 290C254.538 289.772 255.358 289.499 256.051 289.18C256.753 288.852 257.336 288.501 257.801 288.127C258.275 287.753 258.63 287.425 258.867 287.143L258.033 286.391C256.137 288.177 253.891 289.07 251.293 289.07C251.284 289.07 251.27 289.07 251.252 289.07C249.794 289.07 248.504 288.82 247.383 288.318C246.271 287.817 245.341 287.147 244.594 286.309C243.846 285.47 243.281 284.499 242.898 283.396C242.516 282.294 242.324 281.145 242.324 279.951C242.324 278.684 242.525 277.522 242.926 276.465C243.327 275.408 243.892 274.496 244.621 273.73C245.35 272.965 246.212 272.368 247.205 271.939C248.208 271.511 249.297 271.297 250.473 271.297C251.275 271.297 252.008 271.393 252.674 271.584C253.339 271.766 253.927 272.008 254.438 272.309C254.948 272.6 255.367 272.938 255.695 273.32C256.023 273.703 256.251 274.09 256.379 274.482H258.457C258.174 273.844 257.814 273.257 257.377 272.719C256.939 272.181 256.393 271.716 255.736 271.324C255.08 270.932 254.314 270.627 253.439 270.408C252.564 270.18 251.566 270.066 250.445 270.066C248.823 270.066 247.342 270.299 246.002 270.764C244.671 271.229 243.527 271.898 242.57 272.773C241.622 273.639 240.884 274.683 240.355 275.904C239.836 277.126 239.576 278.493 239.576 280.006ZM260.822 280.197C260.822 281.245 261.023 282.362 261.424 283.547C261.825 284.732 262.454 285.83 263.311 286.842C264.176 287.844 265.27 288.678 266.592 289.344C267.923 290.009 269.508 290.342 271.35 290.342C272.598 290.342 273.733 290.187 274.754 289.877C275.775 289.567 276.691 289.152 277.502 288.633C278.313 288.104 279.015 287.503 279.607 286.828C280.209 286.145 280.701 285.424 281.084 284.668C281.467 283.911 281.754 283.15 281.945 282.385C282.146 281.619 282.246 280.89 282.246 280.197C282.246 279.149 282.032 278.033 281.604 276.848C281.175 275.663 280.51 274.569 279.607 273.566C278.714 272.555 277.579 271.721 276.203 271.064C274.836 270.399 273.218 270.066 271.35 270.066C269.499 270.066 267.913 270.395 266.592 271.051C265.27 271.698 264.176 272.523 263.311 273.525C262.454 274.519 261.825 275.613 261.424 276.807C261.023 278.001 260.822 279.131 260.822 280.197ZM263.57 280.197C263.57 278.894 263.771 277.695 264.172 276.602C264.573 275.508 265.124 274.569 265.826 273.785C266.528 273.001 267.353 272.391 268.301 271.953C269.258 271.516 270.297 271.297 271.418 271.297C272.521 271.297 273.56 271.516 274.535 271.953C275.51 272.391 276.367 273.001 277.105 273.785C277.844 274.569 278.427 275.508 278.855 276.602C279.284 277.695 279.498 278.894 279.498 280.197C279.498 281.501 279.284 282.699 278.855 283.793C278.427 284.887 277.844 285.826 277.105 286.609C276.367 287.393 275.506 288.004 274.521 288.441C273.546 288.879 272.512 289.098 271.418 289.098C270.297 289.098 269.258 288.879 268.301 288.441C267.353 288.004 266.528 287.393 265.826 286.609C265.124 285.826 264.573 284.887 264.172 283.793C263.771 282.699 263.57 281.501 263.57 280.197ZM284.693 285.051C284.73 285.853 284.939 286.582 285.322 287.238C285.705 287.885 286.225 288.437 286.881 288.893C287.546 289.348 288.326 289.704 289.219 289.959C290.121 290.214 291.105 290.342 292.172 290.342C293.257 290.342 294.232 290.21 295.098 289.945C295.964 289.681 296.702 289.307 297.312 288.824C297.932 288.341 298.411 287.753 298.748 287.061C299.085 286.368 299.254 285.602 299.254 284.764C299.254 283.606 298.962 282.658 298.379 281.92C297.805 281.182 297.08 280.566 296.205 280.074C295.339 279.582 294.396 279.167 293.375 278.83C292.363 278.493 291.424 278.137 290.559 277.764C289.693 277.39 288.968 276.962 288.385 276.479C287.811 275.995 287.523 275.353 287.523 274.551C287.523 274.104 287.619 273.685 287.811 273.293C288.011 272.892 288.303 272.55 288.686 272.268C289.068 271.976 289.538 271.743 290.094 271.57C290.65 271.388 291.292 271.297 292.021 271.297C293.234 271.297 294.264 271.557 295.111 272.076C295.968 272.587 296.469 273.389 296.615 274.482H298.516C298.406 273.79 298.156 273.17 297.764 272.623C297.372 272.076 296.875 271.611 296.273 271.229C295.681 270.846 295.007 270.559 294.25 270.367C293.493 270.167 292.705 270.066 291.885 270.066C291.028 270.066 290.212 270.18 289.438 270.408C288.663 270.627 287.979 270.951 287.387 271.379C286.803 271.807 286.339 272.35 285.992 273.006C285.646 273.662 285.473 274.41 285.473 275.248C285.473 276.351 285.751 277.24 286.307 277.914C286.872 278.579 287.578 279.135 288.426 279.582C289.273 280.029 290.189 280.411 291.174 280.73C292.167 281.049 293.088 281.41 293.936 281.811C294.792 282.212 295.499 282.704 296.055 283.287C296.62 283.861 296.902 284.632 296.902 285.598C296.902 286.81 296.456 287.699 295.562 288.264C294.678 288.82 293.498 289.098 292.021 289.098C290.846 289.098 289.902 288.947 289.191 288.646C288.49 288.337 287.952 287.967 287.578 287.539C287.204 287.111 286.949 286.669 286.812 286.213C286.685 285.748 286.612 285.361 286.594 285.051H284.693ZM304.518 290H305.748V274.018H305.857L314.512 290.342H315.018L323.863 274.127H323.973V290H326.516V270.395H324.588L315.523 287.225H315.4L306.418 270.395H304.518V290ZM333.256 290H345.902V288.455H335.799V280.252H344.48V278.967H335.799V271.939H345.902V270.395H333.256V290ZM347.297 271.939H354.803V290H357.346V271.939H364.852V270.395H347.297V271.939ZM369.896 290H372.439V270.395H369.896V290ZM378.318 280.006C378.318 281.309 378.528 282.585 378.947 283.834C379.376 285.074 380.027 286.176 380.902 287.143C381.777 288.1 382.894 288.874 384.252 289.467C385.619 290.05 387.246 290.342 389.133 290.342C390.327 290.342 391.393 290.228 392.332 290C393.28 289.772 394.1 289.499 394.793 289.18C395.495 288.852 396.078 288.501 396.543 288.127C397.017 287.753 397.372 287.425 397.609 287.143L396.775 286.391C394.88 288.177 392.633 289.07 390.035 289.07C390.026 289.07 390.012 289.07 389.994 289.07C388.536 289.07 387.246 288.82 386.125 288.318C385.013 287.817 384.083 287.147 383.336 286.309C382.589 285.47 382.023 284.499 381.641 283.396C381.258 282.294 381.066 281.145 381.066 279.951C381.066 278.684 381.267 277.522 381.668 276.465C382.069 275.408 382.634 274.496 383.363 273.73C384.092 272.965 384.954 272.368 385.947 271.939C386.95 271.511 388.039 271.297 389.215 271.297C390.017 271.297 390.751 271.393 391.416 271.584C392.081 271.766 392.669 272.008 393.18 272.309C393.69 272.6 394.109 272.938 394.438 273.32C394.766 273.703 394.993 274.09 395.121 274.482H397.199C396.917 273.844 396.557 273.257 396.119 272.719C395.682 272.181 395.135 271.716 394.479 271.324C393.822 270.932 393.057 270.627 392.182 270.408C391.307 270.18 390.309 270.066 389.188 270.066C387.565 270.066 386.084 270.299 384.744 270.764C383.413 271.229 382.27 271.898 381.312 272.773C380.365 273.639 379.626 274.683 379.098 275.904C378.578 277.126 378.318 278.493 378.318 280.006ZM399.209 285.051C399.245 285.853 399.455 286.582 399.838 287.238C400.221 287.885 400.74 288.437 401.396 288.893C402.062 289.348 402.841 289.704 403.734 289.959C404.637 290.214 405.621 290.342 406.688 290.342C407.772 290.342 408.747 290.21 409.613 289.945C410.479 289.681 411.217 289.307 411.828 288.824C412.448 288.341 412.926 287.753 413.264 287.061C413.601 286.368 413.77 285.602 413.77 284.764C413.77 283.606 413.478 282.658 412.895 281.92C412.32 281.182 411.596 280.566 410.721 280.074C409.855 279.582 408.911 279.167 407.891 278.83C406.879 278.493 405.94 278.137 405.074 277.764C404.208 277.39 403.484 276.962 402.9 276.479C402.326 275.995 402.039 275.353 402.039 274.551C402.039 274.104 402.135 273.685 402.326 273.293C402.527 272.892 402.818 272.55 403.201 272.268C403.584 271.976 404.053 271.743 404.609 271.57C405.165 271.388 405.808 271.297 406.537 271.297C407.749 271.297 408.779 271.557 409.627 272.076C410.484 272.587 410.985 273.389 411.131 274.482H413.031C412.922 273.79 412.671 273.17 412.279 272.623C411.887 272.076 411.391 271.611 410.789 271.229C410.197 270.846 409.522 270.559 408.766 270.367C408.009 270.167 407.221 270.066 406.4 270.066C405.544 270.066 404.728 270.18 403.953 270.408C403.178 270.627 402.495 270.951 401.902 271.379C401.319 271.807 400.854 272.35 400.508 273.006C400.161 273.662 399.988 274.41 399.988 275.248C399.988 276.351 400.266 277.24 400.822 277.914C401.387 278.579 402.094 279.135 402.941 279.582C403.789 280.029 404.705 280.411 405.689 280.73C406.683 281.049 407.604 281.41 408.451 281.811C409.308 282.212 410.014 282.704 410.57 283.287C411.135 283.861 411.418 284.632 411.418 285.598C411.418 286.81 410.971 287.699 410.078 288.264C409.194 288.82 408.014 289.098 406.537 289.098C405.361 289.098 404.418 288.947 403.707 288.646C403.005 288.337 402.467 287.967 402.094 287.539C401.72 287.111 401.465 286.669 401.328 286.213C401.201 285.748 401.128 285.361 401.109 285.051H399.209Z" fill="black" fill-opacity="0.5"/>
<path fill-rule="evenodd" clip-rule="evenodd" d="M571.112 0.787201C566.997 1.8601 561.93 4.3111 560.663 5.8417C560.2 6.4013 561.786 5.8828 564.186 4.6895C569.847 1.8763 576.798 1.6218 581.486 4.0559C583.168 4.9301 584.782 6.0302 585.073 6.5017C585.4 7.0327 585.284 7.1625 584.768 6.842C583.111 5.8153 576.16 5.1222 572.941 5.6627L569.649 6.2157L572.787 6.3074C581.279 6.556 587.214 14.2962 589.776 28.4667C590.212 30.8744 591.024 38.0322 591.582 44.3738C593.129 61.9656 595.319 71.1373 600.513 81.7656C603.673 88.235 610.893 96.29 616.697 99.826C627.258 106.258 640.93 108.303 649.853 104.786C657.077 101.938 662.563 95.79 664.024 88.905L664.492 86.7049L662.915 89.061C662.015 90.408 659.619 92.262 657.325 93.387C653.961 95.037 652.339 95.356 647.322 95.353C639.727 95.349 634.437 93.41 629.116 88.682C625.532 85.497 625.383 85.431 627.138 87.805C630.095 91.806 636.297 95.703 641.895 97.076C647.884 98.545 647.954 99.033 642.036 98.068C636.494 97.163 626.941 92.537 622.57 88.64C616.778 83.478 611.987 74.8622 609.488 65.1199C608.567 61.527 605.869 46.2476 605.862 44.5785C605.859 43.9969 607.029 45.482 608.461 47.8787C612.044 53.8763 617.113 58.859 622.249 61.4354C630.13 65.3876 640.355 63.9795 643.783 58.4695L644.924 56.6361L643.128 58.2371C640.582 60.5084 637.805 61.4031 633.3 61.4031C625.658 61.4031 617.852 56.045 613.817 48.0298C612.637 45.6873 610.518 39.4044 609.109 34.069C605.785 21.4856 602.633 14.8492 597.338 9.2827C589.958 1.525 580.29 -1.6066 571.112 0.787201ZM532.98 14.3248C531.882 21.3198 528.937 27.1422 523.979 32.1189C518.126 37.9934 512.949 40.2273 494.41 44.8769C471.288 50.6766 462.572 55.3878 458.625 64.2222C456.3 69.4256 456.487 76.2688 459.076 80.6992C461.585 84.991 462.354 85.2213 460.152 81.0212C458.957 78.7389 458.512 76.6135 458.492 73.0837C458.458 67.056 460.256 64.0594 466.396 59.9114C471.887 56.2012 479.468 53.8287 491.778 51.9673C501.931 50.4316 509.845 48.3327 514.576 45.9191C516.069 45.1578 517.55 44.5513 517.868 44.5711C519.434 44.6687 507.339 50.1507 499.863 52.7308C484.206 58.1358 475.453 64.154 471.493 72.2396C469.791 75.7144 469.449 77.3308 469.509 81.6255C469.594 87.719 471.756 95.438 475.418 102.729C477.597 107.067 482.856 115.674 483.328 115.674C483.41 115.674 481.888 112.456 479.945 108.523C475.243 99.01 473.953 93.667 474.321 85.2352C474.565 79.6468 474.93 78.0224 476.568 75.2186C478.826 71.3559 482.503 67.9126 486.618 65.8078C490.534 63.8049 490.77 63.9531 487.812 66.5573C484.32 69.6317 480.879 75.2392 479.235 80.5379C476.249 90.155 478.33 102.834 485.099 116.277C487.616 121.277 495.058 132.528 498.281 136.209C500.167 138.361 500.004 137.902 497.273 133.368C495.48 130.395 492.945 125.115 491.638 121.634C489.431 115.76 489.258 114.649 489.224 106.126C489.188 97.17 489.246 96.825 491.626 91.977C493.388 88.387 495.088 86.1967 497.758 84.0816C501.604 81.0329 503.328 79.1144 504.888 76.1464C505.617 74.7581 505.287 74.9143 503.32 76.8863C501.949 78.2607 498.441 80.4418 495.525 81.7333L490.222 84.0816L491.899 80.9933C494.412 76.3627 504.537 66.5691 510.909 62.6036C514.005 60.677 519.248 57.9547 522.56 56.5539C530.161 53.3402 537.637 48.3803 541.481 44.0013C545.411 39.5254 549.448 31.1685 549.903 26.5672C550.176 23.8097 550.104 23.3843 549.614 24.8533C548.779 27.3556 544.989 34.3558 544.652 34.0184C544.51 33.8769 545.03 32.3074 545.807 30.5312C546.583 28.7542 547.409 25.6505 547.643 23.6337C548.092 19.7621 547.94 20.0283 545.751 26.9339C542.757 36.3807 530.176 46.2381 513.018 52.5804C504.973 55.5551 503.911 55.3842 511.04 52.2629C520.979 47.9132 526.835 43.0574 530.675 35.9824C534.341 29.2294 535.871 18.684 534.269 11.2116C533.888 9.436 533.661 9.9853 532.98 14.3248ZM550.38 21.0668C550.38 22.0752 550.546 22.4881 550.749 21.9835C550.952 21.4797 550.952 20.6546 550.749 20.1501C550.546 19.6462 550.38 20.0584 550.38 21.0668ZM567.454 23.9131C565.845 24.6538 563.902 25.9666 563.135 26.8305L561.742 28.4007H564.307C567.943 28.4007 571.526 31.0665 573.672 35.3686C575.408 38.8492 575.523 39.8701 575.953 55.536C576.432 73.0148 576.914 75.8589 580.486 82.2665C583.086 86.9315 581.159 85.7391 574.44 78.5247C567.983 71.5935 565.608 68.1876 562.113 60.8486C559.517 55.3974 559.408 54.8547 559.408 47.3411C559.408 43.0354 559.18 39.92 558.901 40.4187C557.277 43.3156 555.378 52.8826 555.319 58.4549L555.253 64.7033L553.891 59.5696C553.141 56.7461 552.316 51.9607 552.056 48.9355C551.641 44.0974 551.86 41.2342 553.513 29.8674C553.718 28.4557 553.401 29.1157 552.808 31.3342C550.674 39.3252 549.937 49.842 550.917 58.3331C553.147 77.6447 561.701 93.072 578.05 107.266C601.543 127.665 615.918 157.584 611.426 176.735C608.691 188.399 603.387 194.982 589.297 204.205C587.314 205.502 593.066 203.143 598.176 200.562C608.354 195.422 617.326 187.939 622.073 180.631C633.823 162.541 627.377 141.939 602.43 117.856C597.677 113.267 594.281 109.798 594.885 110.147C599.513 112.824 613.811 123.131 618.263 127C639.428 145.391 644.253 163.562 632.218 179.558C630.213 182.223 626.753 185.81 624.529 187.53C617.123 193.259 620.265 191.818 631.824 184.185C643.388 176.548 651.213 168.669 655.334 160.512C657.197 156.827 657.424 155.618 657.425 149.41C657.426 142.846 657.278 142.17 654.883 137.74C649.527 127.833 640.409 120.645 618.904 109.378C606.303 102.775 600.57 99.395 604.028 100.604C606.443 101.449 618.548 103.919 620.121 103.887C620.925 103.872 619.234 103.241 616.362 102.487C609.426 100.663 604.261 97.954 599.792 93.794C592.92 87.397 588.497 78.6883 586.868 68.3475C586.234 64.319 586.197 64.5544 586.414 71.3038C586.58 76.4984 587.087 79.7744 588.154 82.5334C590.27 88.012 588.328 86.0478 585.46 79.8096C581.931 72.1355 580.872 65.7587 581.13 53.7458C581.405 40.9717 580.216 36.3902 575.365 31.5264C572.107 28.2599 571.979 27.8558 574.635 29.2235C579.217 31.5843 582.22 35.9612 583.63 42.335L584.521 46.3687L584.583 40.4106C584.651 33.8395 583.376 29.1231 580.779 26.3347C577.095 22.3781 572.573 21.5567 567.454 23.9131ZM638.781 36.6513C641.807 41.6273 640.009 50.5761 635.308 53.9313C632.744 55.7626 627.632 57.1729 625.931 56.5187C625.058 56.1828 624.803 56.2936 625.152 56.8583C625.972 58.1887 631.443 59.3687 634.318 58.834C644.848 56.8781 648.697 44.4626 641.127 36.872C637.886 33.6224 636.882 33.5278 638.781 36.6513ZM650.308 47.4878C651.207 60.0925 644.321 68.0036 632.449 68.0036C628.5 68.0036 626.528 67.6024 623.89 66.264C622.005 65.3069 620.823 64.9607 621.266 65.4947C623.249 67.8914 629.542 70.2037 634.079 70.2037C642.293 70.2037 650.545 63.9897 651.666 56.958C652.351 52.6596 653.654 54.2958 653.089 58.7468C652.092 66.6182 647.771 72.5278 641.267 74.9172C638.464 75.9469 638.451 75.9681 640.602 76.0121C646.078 76.1229 653.747 70.324 655.61 64.6623C657.518 58.8692 655.535 49.5721 651.207 44.013C649.984 42.4428 649.956 42.5528 650.308 47.4878ZM659.751 62.5032C661.298 68.3864 659.815 75.0272 655.92 79.6593C650.131 86.5436 637.149 87.642 630.92 81.7751C627.775 78.8122 629.274 81.8323 632.608 85.1751C639.989 92.575 651.184 92.366 658.614 84.6889C664.409 78.7022 665.166 68.6849 660.334 61.9267C659.192 60.3309 659.183 60.3404 659.751 62.5032ZM519.177 63.1544C516.61 64.2772 512.104 69.0743 510.357 72.5432C509.183 74.8732 509.241 74.8483 511.786 71.9118C513.316 70.1473 515.793 68.3336 517.64 67.6259C520.833 66.4033 520.868 66.4077 528.54 69.0362C532.773 70.4868 538.436 72.6628 541.124 73.8721C543.813 75.0815 546.104 76.0708 546.215 76.0708C546.814 76.0708 544.981 68.9922 544.173 68.1818C543.311 67.3186 524.257 62.0961 522.219 62.1651C521.753 62.1812 520.384 62.6256 519.177 63.1544ZM495.348 88.482C491.495 92.346 493.05 99.087 500.269 109.807C502.306 112.832 504.643 116.627 505.462 118.241C507.597 122.444 509.463 123.91 512.307 123.619L514.696 123.374L517.033 132.725C518.319 137.867 519.063 142.076 518.687 142.076C518.31 142.076 515.108 139.188 511.569 135.659C504.752 128.858 501.736 123.845 500.817 117.787C499.828 111.27 499.021 112.337 499.225 119.891C499.336 124.026 499.359 127.409 499.275 127.409C499.192 127.408 498.282 125.969 497.254 124.21C494.747 119.92 493.269 115.383 492.538 109.729L491.933 105.04L491.851 108.707C491.613 119.325 495.824 127.904 508.769 143.176C515.108 150.653 518.446 157.226 518.446 162.228C518.446 167.902 516.513 170.011 507.222 174.479C493.029 181.304 487.372 186.531 485.75 194.316C485.091 197.482 485.163 198.925 486.145 202.303C487.423 206.695 492.925 215.678 493.949 215.043C494.285 214.834 495.236 215.614 496.061 216.775C496.886 217.937 498.384 219.429 499.391 220.09L501.22 221.292L499.41 217.877C495.794 211.058 497.668 202.7 504.127 196.85C507.408 193.878 507.202 193.569 503.091 195.291C493.549 199.289 489.669 205.591 492.898 211.852C493.531 213.079 493.898 214.235 493.714 214.42C493.53 214.605 492.517 213.025 491.465 210.908C488.023 203.981 489.248 197.443 494.905 192.555C497.846 190.013 504.66 186.906 511.553 184.963C515.311 183.904 519.51 182.566 520.883 181.991C522.256 181.416 523.508 180.945 523.664 180.945C524.057 180.945 523.32 185.821 521.616 194.497C519.791 203.788 516.423 210.377 510.408 216.423C502.925 223.947 493.533 228.474 482.238 230.004L476.752 230.747L484.432 230.445C498.679 229.884 509.718 225.394 518.519 216.581C523.101 211.993 524.42 209.979 529.708 199.484C537.738 183.554 542.971 177.927 555.43 171.832C559.438 169.871 566.741 164.217 566.098 163.572C565.916 163.39 564.362 163.961 562.643 164.84C560.244 166.067 558.629 166.364 555.687 166.119C550.966 165.727 546.454 163.109 535.937 154.662C527.812 148.136 523.898 144.047 521.717 139.806C519.683 135.853 514.423 121.206 514.423 119.498C514.423 118.667 512.737 116.351 510.621 114.272C507.069 110.786 506.289 108.974 509.566 111.823C510.733 112.838 510.669 112.594 509.258 110.657C506.087 106.304 505.619 105.114 506.036 102.473C506.297 100.826 506.066 99.39 505.391 98.467C502.674 94.746 500.55 102.941 503.206 106.893C503.877 107.89 506.327 110.722 508.652 113.185C512.901 117.686 514.516 121.008 513.13 122.397C511.862 123.668 509.756 122.736 508.215 120.221C507.405 118.898 504.623 114.612 502.034 110.695C492.636 96.482 491.555 89.177 498.546 87.15C500.46 86.5949 500.578 86.4585 499.188 86.4042C498.217 86.3668 496.568 87.259 495.348 88.482ZM497.869 94.154C496.958 96.342 496.904 97.444 497.579 100.132C498.564 104.052 500.001 106.991 501.574 108.3C502.612 109.163 502.616 109.004 501.622 106.62C501.018 105.172 500.486 102.903 500.438 101.579L500.351 99.173L499.869 101.373C499.469 103.198 499.297 103.344 498.859 102.229C498.077 100.243 498.218 94.521 499.087 92.89C499.504 92.11 499.652 91.472 499.416 91.472C499.18 91.472 498.484 92.679 497.869 94.154ZM470.028 108.523C461.825 117.19 463.637 128.886 475.172 141.709L477.811 144.643L475.671 140.593C474.494 138.365 473.328 135.064 473.08 133.259L472.629 129.975L474.055 132.977C474.839 134.629 478.024 138.754 481.133 142.145C487.05 148.6 490.269 154.132 490.269 157.843C490.269 161.303 487.115 167.224 482.716 172.022C477.744 177.445 476.375 180.025 475.87 184.933C475.154 191.892 479.158 201.184 486.319 209.181L489.603 212.847L487.456 209.181C480.942 198.054 481.541 188.58 489.186 181.833C490.928 180.295 495.066 177.573 498.381 175.784C509.826 169.608 514.924 163.026 513.069 156.82C512.007 153.264 506.78 148.293 500.672 145.028C495.613 142.325 490.466 138.088 487.967 134.57C487.079 133.32 485.78 130.289 485.079 127.835L483.805 123.374L483.753 126.727C483.677 131.645 485.43 135.973 489.861 141.805C496.54 150.595 498.271 155.183 496.872 160.391C496.036 163.503 491.972 168.669 489.25 170.078C487.978 170.736 488.046 170.517 489.661 168.756C493.168 164.932 494.667 161.712 494.67 157.997C494.674 153.34 493.02 150.343 486.292 142.809C478.361 133.929 477.01 128.315 481.062 121.083L482.656 118.241L478.972 113.334C476.946 110.635 474.989 108.508 474.622 108.606C473.464 108.918 469.587 116.458 468.581 120.358L467.613 124.108L467.915 119.435C468.123 116.211 468.878 113.424 470.348 110.451C471.52 108.079 472.435 106.14 472.382 106.14C472.328 106.14 471.269 107.213 470.028 108.523ZM549.533 112.373C548.588 113.382 548.182 114.207 548.631 114.207C549.08 114.207 549.65 113.877 549.899 113.474C550.148 113.07 551.195 112.74 552.226 112.74C553.81 112.74 553.96 112.569 553.191 111.64C551.96 110.154 551.533 110.239 549.533 112.373ZM559.847 111.551C559.184 112.353 559.355 112.638 560.672 112.924C561.587 113.122 562.992 113.545 563.797 113.864C565.091 114.375 565.055 114.216 563.487 112.491C561.461 110.262 561.011 110.145 559.847 111.551ZM647.917 117.372C652.541 120.541 657.935 126.31 659.918 130.208C662.046 134.39 661.831 134.808 659.198 131.605C657.96 130.099 655.41 127.832 653.529 126.566L650.111 124.264L653.51 127.852C658.527 133.15 660.182 136.929 660.538 143.909C660.767 148.386 660.488 150.906 659.36 154.543L657.882 159.31L660.788 156.01C672.564 142.635 674.19 131.513 665.488 123.853C661.377 120.235 654.065 116.962 646.454 115.335C644.519 114.921 644.691 115.162 647.917 117.372ZM583.235 120.441C587.928 126.877 594.403 140.188 595.924 146.523C597.556 153.324 597.425 162.819 595.62 168.584C593.892 174.1 592.302 176.86 593.145 172.878C593.956 169.046 593.622 159.747 592.543 156.121C591.605 152.972 591.593 153.016 591.589 159.788C591.586 165.898 591.353 167.103 589.457 170.865C587.097 175.544 580.924 181.865 575.866 184.777C574.056 185.819 568.131 188.58 562.7 190.912C549.025 196.783 543.534 200.172 536.667 206.98C529.959 213.632 526.613 219.52 525.309 226.965C523.705 236.127 527.277 246.473 534.687 254.133C537.748 257.296 538.258 257.643 536.775 255.556C535.696 254.038 533.952 250.91 532.899 248.604C529.586 241.348 529.838 229.985 533.473 222.726C537.624 214.436 549.063 205.337 557.945 203.259C559.677 202.854 559.179 203.396 555.58 205.833C543.862 213.765 537.046 228.16 539.19 240.445C541.385 253.025 549.191 261.685 569.146 273.673C575.826 277.687 582.047 283.748 584.369 288.507C587.029 293.959 587.183 301.518 584.73 306.248C582.569 310.414 584.038 309.484 586.647 305.033C588.489 301.891 588.667 300.941 588.667 294.253C588.667 288.232 588.374 286.264 587.025 283.253C585.428 279.685 585.425 279.636 586.919 281.412C589.61 284.612 592.073 290.3 592.48 294.254C593.054 299.83 591.2 304.731 586.61 309.765C582.359 314.429 582.908 314.532 591.007 310.595C596.315 308.014 601.878 302.807 603.762 298.654C605.631 294.536 605.561 286.98 603.607 282.011C601.84 277.516 597.076 270.278 592.137 264.584L588.667 260.582L593.422 264.196C605.441 273.331 610.461 280.997 610.461 290.215C610.461 295.997 608.578 300.643 604.632 304.6C601.406 307.834 602.295 307.787 606.28 304.513C613.474 298.603 615.67 287.387 611.445 278.137C609.917 274.791 607.281 271.565 600.069 264.216C586.31 250.195 581.949 242.148 582.61 232.004C583.018 225.748 585.418 220.184 589.957 214.977C592.944 211.549 592.968 211.483 590.628 213.137C584.196 217.684 579.5 226.825 579.556 234.694C579.6 240.888 581.191 244.946 586.661 252.817C587.569 254.123 586.885 253.776 584.278 251.607C579.29 247.457 577.846 245.807 574.903 240.896C570.05 232.799 569.86 224.354 574.338 215.624C577.179 210.083 578.723 208.402 585.722 203.226C601.466 191.584 608.051 181.103 608.051 167.69C608.051 164.407 607.538 159.695 606.91 157.216C604.316 146.971 595.048 131.81 584.603 120.729L579.493 115.307L583.235 120.441ZM555.568 124.98C556.272 125.164 557.424 125.164 558.128 124.98C558.833 124.796 558.256 124.645 556.848 124.645C555.44 124.645 554.864 124.796 555.568 124.98ZM544.501 129.238L540.566 130.856L547.061 131.425C555.207 132.138 558.49 132.138 566.66 131.423L573.18 130.853L569.586 129.392C566.797 128.258 564.025 127.896 557.214 127.775C549.615 127.64 547.908 127.837 544.501 129.238ZM551.362 139.483C554.158 140.833 559.501 140.844 562.334 139.506L564.529 138.469L562.334 138.989C559.472 139.667 553.316 139.655 550.996 138.966C549.613 138.555 549.702 138.682 551.362 139.483ZM483.437 150.666C484.021 153.826 483.349 156.179 481.094 158.866C478.102 162.43 474.414 162.981 468.706 160.716C467.385 160.192 467.344 160.261 468.286 161.422C472.103 166.121 479.659 165.762 483.636 160.693C485.455 158.374 485.671 152.949 484.057 150.143L483.002 148.309L483.437 150.666ZM576.049 155.835L570.746 160.041L570.73 163.709C570.701 170.237 566.011 177.389 558.476 182.394C553.649 185.599 555.448 185.128 563.802 181.001C576.738 174.611 583.181 167.004 583.181 158.126C583.181 153.913 582.698 151.601 581.823 151.62C581.564 151.625 578.966 153.522 576.049 155.835ZM648.843 179.902C648.151 183.752 644.864 188.272 640.635 191.189C636.105 194.315 633.447 195.346 624.388 197.492C620.131 198.5 615.99 199.678 615.187 200.109C614.124 200.68 613.864 200.67 614.231 200.075C614.508 199.625 617.257 197.776 620.339 195.968C627.78 191.601 626.221 191.796 617.78 196.29C605.435 202.859 596.961 210.722 592.425 219.813C589.19 226.296 588.088 231.632 588.428 239.16C588.772 246.767 591.121 252.073 596.558 257.523C605.231 266.22 615.768 268.607 624.852 263.933C628.726 261.94 631.434 256.576 631.39 250.984C631.371 248.563 631.058 245.923 630.693 245.117C630.216 244.062 630.148 244.409 630.451 246.352C631.937 255.897 621.674 261.687 611.526 257.029C606.666 254.798 602.052 250.117 599.421 244.75C597.612 241.058 597.448 240.002 597.481 232.282C597.513 224.523 597.707 223.365 599.906 217.812C601.22 214.491 602.54 211.623 602.839 211.437C603.139 211.252 603.242 213.072 603.068 215.483C602.344 225.507 609.131 233.852 618.838 234.877L622.315 235.244L618.658 234.162C616.646 233.567 614.754 233.065 614.454 233.048C613.091 232.967 607.691 227.227 606.49 224.582C604.005 219.111 605.391 212.193 609.783 208.136C612.067 206.027 612.287 206.617 610.252 209.393C608.451 211.851 607.315 217.646 608.022 220.774C609.917 229.165 617.665 234.26 626.114 232.671C627.834 232.348 629.843 231.141 631.605 229.374C634.789 226.183 635.392 224.047 632.457 226.362C629.866 228.406 623.959 228.434 620.663 226.419C615.697 223.384 613.989 217.322 616.797 212.704C618.874 209.288 621.115 208.109 628.651 206.471C637.084 204.639 642.097 202.439 646.111 198.81C649.076 196.131 652.667 189.942 652.648 187.546C652.643 186.941 652.04 187.769 651.307 189.386C648.753 195.021 642.512 198.654 632.556 200.299C629.826 200.75 629.913 200.664 633.85 199.007C643.85 194.8 650.206 187.05 649.614 179.787L649.379 176.912L648.843 179.902ZM632.007 213.236C633.656 215.388 633.109 219.006 630.783 221.338C628.531 223.596 626.558 223.989 623.912 222.708C622.369 221.961 622.363 221.973 623.735 223.075C625.972 224.872 630.472 224.537 632.589 222.415C634.945 220.053 635.012 216.155 632.738 213.769C631.833 212.82 631.504 212.579 632.007 213.236ZM568.058 220.256C566.404 223.877 566.22 225.074 566.509 230.34C566.847 236.504 568.076 239.909 571.979 245.483C573.406 247.522 573.16 247.371 570.786 244.75C569.141 242.935 566.978 239.817 565.979 237.822C562.783 231.437 563.821 222.636 568.384 217.431C570.123 215.449 570.078 215.831 568.058 220.256ZM619.771 221.766C619.762 222.235 620.768 223.472 622.006 224.516C625.143 227.164 629.842 227.161 632.697 224.51L634.75 222.605L632.64 224.143C629.087 226.733 623.885 225.987 621.051 222.479C620.356 221.619 619.78 221.298 619.771 221.766ZM598.967 237.783C600.077 245.196 606.205 253.058 612.299 254.888C615.796 255.938 617.154 255.957 620.579 255.004C627.843 252.981 630.54 243.766 625.547 238.025C624.128 236.393 624.095 236.388 624.834 237.918C626.94 242.283 624.844 248.362 620.684 249.947C618.002 250.97 613.298 249.424 610.472 246.591C609.141 245.256 608.051 244.448 608.051 244.797C608.051 246.167 612.95 250.922 615.725 252.246L618.658 253.644L615.1 253.311C608.727 252.715 602.287 246.444 599.628 238.245L598.527 234.849L598.967 237.783ZM572.676 283.717C576.395 287.717 577.601 290.767 577.571 296.089C577.542 301.084 575.806 305.773 573.209 307.87C572.165 308.713 572.227 308.395 573.521 306.268C575.424 303.139 575.659 298.03 574.075 294.23C573.492 292.831 572.822 291.687 572.586 291.687C572.35 291.687 572.535 292.394 572.997 293.258C573.469 294.144 573.694 296.549 573.51 298.766C572.938 305.684 567.598 310.601 559.952 311.252C556.491 311.546 555.145 311.297 552.314 309.834C549.365 308.311 548.977 308.246 549.581 309.377C550.417 310.943 554.019 313.732 557.58 315.569C561.816 317.756 568.949 317.401 574.128 314.745C579.88 311.795 582.502 307.632 582.999 300.657C583.578 292.548 579.944 286.094 572.748 282.447L570.38 281.248L572.676 283.717Z" fill="#55721E"/>
<path d="M529.5 79.3585C539.1 77.3585 545.5 84.1918 547.5 88.358C546.667 87.525 544.2 86.4 541 84C535 81.1415 531.5 81.5 529.5 82C524.5 84 521.5 85.3585 520 85.3585C518.167 85.6918 514.5 84.8585 509 82.8585C517.5 84.3585 517.5 82.8585 529.5 79.3585Z" fill="#55721E"/>
<path d="M532 88.358C527 87.358 523 83 519 83C521 85.5 528.1 88.958 530.5 89.358C533.5 89.858 536.577 89.333 538 88.858C539.5 88.358 543 87.858 544.5 87.358C542.5 87.858 534.942 88.947 532 88.358Z" fill="#55721E"/>
<path fill-rule="evenodd" clip-rule="evenodd" d="M533 89.3579C535.761 89.3579 538 87.1199 538 84.3584C538 81.597 535.761 79.3584 533 79.3584C530.239 79.3584 528 81.597 528 84.3584C528 87.1199 530.239 89.3579 533 89.3579ZM533.5 86.3584C534.881 86.3584 536 85.2391 536 83.8584C536 82.4777 534.881 81.3584 533.5 81.3584C532.119 81.3584 531 82.4777 531 83.8584C531 85.2391 532.119 86.3584 533.5 86.3584Z" fill="#55721E"/>
<path d="M534.422 78.2563C530.289 77.0738 521.749 78.7882 517.995 79.7933C521.104 78.628 528.349 76.4752 532.455 77.1859C536.561 77.8965 541.944 80.1908 544.122 81.2492C542.6 80.5477 538.528 78.967 534.422 78.2563Z" fill="#55721E"/>
<path fill-rule="evenodd" clip-rule="evenodd" d="M534.272 75.5126C534.477 76.2296 534.573 77.5515 534.561 79.5409C534.554 80.8272 534.74 81.742 534.974 81.571C535.039 81.5241 534.88 80.3649 534.706 79.607C534.651 79.3702 534.678 79.2647 534.78 79.3198C534.867 79.3676 534.977 79.7708 535.023 80.2159C535.106 81.0263 535.51 81.9563 535.649 81.661C535.691 81.5745 535.658 81.312 535.577 81.0779C535.364 80.4616 534.964 78.3737 535.045 78.3135C535.084 78.2854 535.194 78.6263 535.289 79.0709C535.385 79.5156 535.525 80.0155 535.602 80.1813C535.677 80.3473 535.737 80.6107 535.734 80.7669C535.732 80.9231 535.851 81.2469 535.998 81.4868C536.252 81.9004 536.279 81.9116 536.531 81.7019C536.677 81.5802 536.962 81.2554 537.166 80.98C537.573 80.4285 537.464 80.8731 537.046 81.4708C536.909 81.6667 536.834 81.8587 536.878 81.8974C537.017 82.0162 537.613 81.2007 537.845 80.5766C537.966 80.2513 538.136 79.8432 538.224 79.6694C538.37 79.3801 538.376 79.3856 538.284 79.7363C538.196 80.0735 538.208 80.09 538.384 79.8758C538.495 79.7419 538.729 79.3163 538.905 78.93C539.169 78.3497 539.204 78.3147 539.107 78.7281C539.042 79.0037 538.836 79.5753 538.647 79.9986C538.458 80.4221 538.234 80.9252 538.149 81.1168C537.916 81.6426 538.247 81.5533 538.565 81.0048C538.846 80.5192 539.626 78.3726 539.839 77.4981C539.904 77.2277 539.99 77.0337 540.029 77.0668C540.222 77.2335 539.367 80.1792 538.872 81.0495C538.74 81.2821 538.753 81.2876 539.044 81.1208C539.305 80.9706 539.289 81.0242 538.95 81.4392L538.541 81.9385L538.919 81.6985C539.126 81.5666 539.409 81.2646 539.546 81.0275C539.684 80.7903 539.836 80.6307 539.886 80.6729C539.934 80.7152 539.885 80.8721 539.775 81.0217C539.665 81.1711 539.614 81.3271 539.662 81.3682C539.787 81.4762 540.129 80.7798 540.024 80.632C539.911 80.4745 540.885 78.4893 541.072 78.4964C541.223 78.502 541.072 79.187 540.763 79.9015C540.365 80.8231 540.016 81.3694 539.534 81.8286C539.139 82.2051 539.077 82.3352 539.234 82.461C539.387 82.5823 539.408 82.581 539.326 82.4551C539.254 82.3445 539.302 82.3198 539.472 82.3794C539.667 82.4477 539.68 82.5066 539.531 82.6382C539.295 82.8463 539.441 82.863 539.921 82.6824C540.247 82.5598 540.258 82.5667 540.05 82.7519C539.916 82.871 539.891 82.96 539.989 82.9642C540.083 82.9679 540.326 82.8004 540.53 82.5917C540.732 82.3834 540.937 82.2462 540.985 82.2871C541.032 82.3283 540.946 82.4631 540.792 82.5873C540.639 82.7108 540.512 82.8478 540.511 82.891C540.504 83.0523 541.4 82.6366 541.779 82.3028C542.08 82.0372 542.147 82.0157 542.064 82.2105C541.894 82.6157 542.559 81.9717 543.129 81.1784C543.689 80.3989 543.96 80.2192 543.78 80.746C543.71 80.949 543.643 81.2013 543.631 81.307C543.618 81.4131 543.444 81.667 543.244 81.8714C543.043 82.076 542.741 82.4119 542.573 82.6178C542.284 82.9727 542.297 82.9693 542.825 82.5563C543.132 82.3165 543.556 81.9568 543.769 81.7565L544.156 81.393L543.847 81.8161C543.678 82.0487 543.231 82.4947 542.855 82.807C541.742 83.7306 541.702 84.14 542.786 83.5045L543.339 83.1803L542.751 83.6563L542.164 84.1321L542.66 83.916L543.156 83.7001L542.749 84.0245C542.387 84.3136 542.374 84.3501 542.64 84.361C542.805 84.3676 542.893 84.4064 542.837 84.4473C542.781 84.4879 542.82 84.5996 542.922 84.6952C543.155 84.9141 543.972 84.7077 544.839 84.2106C545.631 83.7565 545.834 83.6792 545.828 83.8336C545.825 83.906 545.37 84.2388 544.816 84.5735C544.081 85.0172 543.897 85.1854 544.131 85.195C544.309 85.2021 544.504 85.1499 544.564 85.0784C544.624 85.0071 544.806 84.9877 544.968 85.0355C545.129 85.0834 545.311 85.0643 545.37 84.9935C545.43 84.9225 545.622 84.8104 545.796 84.7447C546.05 84.6488 546.093 84.6622 546.013 84.8115C545.958 84.9141 545.519 85.1562 545.034 85.35C544.551 85.5435 544.116 85.7496 544.066 85.808C543.942 85.954 545.204 85.9147 545.614 85.7598C545.796 85.6909 545.977 85.6623 546.016 85.6962C546.154 85.8143 544.75 86.1227 544.181 86.0994C543.687 86.0793 543.45 85.9423 542.48 85.1145C539.792 82.8235 537.236 81.9269 532.928 81.7656C531.92 81.7279 531.528 81.7562 531.359 81.8792C531.296 81.926 531.028 81.9555 530.767 81.9448C529.801 81.9055 526.238 82.6701 526.227 82.9191C526.225 82.9739 525.878 83.0733 525.458 83.1399C525.03 83.2075 524.358 83.4607 523.934 83.7144C522.832 84.3723 522.273 84.4852 520.445 84.419C519.039 84.368 518.814 84.329 518.62 84.1018C518.424 83.8719 518.324 83.9009 518.364 84.1759C518.371 84.227 518.265 84.2288 518.126 84.1805C517.948 84.1184 517.932 84.0674 518.068 84.0073C518.202 83.948 518.181 83.8938 517.994 83.829C517.627 83.7004 517.558 83.7074 517.668 83.862C517.796 84.0412 517.672 84.0249 517.017 83.7779C516.427 83.5547 516.252 83.3452 516.79 83.5041C516.978 83.56 517.113 83.5405 517.116 83.4572C517.121 83.3562 517.223 83.3628 517.47 83.4798C517.853 83.6616 519.571 84.0752 519.663 84.0081C519.696 83.9847 519.518 83.8622 519.27 83.7358C518.864 83.5292 518.986 83.5425 519.7 83.7826C519.894 83.848 519.903 83.8286 519.745 83.682C519.638 83.5823 519.302 83.4961 518.997 83.4908C518.571 83.4831 518.328 83.3763 517.929 83.0217C517.646 82.7692 517.319 82.5588 517.202 82.5542C517.086 82.5494 516.994 82.4805 516.997 82.401C517 82.3132 517.142 82.3436 517.359 82.4791C518.168 82.9849 518.317 82.9879 517.761 82.4877C517.436 82.1956 517.229 81.9096 517.3 81.8524C517.371 81.7954 517.345 81.7827 517.242 81.8246C517.011 81.9182 516.745 81.6489 516.765 81.3403C516.777 81.142 516.833 81.155 517.185 81.4403C517.702 81.859 519.019 82.5634 519.831 82.8554L520.459 83.0814L520.087 82.8043C519.883 82.6519 519.762 82.5291 519.82 82.5314C519.877 82.5339 519.55 82.2505 519.092 81.9019C518.634 81.5535 518.165 81.1138 518.05 80.925C517.919 80.71 518.194 80.8803 518.785 81.3811C519.886 82.3113 520.119 82.4439 520.482 82.3492C520.725 82.2858 520.724 82.2536 520.47 81.9939C520.19 81.7085 520.19 81.7085 520.539 81.9635C520.73 82.1039 520.869 82.2764 520.847 82.3468C520.826 82.4172 520.908 82.5082 521.03 82.5492C521.166 82.5945 521.211 82.5652 521.145 82.4733C521.004 82.2749 521.266 82.2908 521.503 82.4945C521.604 82.5826 521.734 82.6211 521.79 82.58C521.847 82.5388 521.606 82.3468 521.256 82.1532C520.906 81.9594 520.567 81.724 520.504 81.6299C520.439 81.5337 520.521 81.5545 520.691 81.6771C520.858 81.797 521.137 81.9421 521.31 81.9995C521.598 82.0942 521.595 82.0737 521.269 81.7758L520.913 81.4478L521.32 81.4643C521.545 81.4734 521.854 81.6071 522.007 81.7612L522.286 82.0415L521.81 81.7816L521.334 81.5215L521.62 81.8014C521.84 82.0158 522.055 82.0766 522.54 82.0612C522.889 82.0498 523.217 82.1028 523.272 82.1783C523.412 82.3734 524.626 82.8505 525.012 82.8622C525.19 82.8676 524.904 82.7119 524.376 82.5162C523.779 82.2949 523.06 81.8736 522.475 81.4018C521.597 80.6965 521.587 80.6809 522.321 81.1811C523.421 81.9299 523.67 82.0281 523.111 81.4922C521.542 79.9869 520.696 78.7558 522.117 80.0465C523.243 81.0689 523.211 80.8852 522.061 79.7219C521.158 78.8088 520.374 77.9129 520.481 77.9173C520.52 77.919 521.041 78.4187 521.637 79.028C522.86 80.2745 524.423 81.6452 524.866 81.8566C525.117 81.9771 525.146 81.9582 525.062 81.7243C525.01 81.5741 525.035 81.4541 525.119 81.4576C525.329 81.466 525.643 81.807 525.522 81.8952C525.468 81.9344 525.646 82.0683 525.917 82.1928C526.527 82.4728 526.577 82.3735 525.977 82.072C525.548 81.8564 525.548 81.8538 525.942 81.941L526.345 82.03L525.949 81.7867C525.731 81.6527 525.231 81.2683 524.839 80.9324C524.447 80.5962 524.306 80.4503 524.527 80.6079C525.352 81.1953 526.176 81.6884 526.063 81.5282C525.999 81.4369 526.019 81.3654 526.109 81.3688C526.198 81.3724 526.313 81.4349 526.365 81.5076C526.417 81.5802 526.617 81.7076 526.809 81.7905C527.025 81.8836 526.978 81.8203 526.688 81.6251C526.429 81.4511 526.11 81.3044 525.979 81.2988C525.849 81.2933 525.611 81.0804 525.449 80.8259L525.154 80.3632L525.567 80.7668L525.98 81.1701L525.671 80.7065C525.501 80.4515 525.215 80.0918 525.036 79.9072C524.763 79.6254 524.723 79.6137 524.796 79.833C524.881 80.0925 524.88 80.0925 524.645 79.8307C524.515 79.6855 524.451 79.4871 524.504 79.3894C524.555 79.292 524.531 79.1423 524.448 79.057C524.367 78.9717 524.228 78.7269 524.142 78.513C523.997 78.1538 524.003 78.1444 524.213 78.3912C524.339 78.5382 524.497 78.7208 524.563 78.7972C524.629 78.8738 524.704 79.0176 524.727 79.1173C524.751 79.2169 524.9 79.4526 525.058 79.6413C525.482 80.1462 526.94 81.3496 526.946 81.1998C526.949 81.1291 526.593 80.7687 526.155 80.3989C525.716 80.0294 525.29 79.608 525.205 79.4628C525.12 79.3176 525.395 79.5028 525.817 79.8744C526.238 80.2461 526.789 80.7035 527.04 80.891L527.497 81.2318L527.206 80.8332C526.557 79.944 525.927 78.9116 525.764 78.4689C525.669 78.2107 525.526 77.9636 525.444 77.9199C525.363 77.8759 525.302 77.7421 525.307 77.6224C525.313 77.5027 525.659 77.9843 526.076 78.6927C526.862 80.0274 527.842 81.3105 528.084 81.3203C528.161 81.3234 527.964 80.9816 527.645 80.5612C526.942 79.6317 525.036 76.2619 525.048 75.9691C525.051 75.9038 525.468 76.5628 525.975 77.4331C526.482 78.3037 527.119 79.2255 527.393 79.4816C527.666 79.7379 527.748 79.8573 527.576 79.7469C527.265 79.5485 527.265 79.5502 527.549 79.9448C527.88 80.4061 529.187 81.4939 529.421 81.5035C529.509 81.507 529.464 81.3989 529.322 81.2633C529.179 81.1278 529.108 80.9834 529.164 80.943C529.219 80.9023 529.165 80.5858 529.042 80.2395C528.667 79.178 528.104 75.946 528.176 75.2649C528.218 74.8766 528.441 75.8274 528.507 76.6697C528.583 77.6334 528.796 78.6993 528.995 79.101C529.121 79.357 529.084 78.7538 528.928 78.035C528.894 77.874 528.931 77.745 529.01 77.7481C529.09 77.7513 529.191 78.002 529.236 78.3052C529.399 79.4085 529.664 80.1275 530.012 80.4126C530.208 80.5729 530.366 80.7908 530.361 80.8971C530.355 81.0686 530.337 81.068 530.205 80.8906C530.123 80.781 530.052 80.7572 530.047 80.8376C530.036 81.0237 530.647 81.6648 530.662 81.483C530.668 81.4087 530.61 81.2903 530.534 81.2199C530.458 81.1494 530.459 80.9784 530.538 80.8398C530.648 80.6456 530.682 80.6362 530.683 80.7992C530.687 81.0521 531.242 81.6727 531.377 81.5745C531.429 81.5366 531.268 81.1641 531.019 80.7466C530.769 80.3292 530.569 79.9191 530.572 79.8353C530.575 79.7518 530.756 79.98 530.974 80.3429C531.638 81.4481 531.765 81.5815 532.097 81.5266C532.369 81.4817 532.393 81.406 532.294 80.8922C532.232 80.5716 532.136 80.2387 532.081 80.1524C532.011 80.0458 532.032 80.0391 532.147 80.1316C532.239 80.2062 532.382 80.4732 532.466 80.7246C532.611 81.1604 532.616 81.1514 532.572 80.5356C532.493 79.4427 532.575 76.3121 532.674 76.6323C532.725 76.7981 532.76 77.3398 532.752 77.8357C532.732 79.0002 532.924 80.5668 533.123 80.8545C533.354 81.191 533.247 78.4188 532.92 75.651C532.879 75.302 532.906 75.1978 533.001 75.332C533.134 75.5159 533.307 76.4494 533.49 77.9622C533.613 78.9749 533.853 78.6695 533.835 77.5251C533.825 76.9399 533.882 76.1155 533.961 75.6932L534.104 74.9256L534.272 75.5126ZM523.295 76.7562C523.69 77.4182 523.974 77.9882 523.926 78.0234C523.878 78.0584 523.759 77.9329 523.66 77.745C523.563 77.5567 523.433 77.4244 523.373 77.451C523.254 77.5033 522.406 75.6778 522.513 75.6001C522.548 75.5742 522.901 76.0944 523.295 76.7562ZM534.146 79.4565L534.285 80.0896L534.243 79.2631C534.219 78.8086 534.197 78.1407 534.194 77.7786C534.19 77.1973 534.179 77.2196 534.098 77.9719C534.049 78.4399 534.07 79.1081 534.146 79.4565ZM533.805 80.4421C533.949 80.558 533.973 80.5173 533.906 80.2675C533.858 80.0882 533.811 79.7674 533.803 79.5544C533.794 79.292 533.761 79.3484 533.702 79.7289C533.651 80.0631 533.693 80.3521 533.805 80.4421ZM519.448 79.9459C520.041 80.4706 520.431 80.8781 520.315 80.8514C520.126 80.8077 519.305 80.0941 518.517 79.2878C517.922 78.6798 518.399 79.0166 519.448 79.9459ZM523.657 79.8317L523.951 80.1853L523.583 79.8841C523.381 79.7182 523.249 79.559 523.29 79.5303C523.331 79.5014 523.496 79.6369 523.657 79.8317ZM528.6 80.505C528.891 80.764 529.055 80.9729 528.965 80.9693C528.756 80.9607 527.877 80.1752 527.987 80.0949C528.033 80.0616 528.308 80.2462 528.6 80.505ZM518.974 80.951C519.777 81.6921 520.361 82.2956 520.274 82.2921C520.102 82.2852 518.218 80.5716 517.721 79.9699C517.552 79.7651 517.436 79.599 517.465 79.6004C517.493 79.602 518.172 80.2099 518.974 80.951ZM529.363 80.6651C529.398 80.8449 529.503 81.0326 529.595 81.0822C529.7 81.1392 529.724 81.0879 529.662 80.9436C529.607 80.8177 529.566 80.6325 529.57 80.5321C529.574 80.4317 529.515 80.3469 529.438 80.3438C529.361 80.3409 529.327 80.4852 529.363 80.6651ZM533.501 80.92C533.549 81.0245 533.588 80.9956 533.602 80.8461C533.614 80.7106 533.58 80.6331 533.524 80.6736C533.468 80.7144 533.458 80.8251 533.501 80.92ZM534.09 81.1131C534.086 81.2192 534.154 81.3088 534.24 81.3125C534.327 81.3158 534.359 81.2302 534.312 81.1219C534.265 81.0136 534.197 80.9239 534.162 80.9226C534.127 80.9211 534.095 81.0068 534.09 81.1131ZM524.584 81.1163C524.752 81.2265 524.85 81.345 524.802 81.3797C524.755 81.4144 524.588 81.3213 524.432 81.1727C524.101 80.8562 524.157 80.8352 524.584 81.1163ZM520.843 81.1785C520.793 81.2366 520.686 81.2484 520.605 81.2042C520.397 81.0917 520.423 81.0519 520.696 81.063C520.825 81.0683 520.891 81.1204 520.843 81.1785ZM517.88 82.2595C518.132 82.4469 518.382 82.6001 518.434 82.6001C518.567 82.5998 517.675 81.9287 517.535 81.9231C517.473 81.9208 517.629 82.072 517.88 82.2595ZM523.226 83.1169C523.582 83.3514 523.774 83.386 523.781 83.2174C523.783 83.1519 523.659 83.0666 523.504 83.0278C522.978 82.8961 522.918 82.9151 523.226 83.1169ZM543.879 84.1978C543.638 84.4177 543.034 84.695 543.039 84.5837C543.04 84.5507 543.284 84.4013 543.579 84.2518C543.961 84.0589 544.049 84.0431 543.879 84.1978ZM517.152 83.6613C517.204 83.7063 517.343 83.7166 517.462 83.684C517.594 83.6481 517.556 83.6162 517.367 83.6024C517.197 83.5898 517.101 83.6162 517.152 83.6613ZM544.399 85.2745C544.222 85.3713 544.151 85.4535 544.24 85.4572C544.329 85.4608 544.546 85.3845 544.723 85.2877C544.9 85.1907 544.973 85.1085 544.884 85.1048C544.794 85.1014 544.577 85.1775 544.399 85.2745ZM523.08 84.4796C523.076 84.5942 521.605 85.1052 521.512 85.0246C521.483 84.9999 521.826 84.8419 522.272 84.674C522.719 84.5057 523.082 84.4183 523.08 84.4796ZM517.069 84.6115C517.201 84.6853 517.235 84.7429 517.145 84.7394C517.056 84.7358 516.877 84.6721 516.745 84.5982C516.615 84.5241 516.58 84.4666 516.669 84.4702C516.758 84.4739 516.939 84.5373 517.069 84.6115ZM517.919 84.7755C518.164 84.8444 518.909 84.9134 519.577 84.9284C520.932 84.959 521.178 85.1022 520.029 85.1919C519.25 85.2526 517.622 84.971 517.463 84.7476C517.414 84.6794 517.397 84.6295 517.424 84.6367C517.452 84.6439 517.674 84.7064 517.919 84.7755ZM546.369 86.5072C546.361 86.6917 545.299 86.9297 544.918 86.8323C544.538 86.7353 544.59 86.709 545.391 86.5888C545.886 86.5145 546.308 86.4521 546.33 86.4499C546.353 86.4479 546.37 86.4737 546.369 86.5072Z" fill="#55721E"/>
</svg>
