<svg width="58" height="55" viewBox="0 0 58 55" fill="none" xmlns="http://www.w3.org/2000/svg">
<g clip-path="url(#clip0_32_1054)">
<path d="M58.0002 27.714C58.0002 25.8024 57.8404 23.8805 57.4996 22H30.1602V32.8286H45.8162C45.1665 36.3211 42.4968 39.8368 39.4402 41.8L40.0224 48.4L48.7202 48.4C54.2051 43.5023 58.0002 36.2694 58.0002 27.714Z" fill="#4285F4"/>
<path d="M29.454 55C37.293 55 43.9038 52.59 48.7205 48.43L39.4405 41.8C36.8346 43.46 33.3842 44.23 29.4646 44.23C21.8819 44.23 15.0673 39.44 12.7605 33H3.48047V40.01C8.41458 49.2 18.4644 55 29.454 55Z" fill="#34A853"/>
<path d="M12.7595 33.0001C11.4299 29.6533 12.0099 25.3469 13.3395 22.0001L13.9195 15.4001L3.47945 14.8501C-1.02253 22.4646 -1.12601 31.9856 3.37597 39.6001L12.7595 33.0001Z" fill="#FBBC04"/>
<path d="M30.0135 10.766C34.2465 10.7061 38.3377 12.1653 41.4034 14.8439L49.8805 7.07803C44.5128 2.46051 37.3886 -0.078124 30.0135 0.001833C18.7871 0.001833 8.52086 5.65495 3.48047 14.85L13.3431 22C15.6887 15.5535 22.2674 10.766 30.0135 10.766Z" fill="#EA4335"/>
</g>
<defs>
<clipPath id="clip0_32_1054">
<rect width="58" height="55" fill="white"/>
</clipPath>
</defs>
</svg>
