<svg width="31" height="23" viewBox="0 0 31 23" fill="none" xmlns="http://www.w3.org/2000/svg">
<path fill-rule="evenodd" clip-rule="evenodd" d="M23.852 2.34995L21.522 4.69984L20.7957 4.48736C18.9306 3.94157 17.6248 3.76294 15.5 3.76294C13.7331 3.76294 13.0103 3.83478 11.4468 4.16571C8.60191 4.76789 5.69557 6.17043 3.30476 8.09488C2.16888 9.00924 0.937309 10.2471 0.219454 11.1961L0 11.4862L0.273622 11.8452C1.10356 12.9339 2.61862 14.3794 4.03744 15.4364C5.09271 16.2225 6.81082 17.2112 7.90445 17.6618C8.17075 17.7715 8.40104 17.871 8.41623 17.8829C8.43136 17.8948 7.46476 18.8931 6.26817 20.1013L4.09252 22.2981L4.44022 22.649L4.78792 23L7.13298 20.6347L9.47803 18.2695L10.0833 18.45C10.9251 18.701 12.1778 18.9695 13.1094 19.0985C14.2136 19.2514 16.7845 19.2516 17.8906 19.0988C20.6981 18.7109 23.1313 17.8485 25.5331 16.3899C27.5314 15.1762 29.5507 13.4001 30.7805 11.7743L31 11.4842L30.7264 11.1253C29.8964 10.0366 28.3814 8.591 26.9626 7.53406C25.9193 6.75691 24.1465 5.74163 22.9459 5.23372L22.5541 5.06797L24.7301 2.87088L26.906 0.673779L26.5764 0.33692C26.3952 0.151629 26.2322 0 26.2144 0C26.1966 0 25.1335 1.0575 23.852 2.34995ZM17.7998 4.85037C18.7468 4.97658 20.5668 5.3719 20.7021 5.48077C20.7173 5.49293 20.0794 6.15968 19.2846 6.96248L17.8396 8.42202L17.5927 8.25176C17.0009 7.84343 16.2751 7.63046 15.4806 7.63193C14.4053 7.63394 13.5802 7.98357 12.8056 8.76548C12.031 9.54739 11.6846 10.3803 11.6826 11.4657C11.6812 12.2676 11.8921 13.0002 12.2967 13.5976L12.4654 13.8467L10.8392 15.4873L9.21307 17.1279L8.77059 16.9563C8.08566 16.6906 6.34619 15.7759 5.57435 15.2755C4.23807 14.409 3.19939 13.5546 2.01866 12.3505C1.57763 11.9007 1.21674 11.5094 1.21674 11.481C1.21674 11.3796 2.953 9.67122 3.57711 9.1586C6.59929 6.67621 9.96832 5.2017 13.4725 4.8277C13.8387 4.78866 14.1927 4.74669 14.2593 4.73447C14.5527 4.68059 17.169 4.76624 17.7998 4.85037ZM22.3223 6.05265C23.0355 6.33733 24.6443 7.18883 25.4257 7.69522C26.7608 8.56052 27.8002 9.41543 28.9813 10.62C29.4224 11.0697 29.7833 11.4613 29.7833 11.49C29.7833 11.5907 28.0526 13.2922 27.4229 13.8106C24.4837 16.2304 21.4174 17.6037 17.7931 18.1233C16.8581 18.2573 14.3943 18.2754 13.4422 18.1552C12.4463 18.0295 10.4357 17.6043 10.2979 17.4903C10.2827 17.4778 10.9206 16.8108 11.7154 16.0079L13.1604 14.5484L13.4073 14.7187C13.9991 15.127 14.7249 15.34 15.5194 15.3385C16.5947 15.3365 17.4198 14.9869 18.1944 14.205C18.9659 13.4262 19.3148 12.5913 19.3197 11.5123C19.3234 10.7183 19.088 9.91364 18.6864 9.34701L18.5349 9.13319L20.1491 7.49899C21.0368 6.60015 21.7831 5.86479 21.8075 5.86479C21.8318 5.86479 22.0635 5.94934 22.3223 6.05265ZM16.2555 8.6871C16.5156 8.75332 17.0454 9.00728 17.0961 9.09006C17.1132 9.11798 16.233 10.0431 15.1401 11.1459C13.1542 13.1498 13.1529 13.1509 13.0587 13.0054C12.3548 11.919 12.5345 10.3988 13.4793 9.445C14.2172 8.70023 15.2254 8.42502 16.2555 8.6871ZM18.1236 10.315C18.6055 11.3986 18.3664 12.6717 17.5209 13.5251C16.5763 14.4786 15.0701 14.6598 13.994 13.9495C13.8498 13.8543 13.8509 13.8531 15.8369 11.8477C17.2447 10.4261 17.8448 9.85841 17.8949 9.90038C17.9338 9.933 18.0367 10.1196 18.1236 10.315Z" fill="black" fill-opacity="0.5"/>
</svg>
