<svg width="28" height="28" viewBox="0 0 28 28" fill="none" xmlns="http://www.w3.org/2000/svg">
<g clip-path="url(#clip0_325_658)">
<path d="M25.375 3.5H2.62502C1.17749 3.5 0 4.67749 0 6.12502V21.875C0 23.3225 1.17749 24.5 2.62502 24.5H25.375C26.8225 24.5 28 23.3225 28 21.875V6.12502C28 4.67749 26.8225 3.5 25.375 3.5ZM25.375 5.24999C25.4939 5.24999 25.607 5.27466 25.7104 5.31773L14 15.4672L2.28958 5.31773C2.39298 5.27472 2.50608 5.24999 2.62496 5.24999H25.375ZM25.375 22.75H2.62502C2.14224 22.75 1.74999 22.3578 1.74999 21.875V7.16662L13.4266 17.2864C13.5916 17.429 13.7958 17.5 14 17.5C14.2042 17.5 14.4084 17.4291 14.5734 17.2864L26.25 7.16662V21.875C26.2499 22.3578 25.8578 22.75 25.375 22.75Z" fill="#9EAC31"/>
</g>
<defs>
<clipPath id="clip0_325_658">
<rect width="28" height="28" fill="white"/>
</clipPath>
</defs>
</svg>
