<svg width="22" height="31" viewBox="0 0 22 31" fill="none" xmlns="http://www.w3.org/2000/svg">
<path d="M11 0C5.02937 0 0.171875 4.88904 0.171875 10.8984C0.171875 12.9288 0.730667 14.9103 1.78821 16.6293L10.3836 30.5707C10.5483 30.8377 10.8384 31 11.1503 31C11.1527 31 11.1551 31 11.1575 31C11.4722 30.9975 11.7628 30.8302 11.9245 30.5585L20.3008 16.4821C21.3 14.7994 21.8281 12.8686 21.8281 10.8984C21.8281 4.88904 16.9706 0 11 0ZM18.7521 15.5495L11.1367 28.3472L3.32208 15.6723C2.44181 14.2415 1.96453 12.5907 1.96453 10.8984C1.96453 5.89061 6.02448 1.8043 11 1.8043C15.9755 1.8043 20.0295 5.89061 20.0295 10.8984C20.0295 12.5405 19.5836 14.1491 18.7521 15.5495Z" fill="#9EAC31"/>
<path d="M11 5.44922C8.01469 5.44922 5.58594 7.89374 5.58594 10.8984C5.58594 13.8839 7.97516 16.3477 11 16.3477C14.0621 16.3477 16.4141 13.8511 16.4141 10.8984C16.4141 7.89374 13.9853 5.44922 11 5.44922ZM11 14.5434C8.99938 14.5434 7.37859 12.9066 7.37859 10.8984C7.37859 8.8953 9.00979 7.25352 11 7.25352C12.9902 7.25352 14.6154 8.8953 14.6154 10.8984C14.6154 12.8773 13.0323 14.5434 11 14.5434Z" fill="#9EAC31"/>
</svg>
